<svg xmlns="http://www.w3.org/2000/svg" xmlns:xlink="http://www.w3.org/1999/xlink" viewBox="0 0 250 392">
	<defs>
		<style>
			.cls-1 {
				mask: url(#mask);
			}

			.cls-2, .cls-255, .cls-256, .cls-3, .cls-7 {
				mix-blend-mode: multiply;
			}

			.cls-2 {
				fill: url(#linear-gradient);
			}

			.cls-3 {
				fill: url(#linear-gradient-2);
			}

			.cls-4 {
				isolation: isolate;
			}

			.cls-259, .cls-344, .cls-5 {
				mix-blend-mode: lighten;
			}

			.cls-6 {
				fill: url(#linear-gradient-3);
			}

			.cls-256 {
				opacity: 0.5;
			}

			.cls-253 {
				fill: url(#linear-gradient-4);
			}

			.cls-254 {
				mask: url(#mask-3);
			}

			.cls-255, .cls-259 {
				opacity: 0.4;
			}

			.cls-255 {
				fill: url(#linear-gradient-5);
			}

			.cls-256 {
				fill: url(#linear-gradient-6);
			}

			.cls-257 {
				fill: url(#linear-gradient-7);
			}

			.cls-258 {
				fill: url(#linear-gradient-8);
			}

			.cls-259 {
				fill: url(#linear-gradient-9);
			}

			.cls-260 {
				fill: url(#linear-gradient-10);
			}

			.cls-261 {
				fill: #ab95f9;
			}

			.cls-262 {
				fill: url(#linear-gradient-11);
			}

			.cls-263 {
				fill: url(#linear-gradient-12);
			}

			.cls-264 {
				fill: url(#linear-gradient-13);
			}

			.cls-265 {
				fill: url(#linear-gradient-14);
			}

			.cls-266 {
				fill: url(#linear-gradient-15);
			}

			.cls-267 {
				fill: url(#linear-gradient-16);
			}

			.cls-268 {
				fill: url(#linear-gradient-17);
			}

			.cls-269 {
				fill: url(#linear-gradient-18);
			}

			.cls-270 {
				fill: url(#linear-gradient-19);
			}

			.cls-271 {
				fill: url(#linear-gradient-20);
			}

			.cls-272 {
				fill: url(#linear-gradient-21);
			}

			.cls-273 {
				fill: url(#linear-gradient-22);
			}

			.cls-274 {
				fill: url(#linear-gradient-23);
			}

			.cls-275 {
				fill: url(#linear-gradient-24);
			}

			.cls-276 {
				fill: url(#linear-gradient-25);
			}

			.cls-277 {
				fill: url(#linear-gradient-26);
			}

			.cls-278 {
				fill: url(#linear-gradient-27);
			}

			.cls-279 {
				fill: #31e7ff;
			}

			.cls-280 {
				fill: #f8ffff;
				opacity: 0.3;
			}

			.cls-281, .cls-283 {
				mix-blend-mode: overlay;
			}

			.cls-281 {
				fill: url(#linear-gradient-28);
			}

			.cls-282, .cls-286, .cls-287, .cls-288, .cls-289, .cls-292, .cls-293, .cls-294, .cls-295, .cls-298, .cls-299, .cls-300, .cls-301, .cls-304, .cls-305, .cls-306, .cls-307, .cls-310, .cls-311, .cls-312, .cls-313, .cls-316, .cls-317, .cls-318, .cls-319, .cls-322, .cls-323, .cls-324, .cls-325, .cls-328, .cls-329, .cls-330, .cls-331, .cls-334, .cls-335, .cls-336, .cls-337, .cls-340, .cls-341, .cls-342, .cls-343, .cls-344 {
				opacity: 0.7;
			}

			.cls-284 {
				fill: url(#linear-gradient-29);
			}

			.cls-285 {
				fill: url(#linear-gradient-30);
			}

			.cls-286 {
				fill: url(#linear-gradient-31);
			}

			.cls-287 {
				fill: url(#linear-gradient-32);
			}

			.cls-288 {
				fill: url(#linear-gradient-33);
			}

			.cls-289 {
				fill: url(#linear-gradient-34);
			}

			.cls-290 {
				fill: url(#linear-gradient-35);
			}

			.cls-291 {
				fill: url(#linear-gradient-36);
			}

			.cls-292 {
				fill: url(#linear-gradient-37);
			}

			.cls-293 {
				fill: url(#linear-gradient-38);
			}

			.cls-294 {
				fill: url(#linear-gradient-39);
			}

			.cls-295 {
				fill: url(#linear-gradient-40);
			}

			.cls-296 {
				fill: url(#linear-gradient-41);
			}

			.cls-297 {
				fill: url(#linear-gradient-42);
			}

			.cls-298 {
				fill: url(#linear-gradient-43);
			}

			.cls-299 {
				fill: url(#linear-gradient-44);
			}

			.cls-300 {
				fill: url(#linear-gradient-45);
			}

			.cls-301 {
				fill: url(#linear-gradient-46);
			}

			.cls-302 {
				fill: url(#linear-gradient-47);
			}

			.cls-303 {
				fill: url(#linear-gradient-48);
			}

			.cls-304 {
				fill: url(#linear-gradient-49);
			}

			.cls-305 {
				fill: url(#linear-gradient-50);
			}

			.cls-306 {
				fill: url(#linear-gradient-51);
			}

			.cls-307 {
				fill: url(#linear-gradient-52);
			}

			.cls-308 {
				fill: url(#linear-gradient-53);
			}

			.cls-309 {
				fill: url(#linear-gradient-54);
			}

			.cls-310 {
				fill: url(#linear-gradient-55);
			}

			.cls-311 {
				fill: url(#linear-gradient-56);
			}

			.cls-312 {
				fill: url(#linear-gradient-57);
			}

			.cls-313 {
				fill: url(#linear-gradient-58);
			}

			.cls-314 {
				fill: url(#linear-gradient-59);
			}

			.cls-315 {
				fill: url(#linear-gradient-60);
			}

			.cls-316 {
				fill: url(#linear-gradient-61);
			}

			.cls-317 {
				fill: url(#linear-gradient-62);
			}

			.cls-318 {
				fill: url(#linear-gradient-63);
			}

			.cls-319 {
				fill: url(#linear-gradient-64);
			}

			.cls-320 {
				fill: url(#linear-gradient-65);
			}

			.cls-321 {
				fill: url(#linear-gradient-66);
			}

			.cls-322 {
				fill: url(#linear-gradient-67);
			}

			.cls-323 {
				fill: url(#linear-gradient-68);
			}

			.cls-324 {
				fill: url(#linear-gradient-69);
			}

			.cls-325 {
				fill: url(#linear-gradient-70);
			}

			.cls-326 {
				fill: url(#linear-gradient-71);
			}

			.cls-327 {
				fill: url(#linear-gradient-72);
			}

			.cls-328 {
				fill: url(#linear-gradient-73);
			}

			.cls-329 {
				fill: url(#linear-gradient-74);
			}

			.cls-330 {
				fill: url(#linear-gradient-75);
			}

			.cls-331 {
				fill: url(#linear-gradient-76);
			}

			.cls-332 {
				fill: url(#linear-gradient-77);
			}

			.cls-333 {
				fill: url(#linear-gradient-78);
			}

			.cls-334 {
				fill: url(#linear-gradient-79);
			}

			.cls-335 {
				fill: url(#linear-gradient-80);
			}

			.cls-336 {
				fill: url(#linear-gradient-81);
			}

			.cls-337 {
				fill: url(#linear-gradient-82);
			}

			.cls-338 {
				fill: url(#linear-gradient-83);
			}

			.cls-339 {
				fill: url(#linear-gradient-84);
			}

			.cls-340 {
				fill: url(#linear-gradient-85);
			}

			.cls-341 {
				fill: url(#linear-gradient-86);
			}

			.cls-342 {
				fill: url(#linear-gradient-87);
			}

			.cls-343 {
				fill: url(#linear-gradient-88);
			}

			.cls-344 {
				fill: url(#linear-gradient-89);
			}

			.cls-345 {
				fill: url(#linear-gradient-90);
			}

			.cls-346 {
				fill: url(#linear-gradient-91);
			}

			.cls-347 {
				filter: url(#luminosity-noclip-3);
			}

			.cls-348 {
				filter: url(#luminosity-noclip);
			}
		</style>
		<filter id="luminosity-noclip" x="214.7" y="-8417" width="348.69" height="32766" filterUnits="userSpaceOnUse" color-interpolation-filters="sRGB">
			<feFlood flood-color="#fff" result="bg"/>
			<feBlend in="SourceGraphic" in2="bg"/>
		</filter>
		<mask id="mask" x="214.7" y="-8417" width="348.69" height="32766" maskUnits="userSpaceOnUse">
			<g class="cls-348"/>
		</mask>
		<linearGradient id="linear-gradient" x1="426.25" y1="354.91" x2="421.88" y2="347.2" gradientUnits="userSpaceOnUse">
			<stop offset="0" stop-color="#fff"/>
			<stop offset="1"/>
		</linearGradient>
		<linearGradient id="linear-gradient-2" x1="333.16" y1="384.81" x2="338.5" y2="375.64" xlink:href="#linear-gradient"/>
		<linearGradient id="linear-gradient-3" x1="712.01" y1="411.66" x2="274.67" y2="360.38" gradientUnits="userSpaceOnUse">
			<stop offset="0" stop-color="#4f24ff"/>
			<stop offset="1" stop-color="#13ffe2"/>
		</linearGradient>
		<linearGradient id="linear-gradient-4" x1="361.18" y1="335.68" x2="348.88" y2="335.68" gradientUnits="userSpaceOnUse">
			<stop offset="0" stop-color="#c3acff"/>
			<stop offset="1" stop-color="#dccfff"/>
		</linearGradient>
		<filter id="luminosity-noclip-3" x="214.7" y="194.01" width="348.69" height="199.42" filterUnits="userSpaceOnUse" color-interpolation-filters="sRGB">
			<feFlood flood-color="#fff" result="bg"/>
			<feBlend in="SourceGraphic" in2="bg"/>
		</filter>
		<mask id="mask-3" x="-6.97" y="167" width="348.69" height="199.42" maskUnits="userSpaceOnUse">
			<g class="cls-347">
				<g transform="translate(-221.67 -27)">
					<g class="cls-1">
						<path class="cls-2" d="M558.17,260.05c-6.66-6.74-6.88-.7-5.57,6.62l-122-70.76a17.93,17.93,0,0,0-17.06.53L234.39,299.61c-7.25-3.32-13.92-4.4-16.91.48-5.42,8.84-1.77,13.66,1.29,16.63a10.65,10.65,0,0,0,2.8,2.17l.15.09,125.34,72.58a17.63,17.63,0,0,0,16.78-.53L556.29,280S570.93,273,558.17,260.05Z"/>
					</g>
				</g>
			</g>
		</mask>
		<linearGradient id="linear-gradient-5" x1="383.18" y1="379.51" x2="379.94" y2="373.79" gradientUnits="userSpaceOnUse">
			<stop offset="0" stop-color="#3300bf"/>
			<stop offset="1" stop-color="#c0abff"/>
		</linearGradient>
		<linearGradient id="linear-gradient-6" x1="326.76" y1="380.48" x2="329.51" y2="375.74" xlink:href="#linear-gradient-5"/>
		<linearGradient id="linear-gradient-7" x1="618.38" y1="565.77" x2="351.36" y2="320.91" gradientTransform="translate(3.32 -5.28) rotate(0.81)" gradientUnits="userSpaceOnUse">
			<stop offset="0" stop-color="#9c74ff"/>
			<stop offset="1" stop-color="#fff6ff"/>
		</linearGradient>
		<linearGradient id="linear-gradient-8" x1="282.13" y1="342.34" x2="722.81" y2="241.42" gradientUnits="userSpaceOnUse">
			<stop offset="0" stop-color="#0e9cff"/>
			<stop offset="1" stop-color="#fff6ff"/>
		</linearGradient>
		<linearGradient id="linear-gradient-9" x1="355.58" y1="-80.05" x2="355.58" y2="334.07" xlink:href="#linear-gradient-3"/>
		<linearGradient id="linear-gradient-10" x1="325.09" y1="255.73" x2="321.73" y2="250.01" gradientUnits="userSpaceOnUse">
			<stop offset="0" stop-color="#8845ff"/>
			<stop offset="1" stop-color="#d3c2ff"/>
		</linearGradient>
		<linearGradient id="linear-gradient-11" x1="299.91" y1="304.53" x2="303.86" y2="265.83" gradientUnits="userSpaceOnUse">
			<stop offset="0" stop-color="#3124ff"/>
			<stop offset="1" stop-color="#00efe2"/>
		</linearGradient>
		<linearGradient id="linear-gradient-12" x1="306.68" y1="291.82" x2="309.53" y2="296.14" gradientUnits="userSpaceOnUse">
			<stop offset="0" stop-color="#8942ff"/>
			<stop offset="1" stop-color="#d3c2ff"/>
		</linearGradient>
		<linearGradient id="linear-gradient-13" x1="351.38" y1="270.76" x2="348.02" y2="265.04" xlink:href="#linear-gradient-10"/>
		<linearGradient id="linear-gradient-14" x1="326.79" y1="316.73" x2="329.95" y2="280.4" xlink:href="#linear-gradient-11"/>
		<linearGradient id="linear-gradient-15" x1="332.97" y1="306.85" x2="335.82" y2="311.17" xlink:href="#linear-gradient-12"/>
		<linearGradient id="linear-gradient-16" x1="377.67" y1="286.11" x2="374.31" y2="280.39" xlink:href="#linear-gradient-10"/>
		<linearGradient id="linear-gradient-17" x1="353.32" y1="332.63" x2="356.07" y2="294.87" xlink:href="#linear-gradient-11"/>
		<linearGradient id="linear-gradient-18" x1="359.26" y1="322.2" x2="362.11" y2="326.52" xlink:href="#linear-gradient-12"/>
		<linearGradient id="linear-gradient-19" x1="325.67" y1="195.36" x2="322.31" y2="189.64" xlink:href="#linear-gradient-10"/>
		<linearGradient id="linear-gradient-20" x1="300.49" y1="244.16" x2="304.44" y2="205.46" xlink:href="#linear-gradient-11"/>
		<linearGradient id="linear-gradient-21" x1="307.26" y1="231.45" x2="310.11" y2="235.77" xlink:href="#linear-gradient-12"/>
		<linearGradient id="linear-gradient-22" x1="351.96" y1="210.39" x2="348.6" y2="204.67" xlink:href="#linear-gradient-10"/>
		<linearGradient id="linear-gradient-23" x1="327.37" y1="256.36" x2="330.53" y2="220.03" xlink:href="#linear-gradient-11"/>
		<linearGradient id="linear-gradient-24" x1="333.55" y1="246.48" x2="336.4" y2="250.8" xlink:href="#linear-gradient-12"/>
		<linearGradient id="linear-gradient-25" x1="378.25" y1="225.74" x2="374.89" y2="220.02" xlink:href="#linear-gradient-10"/>
		<linearGradient id="linear-gradient-26" x1="353.9" y1="272.26" x2="356.65" y2="234.5" xlink:href="#linear-gradient-11"/>
		<linearGradient id="linear-gradient-27" x1="359.84" y1="261.83" x2="362.69" y2="266.15" xlink:href="#linear-gradient-12"/>
		<linearGradient id="linear-gradient-28" x1="361.59" y1="337.29" x2="348.1" y2="337.29" gradientUnits="userSpaceOnUse">
			<stop offset="0" stop-color="#3bc3ff"/>
			<stop offset="1" stop-color="#a7ffe2"/>
		</linearGradient>
		<linearGradient id="linear-gradient-29" x1="2827.08" y1="270.33" x2="2827.08" y2="244.05" gradientTransform="matrix(-1, 0, 0, 1, 2853.87, -27)" gradientUnits="userSpaceOnUse">
			<stop offset="0" stop-color="#4fa4ff"/>
			<stop offset="1" stop-color="#1339e2"/>
		</linearGradient>
		<linearGradient id="linear-gradient-30" x1="2827.08" y1="266.1" x2="2827.08" y2="239.82" gradientTransform="matrix(-1, 0, 0, 1, 2853.87, -27)" gradientUnits="userSpaceOnUse">
			<stop offset="0" stop-color="#4f81ff"/>
			<stop offset="1" stop-color="#1339e2"/>
		</linearGradient>
		<linearGradient id="linear-gradient-31" x1="2829.38" y1="236.86" x2="2800.93" y2="253.77" gradientTransform="matrix(-1, 0, 0, 1, 2853.87, -27)" gradientUnits="userSpaceOnUse">
			<stop offset="0" stop-color="#4f24ff"/>
			<stop offset="1" stop-color="#00ffe2"/>
		</linearGradient>
		<linearGradient id="linear-gradient-32" x1="2852.32" y1="262.91" x2="2826.27" y2="237.43" xlink:href="#linear-gradient-31"/>
		<linearGradient id="linear-gradient-33" x1="2831.56" y1="284.69" x2="2806.42" y2="264.35" xlink:href="#linear-gradient-31"/>
		<linearGradient id="linear-gradient-34" x1="2846.49" y1="281.97" x2="2831.52" y2="268.26" xlink:href="#linear-gradient-31"/>
		<linearGradient id="linear-gradient-35" x1="2827.08" y1="270.26" x2="2827.08" y2="243.98" xlink:href="#linear-gradient-29"/>
		<linearGradient id="linear-gradient-36" x1="2827.08" y1="266.03" x2="2827.08" y2="239.75" xlink:href="#linear-gradient-30"/>
		<linearGradient id="linear-gradient-37" x1="2829.38" y1="236.78" x2="2800.93" y2="253.69" xlink:href="#linear-gradient-31"/>
		<linearGradient id="linear-gradient-38" x1="2852.32" y1="262.83" x2="2826.27" y2="237.35" xlink:href="#linear-gradient-31"/>
		<linearGradient id="linear-gradient-39" x1="2831.56" y1="284.62" x2="2806.42" y2="264.28" xlink:href="#linear-gradient-31"/>
		<linearGradient id="linear-gradient-40" x1="2846.49" y1="281.9" x2="2831.52" y2="268.19" xlink:href="#linear-gradient-31"/>
		<linearGradient id="linear-gradient-41" x1="2815.67" y1="278.85" x2="2815.67" y2="252.57" xlink:href="#linear-gradient-29"/>
		<linearGradient id="linear-gradient-42" x1="2815.67" y1="274.62" x2="2815.67" y2="248.34" xlink:href="#linear-gradient-30"/>
		<linearGradient id="linear-gradient-43" x1="2817.97" y1="245.38" x2="2789.52" y2="262.29" xlink:href="#linear-gradient-31"/>
		<linearGradient id="linear-gradient-44" x1="2840.91" y1="271.43" x2="2814.86" y2="245.95" xlink:href="#linear-gradient-31"/>
		<linearGradient id="linear-gradient-45" x1="2820.14" y1="293.21" x2="2795" y2="272.87" xlink:href="#linear-gradient-31"/>
		<linearGradient id="linear-gradient-46" x1="2835.08" y1="290.49" x2="2820.11" y2="276.78" xlink:href="#linear-gradient-31"/>
		<linearGradient id="linear-gradient-47" x1="2815.67" y1="278.78" x2="2815.67" y2="252.5" xlink:href="#linear-gradient-29"/>
		<linearGradient id="linear-gradient-48" x1="2815.67" y1="274.55" x2="2815.67" y2="248.27" xlink:href="#linear-gradient-30"/>
		<linearGradient id="linear-gradient-49" x1="2817.97" y1="245.3" x2="2789.52" y2="262.22" xlink:href="#linear-gradient-31"/>
		<linearGradient id="linear-gradient-50" x1="2840.91" y1="271.36" x2="2814.86" y2="245.88" xlink:href="#linear-gradient-31"/>
		<linearGradient id="linear-gradient-51" x1="2820.14" y1="293.14" x2="2795" y2="272.8" xlink:href="#linear-gradient-31"/>
		<linearGradient id="linear-gradient-52" x1="2835.08" y1="290.42" x2="2820.11" y2="276.71" xlink:href="#linear-gradient-31"/>
		<linearGradient id="linear-gradient-53" x1="2619.32" y1="297.13" x2="2619.32" y2="275.6" xlink:href="#linear-gradient-29"/>
		<linearGradient id="linear-gradient-54" x1="2619.32" y1="293.67" x2="2619.32" y2="272.14" xlink:href="#linear-gradient-30"/>
		<linearGradient id="linear-gradient-55" x1="2621.21" y1="269.71" x2="2597.9" y2="283.56" xlink:href="#linear-gradient-31"/>
		<linearGradient id="linear-gradient-56" x1="2640" y1="291.05" x2="2618.66" y2="270.18" xlink:href="#linear-gradient-31"/>
		<linearGradient id="linear-gradient-57" x1="2622.99" y1="308.89" x2="2602.4" y2="292.23" xlink:href="#linear-gradient-31"/>
		<linearGradient id="linear-gradient-58" x1="2635.22" y1="306.66" x2="2622.96" y2="295.43" xlink:href="#linear-gradient-31"/>
		<linearGradient id="linear-gradient-59" x1="2619.32" y1="297.31" x2="2619.32" y2="275.78" xlink:href="#linear-gradient-29"/>
		<linearGradient id="linear-gradient-60" x1="2619.32" y1="293.85" x2="2619.32" y2="272.32" xlink:href="#linear-gradient-30"/>
		<linearGradient id="linear-gradient-61" x1="2621.21" y1="269.89" x2="2597.9" y2="283.74" xlink:href="#linear-gradient-31"/>
		<linearGradient id="linear-gradient-62" x1="2640" y1="291.23" x2="2618.66" y2="270.36" xlink:href="#linear-gradient-31"/>
		<linearGradient id="linear-gradient-63" x1="2622.99" y1="309.07" x2="2602.4" y2="292.41" xlink:href="#linear-gradient-31"/>
		<linearGradient id="linear-gradient-64" x1="2635.22" y1="306.85" x2="2622.96" y2="295.61" xlink:href="#linear-gradient-31"/>
		<linearGradient id="linear-gradient-65" x1="2629.78" y1="303.93" x2="2629.78" y2="282.4" xlink:href="#linear-gradient-29"/>
		<linearGradient id="linear-gradient-66" x1="2629.78" y1="300.46" x2="2629.78" y2="278.94" xlink:href="#linear-gradient-30"/>
		<linearGradient id="linear-gradient-67" x1="2631.66" y1="276.51" x2="2608.36" y2="290.36" xlink:href="#linear-gradient-31"/>
		<linearGradient id="linear-gradient-68" x1="2650.46" y1="297.85" x2="2629.12" y2="276.98" xlink:href="#linear-gradient-31"/>
		<linearGradient id="linear-gradient-69" x1="2633.45" y1="315.69" x2="2612.85" y2="299.03" xlink:href="#linear-gradient-31"/>
		<linearGradient id="linear-gradient-70" x1="2645.68" y1="313.46" x2="2633.42" y2="302.23" xlink:href="#linear-gradient-31"/>
		<linearGradient id="linear-gradient-71" x1="2629.78" y1="304.11" x2="2629.78" y2="282.58" xlink:href="#linear-gradient-29"/>
		<linearGradient id="linear-gradient-72" x1="2629.78" y1="300.65" x2="2629.78" y2="279.12" xlink:href="#linear-gradient-30"/>
		<linearGradient id="linear-gradient-73" x1="2631.66" y1="276.69" x2="2608.36" y2="290.54" xlink:href="#linear-gradient-31"/>
		<linearGradient id="linear-gradient-74" x1="2650.46" y1="298.03" x2="2629.12" y2="277.16" xlink:href="#linear-gradient-31"/>
		<linearGradient id="linear-gradient-75" x1="2633.45" y1="315.87" x2="2612.85" y2="299.21" xlink:href="#linear-gradient-31"/>
		<linearGradient id="linear-gradient-76" x1="2645.68" y1="313.64" x2="2633.42" y2="302.41" xlink:href="#linear-gradient-31"/>
		<linearGradient id="linear-gradient-77" x1="2716.01" y1="166.96" x2="2716.01" y2="130.03" xlink:href="#linear-gradient-29"/>
		<linearGradient id="linear-gradient-78" x1="2716.01" y1="161.02" x2="2716.01" y2="124.09" xlink:href="#linear-gradient-30"/>
		<linearGradient id="linear-gradient-79" x1="2719.23" y1="119.92" x2="2679.25" y2="143.68" xlink:href="#linear-gradient-31"/>
		<linearGradient id="linear-gradient-80" x1="2751.47" y1="156.53" x2="2714.86" y2="120.72" xlink:href="#linear-gradient-31"/>
		<linearGradient id="linear-gradient-81" x1="2722.29" y1="187.14" x2="2686.97" y2="158.56" xlink:href="#linear-gradient-31"/>
		<linearGradient id="linear-gradient-82" x1="2743.28" y1="183.32" x2="2722.25" y2="164.05" xlink:href="#linear-gradient-31"/>
		<linearGradient id="linear-gradient-83" x1="2716.01" y1="166.91" x2="2716.01" y2="129.98" xlink:href="#linear-gradient-29"/>
		<linearGradient id="linear-gradient-84" x1="2716.01" y1="160.97" x2="2716.01" y2="124.04" xlink:href="#linear-gradient-30"/>
		<linearGradient id="linear-gradient-85" x1="2719.23" y1="119.87" x2="2679.25" y2="143.64" xlink:href="#linear-gradient-31"/>
		<linearGradient id="linear-gradient-86" x1="2751.47" y1="156.48" x2="2714.86" y2="120.68" xlink:href="#linear-gradient-31"/>
		<linearGradient id="linear-gradient-87" x1="2722.29" y1="187.09" x2="2686.97" y2="158.51" xlink:href="#linear-gradient-31"/>
		<linearGradient id="linear-gradient-88" x1="2743.28" y1="183.27" x2="2722.25" y2="164" xlink:href="#linear-gradient-31"/>
		<linearGradient id="linear-gradient-89" x1="710.28" y1="100.58" x2="155.77" y2="100.58" xlink:href="#linear-gradient-3"/>
		<linearGradient id="linear-gradient-90" x1="712.63" y1="125.82" x2="275.29" y2="74.54" xlink:href="#linear-gradient-3"/>
		<linearGradient id="linear-gradient-91" x1="712.63" y1="116.71" x2="275.29" y2="65.44" xlink:href="#linear-gradient-3"/>
	</defs>
	<g class="cls-4">
		<g id="content">
			<g id="_7" data-name="7">
				<g class="cls-5">
					<path class="cls-6" d="M355.54,417.93a13.4,13.4,0,0,1-6-1.43L278.2,375.2c-2.31-1.38-3.62-3.25-3.67-5.28a5.39,5.39,0,0,1,2.6-4.6l0,0L350,323.81a13.65,13.65,0,0,1,13-.4l71.32,41.36a6.87,6.87,0,0,1,3,5.77,5.19,5.19,0,0,1-2.67,4.29L362.32,416.1A13.46,13.46,0,0,1,355.54,417.93Zm-77.92-51.85a4.53,4.53,0,0,0-2.19,3.82c.05,1.7,1.19,3.31,3.23,4.52l71.28,41.28a12.51,12.51,0,0,0,11.93-.39L434.13,374a4.22,4.22,0,0,0,2.22-3.54,5.93,5.93,0,0,0-2.55-5l-71.25-41.32a12.76,12.76,0,0,0-12.14.38Z" transform="translate(-221.67 -27)"/>
				</g>
				<path class="cls-253" d="M452.6,321.17s-6.47-.71-5.16,6.6l-82.6-47.93a17.93,17.93,0,0,0-17.06.52l-73.94,42.08c-7.25-3.33-13.92-4.41-16.91.47-5.42,8.85-1.78,13.66,1.29,16.63a10.78,10.78,0,0,0,2.79,2.18l.16.09,85.89,49.75a17.63,17.63,0,0,0,16.78-.53l87.29-49.88S463.86,333.42,452.6,321.17Z" transform="translate(-221.67 -27)"/>
				<g class="cls-254">
					<path class="cls-255" d="M452.6,321.17s-6.47-.71-5.16,6.6l-82.6-47.93a17.93,17.93,0,0,0-17.06.52l-73.94,42.08c-7.25-3.33-13.92-4.41-16.91.47-5.42,8.85-1.78,13.66,1.29,16.63a10.78,10.78,0,0,0,2.79,2.18l.16.09,85.89,49.75a17.63,17.63,0,0,0,16.78-.53l87.29-49.88S463.9,333.76,452.6,321.17Z" transform="translate(-221.67 -27)"/>
				</g>
				<g class="cls-254">
					<path class="cls-256" d="M452.6,321.17s-6.47-.71-5.16,6.6l-82.6-47.93a17.93,17.93,0,0,0-17.06.52l-73.94,42.08c-7.25-3.33-13.92-4.41-16.91.47-5.42,8.85-1.78,13.66,1.29,16.63a10.78,10.78,0,0,0,2.79,2.18l.16.09,85.89,49.75a17.63,17.63,0,0,0,16.78-.53l87.29-49.88S463.66,333.55,452.6,321.17Z" transform="translate(-221.67 -27)"/>
				</g>
				<path class="cls-257" d="M259.65,320.13l88-50.19a17.93,17.93,0,0,1,17.06-.52l85.91,49.84c4.43,3.24,5.29,9.71.39,12.56l-87.3,49.89a17.68,17.68,0,0,1-16.78.53l-85.89-49.76C254.91,328.81,255.27,323.07,259.65,320.13Z" transform="translate(-221.67 -27)"/>
				<path class="cls-258" d="M266.72,320.66l82.35-46.93a15,15,0,0,1,14.24-.44l80.63,46.77c3.71,2.7,4.42,8.1.33,10.48l-81.73,46.68a14.73,14.73,0,0,1-14,.44L267.91,331C262.77,327.91,263.06,323.11,266.72,320.66Z" transform="translate(-221.67 -27)"/>
			</g>
			<g id="_6" data-name="6">
				<path class="cls-259" d="M436.5,302.83l-.13-201a4.73,4.73,0,0,1-2.29,3l-72.26,41.27a13,13,0,0,1-12.39.39l-71.28-41.28a6.52,6.52,0,0,1-3.36-4.17l0,200.46c-.38,2,.6,4.18,3.36,5.83l71.28,41.28a13,13,0,0,0,12.39-.39L434,306.91a4.69,4.69,0,0,0,2.45-4.08Z" transform="translate(-221.67 -27)"/>
				<g id="_10" data-name="10">
					<path class="cls-260" d="M357.11,229.43l-12-7a2.31,2.31,0,0,0-2.24-.23h0l0,0-48.71,28.06,16.63,63.27,48.46-27.93c.82-.39,1.35-1.42,1.35-2.92l.08-46.54C360.64,233.58,359.06,230.56,357.11,229.43Z" transform="translate(-221.67 -27)"/>
					<path class="cls-261" d="M308.47,313.36l-12-7c-1.95-1.13-3.52-4.15-3.52-6.76l.08-46.54c0-2.61,1.59-3.8,3.54-2.67l12,7c1.95,1.13,3.53,4.15,3.52,6.76L312,310.69C312,313.3,310.42,314.49,308.47,313.36Z" transform="translate(-221.67 -27)"/>
					<path class="cls-262" d="M306.06,307.86l-7.69-4.46a5.42,5.42,0,0,1-2.26-4.33l0-41.59c0-1.67,1-2.43,2.26-1.71l7.69,4.46a5.42,5.42,0,0,1,2.26,4.33l0,41.59C308.32,307.82,307.31,308.58,306.06,307.86Z" transform="translate(-221.67 -27)"/>
					<path class="cls-263" d="M302.11,301.44a5.44,5.44,0,0,1-2.25-4.32l0-40.48-1.47-.86c-1.25-.72-2.27,0-2.27,1.71l0,41.59a5.44,5.44,0,0,0,2.26,4.33l7.69,4.46c1.25.72,2.26,0,2.27-1.71v-1.11Z" transform="translate(-221.67 -27)"/>
					<path class="cls-264" d="M383.4,244.45l-12-7a2.26,2.26,0,0,0-2.24-.23h0L320.4,265.34,337,328.6l48.47-27.92c.82-.39,1.35-1.42,1.35-2.92l.08-46.55C386.93,248.61,385.35,245.58,383.4,244.45Z" transform="translate(-221.67 -27)"/>
					<path class="cls-261" d="M334.76,328.39l-12-7c-1.95-1.13-3.53-4.16-3.52-6.76l.08-46.55c0-2.6,1.59-3.8,3.54-2.66l12,7c1.95,1.13,3.53,4.16,3.52,6.76l-.08,46.55C338.3,328.32,336.71,329.52,334.76,328.39Z" transform="translate(-221.67 -27)"/>
					<path class="cls-265" d="M332.35,322.88l-7.7-4.45a5.47,5.47,0,0,1-2.25-4.33l0-41.6c0-1.66,1-2.43,2.26-1.7l7.69,4.46a5.42,5.42,0,0,1,2.26,4.32l0,41.6C334.61,322.84,333.59,323.61,332.35,322.88Z" transform="translate(-221.67 -27)"/>
					<path class="cls-266" d="M328.4,316.47a5.39,5.39,0,0,1-2.25-4.33l0-40.48-1.47-.85c-1.25-.73-2.27,0-2.27,1.7l0,41.6a5.42,5.42,0,0,0,2.26,4.32l7.69,4.46c1.25.73,2.26,0,2.27-1.7v-1.12Z" transform="translate(-221.67 -27)"/>
					<path class="cls-267" d="M409.69,259.8l-12-7a2.26,2.26,0,0,0-2.24-.23h0l-48.71,28.07L363.31,344,411.78,316c.81-.39,1.34-1.42,1.35-2.92l.08-46.55C413.21,264,411.64,260.93,409.69,259.8Z" transform="translate(-221.67 -27)"/>
					<path class="cls-261" d="M361.05,343.74l-12-7c-1.95-1.13-3.53-4.16-3.52-6.76l.08-46.55c0-2.6,1.59-3.8,3.54-2.66l12,7c2,1.13,3.53,4.16,3.52,6.76l-.08,46.55C364.58,343.67,363,344.87,361.05,343.74Z" transform="translate(-221.67 -27)"/>
					<path class="cls-268" d="M358.63,338.23l-7.69-4.45a5.41,5.41,0,0,1-2.25-4.33l0-41.6c0-1.66,1-2.43,2.27-1.7l7.69,4.46a5.42,5.42,0,0,1,2.26,4.32l0,41.6C360.9,338.19,359.88,339,358.63,338.23Z" transform="translate(-221.67 -27)"/>
					<path class="cls-269" d="M354.69,331.82a5.39,5.39,0,0,1-2.25-4.33l0-40.48-1.48-.85c-1.24-.73-2.26,0-2.26,1.7l0,41.6a5.45,5.45,0,0,0,2.26,4.33l7.69,4.45c1.25.73,2.26,0,2.26-1.7v-1.12Z" transform="translate(-221.67 -27)"/>
				</g>
				<g id="_10-2" data-name="10">
					<path class="cls-270" d="M357.69,169.06l-12-7a2.29,2.29,0,0,0-2.24-.23h0l0,0-48.71,28.06,16.63,63.26,48.46-27.92c.82-.39,1.35-1.42,1.35-2.92l.08-46.54C361.22,173.21,359.64,170.19,357.69,169.06Z" transform="translate(-221.67 -27)"/>
					<path class="cls-261" d="M309.05,253l-12-7c-1.95-1.13-3.52-4.16-3.52-6.76l.08-46.55c0-2.6,1.59-3.79,3.54-2.66l12,7c2,1.13,3.53,4.15,3.53,6.76l-.09,46.54C312.59,252.93,311,254.12,309.05,253Z" transform="translate(-221.67 -27)"/>
					<path class="cls-271" d="M306.64,247.49,299,243a5.44,5.44,0,0,1-2.26-4.33l0-41.59c0-1.67,1-2.43,2.26-1.71l7.7,4.46a5.44,5.44,0,0,1,2.25,4.33l0,41.59C308.9,247.45,307.89,248.21,306.64,247.49Z" transform="translate(-221.67 -27)"/>
					<path class="cls-272" d="M302.69,241.07a5.44,5.44,0,0,1-2.25-4.32l0-40.48-1.48-.86c-1.25-.72-2.26,0-2.27,1.71l0,41.59A5.4,5.4,0,0,0,299,243l7.69,4.46c1.25.72,2.26,0,2.27-1.71v-1.12Z" transform="translate(-221.67 -27)"/>
					<path class="cls-273" d="M384,184.08l-12-7a2.28,2.28,0,0,0-2.24-.22h0L321,205l16.63,63.26,48.46-27.92c.82-.39,1.35-1.42,1.35-2.92l.08-46.55C387.51,188.24,385.93,185.21,384,184.08Z" transform="translate(-221.67 -27)"/>
					<path class="cls-261" d="M335.34,268l-12-7c-1.95-1.13-3.53-4.16-3.52-6.76l.08-46.55c0-2.6,1.59-3.8,3.54-2.67l12,7c1.95,1.13,3.53,4.16,3.52,6.76l-.08,46.55C338.88,268,337.29,269.15,335.34,268Z" transform="translate(-221.67 -27)"/>
					<path class="cls-274" d="M332.93,262.51l-7.69-4.46a5.42,5.42,0,0,1-2.26-4.32l0-41.6c0-1.66,1-2.43,2.26-1.7l7.69,4.46a5.42,5.42,0,0,1,2.26,4.32l0,41.6C335.19,262.47,334.18,263.24,332.93,262.51Z" transform="translate(-221.67 -27)"/>
					<path class="cls-275" d="M329,256.1a5.41,5.41,0,0,1-2.25-4.33l0-40.48-1.47-.85c-1.25-.73-2.27,0-2.27,1.7l0,41.6a5.42,5.42,0,0,0,2.26,4.32l7.69,4.46c1.25.73,2.26,0,2.27-1.7V259.7Z" transform="translate(-221.67 -27)"/>
					<path class="cls-276" d="M410.27,199.43l-12-7a2.28,2.28,0,0,0-2.24-.22h0l-48.71,28.07,16.62,63.26,48.47-27.92c.82-.39,1.34-1.42,1.35-2.92l.08-46.55C413.79,203.59,412.22,200.56,410.27,199.43Z" transform="translate(-221.67 -27)"/>
					<path class="cls-261" d="M361.63,283.37l-12-7c-1.95-1.13-3.53-4.16-3.52-6.76l.08-46.55c0-2.6,1.59-3.8,3.54-2.67l12,7c1.95,1.13,3.53,4.16,3.52,6.76l-.08,46.55C365.16,283.3,363.58,284.5,361.63,283.37Z" transform="translate(-221.67 -27)"/>
					<path class="cls-277" d="M359.22,277.86l-7.7-4.45a5.47,5.47,0,0,1-2.25-4.33l0-41.6c0-1.66,1-2.43,2.26-1.7l7.69,4.46a5.42,5.42,0,0,1,2.26,4.32l0,41.6C361.48,277.82,360.46,278.59,359.22,277.86Z" transform="translate(-221.67 -27)"/>
					<path class="cls-278" d="M355.27,271.45a5.39,5.39,0,0,1-2.25-4.33l0-40.48-1.48-.85c-1.24-.73-2.26,0-2.26,1.7l0,41.6a5.42,5.42,0,0,0,2.26,4.32l7.69,4.46c1.25.73,2.26,0,2.26-1.7v-1.12Z" transform="translate(-221.67 -27)"/>
					<g id="_4" data-name="4">
						<path class="cls-279" d="M396.52,262.44a2.28,2.28,0,0,1-1.13,2h0v-8.09a2.28,2.28,0,0,1,.35-1.22l6.22-9.82a2.31,2.31,0,0,0,.36-1.22V234.3a.57.57,0,0,1,.57-.58h0a.58.58,0,0,1,.58.58v10.1a2.26,2.26,0,0,1-.36,1.22l-6.22,9.82a2.3,2.3,0,0,0-.35,1.22Z" transform="translate(-221.67 -27)"/>
						<path class="cls-279" d="M393,264.45a2.27,2.27,0,0,1-1.14,2h0V255.21a2.31,2.31,0,0,1,.36-1.22l6.22-9.82a2.28,2.28,0,0,0,.35-1.22V223.1a.58.58,0,0,1,.58-.58h0a.57.57,0,0,1,.57.58v20.19a2.3,2.3,0,0,1-.35,1.22l-6.22,9.82a2.26,2.26,0,0,0-.36,1.22Z" transform="translate(-221.67 -27)"/>
						<path class="cls-279" d="M399.64,224.94h0c-1,.58-1.78,0-1.79-1.32v-.11a4.24,4.24,0,0,1,1.73-3.41h0c1-.58,1.77,0,1.79,1.32v.11A4.27,4.27,0,0,1,399.64,224.94Z" transform="translate(-221.67 -27)"/>
						<path class="cls-279" d="M403.16,234.72h0c-1,.58-1.78,0-1.79-1.31v-.12a4.25,4.25,0,0,1,1.73-3.41h0c1-.57,1.77,0,1.79,1.32v.12A4.22,4.22,0,0,1,403.16,234.72Z" transform="translate(-221.67 -27)"/>
						<path class="cls-280" d="M399.67,227.61h0c-2.05,1.21-3.73,0-3.76-2.77v-.25c0-2.74,1.59-6,3.64-7.16h0c2-1.21,3.72,0,3.76,2.78v.24C403.34,223.19,401.71,226.4,399.67,227.61Z" transform="translate(-221.67 -27)"/>
						<path class="cls-280" d="M403.19,237.39h0c-2,1.21-3.73,0-3.76-2.77v-.24c0-2.75,1.6-5.95,3.64-7.16h0c2-1.22,3.73,0,3.76,2.77v.24C406.86,233,405.23,236.18,403.19,237.39Z" transform="translate(-221.67 -27)"/>
					</g>
				</g>
				<path class="cls-281" d="M436.28,302.55a4.74,4.74,0,0,1-2.44,4.5l-72.26,41.26a13.06,13.06,0,0,1-12.39.4l-71.28-41.29c-2.16-1.29-3.23-2.92-3.41-4.52v20.28c-.58,2.05.34,4.44,3.28,6.18l71.28,41.29a13,13,0,0,0,12.38-.4L433.71,329a4.75,4.75,0,0,0,2.44-4.5h0l.17-21.94Z" transform="translate(-221.67 -27)"/>
			</g>
			<g id="_5" data-name="5">
				<g class="cls-282">
					<g class="cls-283">
						<polygon class="cls-284" points="45.09 230.19 22.54 243.32 0 230.19 22.54 217.04 45.09 230.19"/>
						<polygon class="cls-285" points="45.09 225.96 22.54 239.1 0 225.96 22.54 212.82 45.09 225.96"/>
						<polygon class="cls-286" points="45.09 225.96 22.54 183.34 22.54 239.1 45.09 225.96"/>
						<polygon class="cls-287" points="0 225.96 22.54 183.34 22.54 239.1 0 225.96"/>
						<polygon class="cls-288" points="45.09 230.19 22.54 264.81 22.54 243.32 45.09 230.19"/>
						<polygon class="cls-289" points="0 230.19 22.54 264.81 22.54 243.32 0 230.19"/>
					</g>
					<g class="cls-283">
						<polygon class="cls-290" points="45.09 230.11 22.54 243.25 0 230.11 22.54 216.97 45.09 230.11"/>
						<polygon class="cls-291" points="45.09 225.88 22.54 239.03 0 225.88 22.54 212.74 45.09 225.88"/>
						<polygon class="cls-292" points="45.09 225.88 22.54 183.26 22.54 239.03 45.09 225.88"/>
						<polygon class="cls-293" points="0 225.88 22.54 183.26 22.54 239.03 0 225.88"/>
						<polygon class="cls-294" points="45.09 230.11 22.54 264.73 22.54 243.25 45.09 230.11"/>
						<polygon class="cls-295" points="0 230.11 22.54 264.73 22.54 243.25 0 230.11"/>
					</g>
				</g>
				<polygon class="cls-296" points="56.52 238.71 33.97 251.85 11.43 238.71 33.97 225.57 56.52 238.71"/>
				<polygon class="cls-297" points="56.52 234.48 33.97 247.62 11.43 234.48 33.97 221.34 56.52 234.48"/>
				<polygon class="cls-298" points="56.52 234.48 33.97 191.86 33.97 247.62 56.52 234.48"/>
				<polygon class="cls-299" points="11.43 234.48 33.97 191.86 33.97 247.62 11.43 234.48"/>
				<polygon class="cls-300" points="56.52 238.71 33.97 273.33 33.97 251.85 56.52 238.71"/>
				<polygon class="cls-301" points="11.43 238.71 33.97 273.33 33.97 251.85 11.43 238.71"/>
				<polygon class="cls-302" points="56.52 238.63 33.97 251.78 11.43 238.63 33.97 225.49 56.52 238.63"/>
				<polygon class="cls-303" points="56.52 234.41 33.97 247.55 11.43 234.41 33.97 221.27 56.52 234.41"/>
				<polygon class="cls-304" points="56.52 234.41 33.97 191.79 33.97 247.55 56.52 234.41"/>
				<polygon class="cls-305" points="11.43 234.41 33.97 191.79 33.97 247.55 11.43 234.41"/>
				<polygon class="cls-306" points="56.52 238.63 33.97 273.26 33.97 251.78 56.52 238.63"/>
				<polygon class="cls-307" points="11.43 238.63 33.97 273.26 33.97 251.78 11.43 238.63"/>
			</g>
			<g id="_4-2" data-name="4">
				<g class="cls-282">
					<g class="cls-283">
						<polygon class="cls-308" points="249.08 259.36 230.61 270.13 212.15 259.36 230.61 248.6 249.08 259.36"/>
						<polygon class="cls-309" points="249.08 255.9 230.61 266.66 212.15 255.9 230.61 245.13 249.08 255.9"/>
						<polygon class="cls-310" points="249.08 255.9 230.61 220.99 230.61 266.66 249.08 255.9"/>
						<polygon class="cls-311" points="212.15 255.9 230.61 220.99 230.61 266.66 212.15 255.9"/>
						<polygon class="cls-312" points="249.08 259.36 230.61 287.72 230.61 270.13 249.08 259.36"/>
						<polygon class="cls-313" points="212.15 259.36 230.61 287.72 230.61 270.13 212.15 259.36"/>
					</g>
					<g class="cls-283">
						<polygon class="cls-314" points="249.08 259.54 230.61 270.31 212.15 259.54 230.61 248.78 249.08 259.54"/>
						<polygon class="cls-315" points="249.08 256.08 230.61 266.84 212.15 256.08 230.61 245.32 249.08 256.08"/>
						<polygon class="cls-316" points="249.08 256.08 230.61 221.17 230.61 266.84 249.08 256.08"/>
						<polygon class="cls-317" points="212.15 256.08 230.61 221.17 230.61 266.84 212.15 256.08"/>
						<polygon class="cls-318" points="249.08 259.54 230.61 287.9 230.61 270.31 249.08 259.54"/>
						<polygon class="cls-319" points="212.15 259.54 230.61 287.9 230.61 270.31 212.15 259.54"/>
					</g>
				</g>
				<polygon class="cls-320" points="238.61 266.16 220.14 276.92 201.68 266.16 220.14 255.4 238.61 266.16"/>
				<polygon class="cls-321" points="238.61 262.69 220.14 273.46 201.68 262.69 220.14 251.93 238.61 262.69"/>
				<polygon class="cls-322" points="238.61 262.69 220.14 227.78 220.14 273.46 238.61 262.69"/>
				<polygon class="cls-323" points="201.68 262.69 220.14 227.78 220.14 273.46 201.68 262.69"/>
				<polygon class="cls-324" points="238.61 266.16 220.14 294.52 220.14 276.92 238.61 266.16"/>
				<polygon class="cls-325" points="201.68 266.16 220.14 294.52 220.14 276.92 201.68 266.16"/>
				<polygon class="cls-326" points="238.61 266.34 220.14 277.1 201.68 266.34 220.14 255.58 238.61 266.34"/>
				<polygon class="cls-327" points="238.61 262.88 220.14 273.64 201.68 262.88 220.14 252.11 238.61 262.88"/>
				<polygon class="cls-328" points="238.61 262.88 220.14 227.97 220.14 273.64 238.61 262.88"/>
				<polygon class="cls-329" points="201.68 262.88 220.14 227.97 220.14 273.64 201.68 262.88"/>
				<polygon class="cls-330" points="238.61 266.34 220.14 294.7 220.14 277.1 238.61 266.34"/>
				<polygon class="cls-331" points="201.68 266.34 220.14 294.7 220.14 277.1 201.68 266.34"/>
			</g>
			<g id="_3" data-name="3">
				<polygon class="cls-332" points="165.47 121.49 133.79 139.95 102.11 121.49 133.79 103.02 165.47 121.49"/>
				<polygon class="cls-333" points="165.47 115.55 133.79 134.01 102.11 115.55 133.79 97.08 165.47 115.55"/>
				<polygon class="cls-334" points="165.47 115.55 133.79 55.66 133.79 134.01 165.47 115.55"/>
				<polygon class="cls-335" points="102.11 115.55 133.79 55.66 133.79 134.01 102.11 115.55"/>
				<polygon class="cls-336" points="165.47 121.49 133.79 170.14 133.79 139.95 165.47 121.49"/>
				<polygon class="cls-337" points="102.11 121.49 133.79 170.14 133.79 139.95 102.11 121.49"/>
				<g class="cls-283">
					<polygon class="cls-338" points="165.47 121.44 133.79 139.91 102.11 121.44 133.79 102.98 165.47 121.44"/>
					<polygon class="cls-339" points="165.47 115.5 133.79 133.97 102.11 115.5 133.79 97.04 165.47 115.5"/>
					<polygon class="cls-340" points="165.47 115.5 133.79 55.61 133.79 133.97 165.47 115.5"/>
					<polygon class="cls-341" points="102.11 115.5 133.79 55.61 133.79 133.97 102.11 115.5"/>
					<polygon class="cls-342" points="165.47 121.44 133.79 170.1 133.79 139.91 165.47 121.44"/>
					<polygon class="cls-343" points="102.11 121.44 133.79 170.1 133.79 139.91 102.11 121.44"/>
				</g>
			</g>
			<g id="_2" data-name="2">
				<path class="cls-344" d="M277.28,96.33l72.8-41.49a13.24,13.24,0,0,1,12.59-.39L434,95.8c3.28,2.39,3.91,7.16.29,9.27L362,146.34a13,13,0,0,1-12.39.39l-71.28-41.28C273.78,102.74,274,98.5,277.28,96.33Z" transform="translate(-221.67 -27)"/>
				<g class="cls-5">
					<path class="cls-345" d="M356.16,132.09a13.53,13.53,0,0,1-6-1.43l-71.31-41.3c-2.31-1.38-3.62-3.25-3.67-5.28a5.39,5.39,0,0,1,2.6-4.6l0,0L350.58,38a13.65,13.65,0,0,1,13-.4l71.32,41.36a6.87,6.87,0,0,1,3,5.77A5.19,5.19,0,0,1,435.21,89l-72.27,41.26A13.37,13.37,0,0,1,356.16,132.09ZM278.24,80.24a4.53,4.53,0,0,0-2.19,3.82c.05,1.7,1.19,3.31,3.23,4.52l71.28,41.28a12.54,12.54,0,0,0,11.93-.39L434.75,88.2A4.25,4.25,0,0,0,437,84.66a5.92,5.92,0,0,0-2.55-5L363.17,38.37a12.76,12.76,0,0,0-12.14.38Z" transform="translate(-221.67 -27)"/>
				</g>
				<g class="cls-5">
					<path class="cls-346" d="M356.16,123a13.52,13.52,0,0,1-6-1.42l-71.31-41.3c-2.31-1.38-3.62-3.26-3.67-5.28a5.4,5.4,0,0,1,2.6-4.61h0l72.8-41.5a13.67,13.67,0,0,1,13-.4l71.32,41.37a6.87,6.87,0,0,1,3,5.77,5.19,5.19,0,0,1-2.67,4.28l-72.27,41.27A13.46,13.46,0,0,1,356.16,123ZM278.24,71.13A4.55,4.55,0,0,0,276.05,75c.05,1.71,1.19,3.31,3.23,4.53l71.28,41.28a12.54,12.54,0,0,0,11.93-.39L434.75,79.1A4.25,4.25,0,0,0,437,75.55a5.93,5.93,0,0,0-2.55-5L363.17,29.26a12.73,12.73,0,0,0-12.14.39Z" transform="translate(-221.67 -27)"/>
				</g>
			</g>
		</g>
	</g>
</svg>