<svg width="30" height="30" viewBox="0 0 30 30" xmlns="http://www.w3.org/2000/svg">
  <path d="M15 0C6.70945 0 0 6.70881 0 15C0 23.2906 6.70881 30 15 30C23.2905 30 30 23.2912 30 15C30 6.70939 23.2912 0 15 0ZM15 27.6562C8.00484 27.6562 2.34375 21.9957 2.34375 15C2.34375 8.00478 8.00432 2.34375 15 2.34375C21.9952 2.34375 27.6562 8.00432 27.6562 15C27.6562 21.9952 21.9957 27.6562 15 27.6562Z" fill="#C9C9C9"/>
  <path d="M20.1319 18.4749L16.6572 15.0002L20.1319 11.5254C20.5895 11.0678 20.5896 10.3258 20.132 9.86816C19.6742 9.41048 18.9323 9.41054 18.4747 9.86816L14.9999 13.3429L11.5251 9.86816C11.0676 9.41048 10.3255 9.41048 9.86788 9.86816C9.41027 10.3258 9.41027 11.0678 9.86794 11.5254L13.3427 15.0002L9.86794 18.4749C9.41027 18.9326 9.41021 19.6745 9.86788 20.1321C10.3257 20.5899 11.0676 20.5897 11.5251 20.1321L14.9999 16.6574L18.4747 20.1321C18.9322 20.5898 19.6743 20.5898 20.132 20.1321C20.5896 19.6745 20.5896 18.9325 20.1319 18.4749Z" fill="#C9C9C9"/>
</svg>
