<svg width="479" height="353" viewBox="0 0 479 353" fill="none" xmlns="http://www.w3.org/2000/svg">
<g opacity="0.2">
<path opacity="0.2" d="M119.688 146.17C118.324 130.19 105.418 111.684 90.8578 104.867C83.5662 101.47 77.2588 101.627 72.9644 104.644L68.4911 107.84H69.8778C67.3981 111.934 66.4031 116.756 67.0596 121.496C68.424 137.498 81.3295 155.982 95.8903 162.799C99.9606 164.959 104.622 165.743 109.176 165.034V166.285L113.649 163.067L113.828 162.933C118.1 159.915 120.359 154.104 119.688 146.17Z" fill="#9FFFF8"/>
<path opacity="0.2" d="M109.159 166.298C118.48 159.802 116.913 141.461 105.657 125.332C94.4009 109.203 77.7194 101.394 68.3976 107.89C59.0758 114.386 60.6436 132.726 71.8995 148.855C83.1553 164.984 99.8368 172.793 109.159 166.298Z" fill="#42E8E0"/>
<path opacity="0.2" d="M99.9833 165.346C96.8148 165.275 93.7002 164.512 90.8577 163.111C77.9074 157.054 66.3885 140.538 65.1584 126.279C64.5545 119.305 66.5004 113.897 70.5935 111.036C74.6866 108.175 80.4348 108.242 86.787 111.215C99.7373 117.294 111.278 133.81 112.486 148.047C113.09 155.021 111.167 160.452 107.051 163.29C104.968 164.696 102.496 165.415 99.9833 165.346ZM77.6166 109.605C75.2304 109.553 72.8866 110.24 70.9066 111.572C67.0372 114.277 65.2255 119.462 65.7847 126.167C66.9925 140.203 78.3324 156.451 91.0814 162.418C97.1875 165.279 102.69 165.369 106.559 162.664C110.429 159.96 112.263 154.775 111.681 148.07C110.473 134.056 99.1334 117.786 86.3844 111.818C83.6578 110.452 80.6655 109.697 77.6166 109.605Z" fill="#18B2A3"/>
</g>
<path opacity="0.6" d="M161.76 324.21C158.107 324.317 154.488 323.486 151.248 321.796L13.6927 242.431C12.4799 241.877 11.4401 241.004 10.6839 239.906C9.92778 238.808 9.48351 237.526 9.39835 236.196C9.39835 233.29 11.635 230.34 15.3926 228.15L277.776 76.8849C284.889 72.7502 295.669 72.4149 301.932 75.8792L439.487 155.11C440.695 155.67 441.731 156.545 442.487 157.641C443.242 158.738 443.689 160.017 443.781 161.346C443.781 164.273 441.545 167.201 437.787 169.392L175.404 320.813C171.22 323.089 166.523 324.259 161.76 324.21ZM291.487 73.89C286.803 73.8423 282.184 74.9884 278.067 77.2202L15.6834 228.664C12.0823 230.742 10.0023 233.491 10.0023 236.196C10.0894 237.419 10.5052 238.596 11.2059 239.603C11.9066 240.61 12.8662 241.41 13.9835 241.917L151.538 321.282C157.577 324.769 168.135 324.322 175.113 320.299L437.496 168.922C441.097 166.844 443.177 164.095 443.177 161.39C443.083 160.169 442.665 158.995 441.965 157.989C441.265 156.983 440.309 156.182 439.196 155.669L301.641 76.3038C298.488 74.6695 294.971 73.862 291.42 73.9571L291.487 73.89Z" fill="#42E8E0"/>
<path d="M443.468 124.736L423.718 128.133L301.775 57.7979C295.669 54.2666 284.978 54.7136 277.91 58.7813L44.6259 193.373L9.71149 199.363V211.745C9.78608 213.026 10.2086 214.263 10.9337 215.322C11.6588 216.381 12.659 217.223 13.8269 217.757L151.427 297.144C157.533 300.653 168.224 300.228 175.292 296.138L437.72 144.784C441.522 142.549 443.491 139.778 443.558 137.118L443.468 124.736Z" fill="url(#paint0_linear)"/>
<path d="M151.427 284.74L13.8493 205.375C7.74322 201.844 8.50366 195.675 15.5715 191.607L277.933 40.2309C285 36.1632 295.692 35.7609 301.798 39.2475L439.375 118.612C445.481 122.144 444.721 128.312 437.653 132.38L175.292 283.756C168.202 287.757 157.51 288.204 151.427 284.74Z" fill="#24126A"/>
<path d="M437.72 132.313L175.359 283.689C168.291 287.757 157.6 288.159 151.494 284.673L13.9164 205.308C12.8856 204.811 11.9838 204.082 11.2815 203.178C10.5792 202.275 10.0955 201.222 9.86806 200.1C9.73013 201.519 10.0482 202.945 10.7762 204.171C11.5042 205.396 12.6041 206.358 13.9164 206.917L151.427 286.282C157.533 289.813 168.224 289.366 175.292 285.299L437.72 133.922C441.947 131.486 443.915 128.29 443.491 125.362C443.111 126.879 442.395 128.29 441.397 129.493C440.398 130.697 439.141 131.66 437.72 132.313Z" fill="white"/>
<path opacity="0.51" d="M151.673 281.589L19.016 205.04C13.0889 201.62 13.8269 195.653 20.6711 191.63L278.156 43.1142C285 39.1583 295.334 38.6443 301.261 42.1532L433.918 118.702C439.845 122.121 439.107 128.089 432.262 132.112L174.755 280.65C167.933 284.584 157.6 285.008 151.673 281.589Z" fill="#330B41"/>
<path style="mix-blend-mode:lighten" opacity="0.8" d="M161.693 280.896C158.144 281.033 154.618 280.264 151.449 278.661L18.7923 202.045C17.6014 201.489 16.5824 200.623 15.8424 199.537C15.1025 198.452 14.6689 197.187 14.5874 195.876C14.5874 193.015 16.8241 190.132 20.4475 187.964L277.955 39.4486C284.889 35.4479 295.446 34.9786 301.485 38.4875L434.141 115.059C435.329 115.613 436.346 116.475 437.086 117.557C437.825 118.638 438.261 119.898 438.346 121.205C438.346 124.088 436.221 126.971 432.486 129.117L174.979 277.588C170.903 279.801 166.331 280.939 161.693 280.896ZM151.874 277.811C157.667 281.141 167.844 280.717 174.554 276.85L432.061 128.29C435.506 126.301 437.496 123.686 437.496 121.115C437.408 119.958 437.011 118.846 436.346 117.895C435.682 116.943 434.773 116.188 433.716 115.707L301.037 39.158C295.267 35.8055 285.09 36.2302 278.38 40.0967L20.8724 188.635C17.428 190.646 15.4373 193.261 15.4373 195.809C15.5259 196.969 15.923 198.084 16.5876 199.039C17.2522 199.994 18.1601 200.754 19.2173 201.24L151.874 277.811Z" fill="url(#paint1_linear)"/>
<path opacity="0.4" d="M161.693 280.762C158.166 280.89 154.664 280.12 151.516 278.527L18.8594 201.978C17.6868 201.436 16.683 200.586 15.9545 199.52C15.2259 198.453 14.7999 197.21 14.7216 195.921C14.7216 193.105 16.824 190.267 20.5145 188.143L278.022 39.5158C284.933 35.5375 295.423 35.0458 301.418 38.5771L434.074 115.126C435.241 115.67 436.24 116.517 436.968 117.579C437.695 118.64 438.125 119.877 438.212 121.16C438.212 123.999 436.11 126.837 432.419 128.96L174.912 277.476C170.859 279.681 166.308 280.813 161.693 280.762ZM151.829 278.035C157.645 281.387 167.866 280.963 174.621 277.074L432.128 128.446C435.618 126.435 437.63 123.775 437.63 121.16C437.533 119.983 437.126 118.853 436.45 117.883C435.774 116.914 434.854 116.14 433.783 115.64L301.104 39.0688C295.289 35.7163 285.068 36.1409 278.313 40.0298L20.8053 188.635C17.3161 190.669 15.3031 193.306 15.3031 195.921C15.397 197.102 15.8025 198.237 16.4783 199.211C17.1541 200.185 18.076 200.962 19.1502 201.464L151.829 278.035Z" fill="#42E8E0"/>
<path d="M328.369 147.22V159.312L223.604 219.769L118.838 159.312V147.22H328.369Z" fill="url(#paint2_linear)"/>
<path d="M223.604 207.655L118.838 147.22L223.604 86.7859L328.369 147.22L223.604 207.655Z" fill="#BCBEFF"/>
<path d="M223.604 206.247L120.069 146.505L118.838 147.221L223.604 207.655L328.369 147.221L327.139 146.528L223.604 206.247Z" fill="white"/>
<path d="M223.604 193.731L143.017 147.243L223.604 100.755L304.169 147.243L223.604 193.731Z" fill="#0F054C"/>
<path opacity="0.5" d="M223.604 193.731L143.017 147.243L223.604 100.755L304.169 147.243L223.604 193.731Z" fill="url(#paint3_linear)"/>
<path opacity="0.5" d="M223.604 181.997L143.017 135.509L223.604 89.021L304.169 135.509L223.604 181.997Z" fill="url(#paint4_linear)"/>
<path opacity="0.7" d="M223.604 168.319L166.77 135.509L223.604 102.722L280.438 135.509L223.604 168.319Z" fill="#42E8E0"/>
<path opacity="0.5" d="M223.604 154.082L191.396 135.509L223.604 116.936L255.789 135.509L223.604 154.082Z" fill="#42E8E0"/>
<path opacity="0.5" d="M223.604 118.657L254.313 136.381L255.789 135.509L223.604 116.936L191.396 135.509L192.894 136.381L223.604 118.657Z" fill="#42E8E0"/>
<g opacity="0.4">
<g style="mix-blend-mode:lighten">
<path d="M212.689 95.1898C211.977 95.1651 211.284 94.9572 210.676 94.5863L197.055 86.7191L197.368 86.1604L211.012 94.0276C211.378 94.3052 211.812 94.4787 212.269 94.5299C212.725 94.581 213.187 94.5079 213.606 94.3181C213.981 94.0462 214.276 93.679 214.461 93.2545C214.646 92.83 214.714 92.3638 214.657 91.9043V88.6189C214.602 88.048 214.702 87.4729 214.946 86.9538C215.19 86.4348 215.569 85.9909 216.044 85.6687C216.563 85.4293 217.135 85.3302 217.704 85.3812C218.273 85.4322 218.819 85.6315 219.287 85.9592L222.128 87.6131L221.815 88.1495L218.974 86.518C218.624 86.2123 218.186 86.0234 217.723 85.9777C217.26 85.9319 216.795 86.0316 216.391 86.2627C215.987 86.4939 215.666 86.8451 215.471 87.2674C215.277 87.6897 215.219 88.1622 215.306 88.6189V91.9043C215.363 92.4785 215.264 93.0574 215.02 93.5803C214.776 94.1033 214.396 94.5511 213.919 94.8769C213.543 95.085 213.119 95.1928 212.689 95.1898Z" fill="#42E8E0"/>
</g>
<g style="mix-blend-mode:lighten">
<path d="M207.343 98.2293C206.632 98.2046 205.938 97.9968 205.33 97.6259L191.687 89.7586L192 89.2222L205.621 97.0894C205.996 97.3589 206.435 97.5255 206.894 97.5726C207.353 97.6196 207.816 97.5455 208.238 97.3577C208.613 97.0909 208.909 96.7278 209.094 96.3068C209.279 95.8857 209.346 95.4225 209.289 94.9662V91.6807C209.188 91.1065 209.267 90.5152 209.514 89.9872C209.762 89.4591 210.166 89.02 210.671 88.7295C211.177 88.4389 211.76 88.311 212.341 88.3632C212.922 88.4154 213.473 88.6451 213.919 89.0211L216.76 90.6526L216.447 91.2114L213.606 89.5575C213.232 89.2864 212.795 89.1171 212.336 89.0662C211.877 89.0153 211.413 89.0844 210.989 89.2669C210.616 89.5404 210.322 89.908 210.137 90.332C209.953 90.756 209.884 91.2214 209.938 91.6807V94.9662C209.993 95.537 209.893 96.1122 209.649 96.6312C209.405 97.1503 209.026 97.5942 208.551 97.9164C208.186 98.1331 207.767 98.2416 207.343 98.2293Z" fill="#42E8E0"/>
</g>
<g style="mix-blend-mode:lighten">
<path d="M202.087 101.291C201.374 101.258 200.681 101.042 200.074 100.665L186.453 92.7982L186.766 92.2618L200.387 100.129C200.761 100.4 201.198 100.569 201.657 100.62C202.116 100.671 202.58 100.602 203.004 100.42C203.377 100.146 203.671 99.7785 203.856 99.3545C204.041 98.9304 204.109 98.465 204.055 98.0057V94.765C203.955 94.1908 204.033 93.5995 204.28 93.0714C204.528 92.5434 204.932 92.1043 205.438 91.8137C205.943 91.5231 206.526 91.3953 207.107 91.4474C207.689 91.4996 208.239 91.7293 208.685 92.1053L211.526 93.7592L211.213 94.2956L208.372 92.6641C208.002 92.3867 207.564 92.2135 207.103 92.1624C206.643 92.1113 206.178 92.1842 205.755 92.3735C205.38 92.6402 205.085 93.0034 204.9 93.4244C204.715 93.8454 204.647 94.3087 204.704 94.765V98.0504C204.764 98.6218 204.666 99.1986 204.422 99.7186C204.178 100.239 203.796 100.682 203.317 101.001C202.944 101.214 202.517 101.315 202.087 101.291Z" fill="#42E8E0"/>
</g>
<g style="mix-blend-mode:lighten">
<path d="M196.786 104.331C196.074 104.306 195.381 104.098 194.773 103.727L181.152 95.86L181.465 95.3013L195.086 103.168C195.457 103.446 195.895 103.619 196.355 103.67C196.815 103.721 197.281 103.648 197.703 103.459C198.076 103.191 198.371 102.827 198.556 102.407C198.74 101.986 198.809 101.524 198.755 101.068V97.7821C198.698 97.2079 198.797 96.629 199.041 96.1061C199.285 95.5831 199.665 95.1353 200.141 94.8096C200.66 94.5702 201.233 94.4711 201.802 94.5221C202.371 94.5731 202.917 94.7724 203.384 95.1001L206.225 96.754L205.912 97.2904L203.071 95.6588C202.72 95.3501 202.28 95.1595 201.814 95.1138C201.348 95.0681 200.879 95.1696 200.474 95.4041C200.069 95.6386 199.748 95.9942 199.556 96.4209C199.364 96.8475 199.31 97.3236 199.403 97.7821V101.068C199.458 101.638 199.358 102.214 199.114 102.733C198.871 103.252 198.491 103.696 198.016 104.018C197.64 104.226 197.216 104.334 196.786 104.331Z" fill="#42E8E0"/>
</g>
<g style="mix-blend-mode:lighten">
<path d="M191.485 107.37C190.774 107.346 190.08 107.138 189.472 106.767L175.851 98.8998L176.164 98.3633L189.786 106.231C190.161 106.498 190.598 106.664 191.056 106.715C191.514 106.766 191.978 106.699 192.402 106.521C192.772 106.244 193.064 105.876 193.248 105.453C193.432 105.03 193.503 104.566 193.454 104.107V100.822C193.353 100.248 193.431 99.6563 193.679 99.1283C193.926 98.6003 194.33 98.1611 194.836 97.8706C195.342 97.58 195.925 97.4521 196.506 97.5043C197.087 97.5565 197.638 97.7862 198.084 98.1622L200.924 99.7937L200.611 100.352L197.748 98.6986C197.391 98.3718 196.937 98.1699 196.454 98.1231C195.972 98.0764 195.488 98.1874 195.074 98.4394C194.66 98.6915 194.34 99.0709 194.16 99.5207C193.981 99.9705 193.953 100.466 194.08 100.934V104.219C194.137 104.788 194.041 105.362 193.801 105.88C193.561 106.399 193.186 106.844 192.716 107.169C192.333 107.351 191.906 107.421 191.485 107.37Z" fill="#42E8E0"/>
</g>
<g style="mix-blend-mode:lighten">
<path d="M186.184 110.41C185.469 110.39 184.772 110.174 184.171 109.784L170.55 101.939L170.863 101.381L184.485 109.248C184.855 109.525 185.293 109.698 185.753 109.749C186.214 109.8 186.679 109.728 187.102 109.538C187.471 109.262 187.763 108.894 187.947 108.471C188.131 108.047 188.202 107.583 188.153 107.125V103.839C188.1 103.271 188.199 102.699 188.438 102.181C188.678 101.663 189.05 101.217 189.517 100.889C190.034 100.643 190.608 100.54 191.178 100.591C191.749 100.642 192.295 100.845 192.76 101.179L195.623 102.833L195.31 103.37L192.447 101.738C192.097 101.432 191.659 101.244 191.196 101.198C190.733 101.152 190.268 101.252 189.864 101.483C189.46 101.714 189.139 102.065 188.945 102.488C188.75 102.91 188.692 103.382 188.779 103.839V107.125C188.844 107.694 188.751 108.27 188.51 108.791C188.27 109.311 187.891 109.755 187.415 110.075C187.046 110.303 186.618 110.42 186.184 110.41Z" fill="#42E8E0"/>
</g>
<g style="mix-blend-mode:lighten">
<path d="M180.884 113.472C180.171 113.45 179.477 113.242 178.871 112.869L165.227 105.001L165.562 104.443L179.184 112.31C179.534 112.615 179.971 112.804 180.434 112.85C180.897 112.896 181.363 112.796 181.767 112.565C182.17 112.334 182.492 111.983 182.686 111.56C182.881 111.138 182.939 110.666 182.852 110.209V106.923C182.794 106.355 182.891 105.781 183.131 105.262C183.371 104.743 183.746 104.298 184.216 103.973C184.732 103.722 185.307 103.617 185.878 103.668C186.45 103.719 186.996 103.925 187.459 104.264L190.322 105.895L190.009 106.454L187.146 104.8C186.794 104.491 186.355 104.301 185.889 104.255C185.423 104.209 184.954 104.311 184.549 104.545C184.144 104.78 183.823 105.136 183.631 105.562C183.438 105.989 183.385 106.465 183.478 106.923V110.209C183.535 110.778 183.439 111.351 183.199 111.87C182.959 112.389 182.584 112.834 182.114 113.159C181.736 113.364 181.313 113.472 180.884 113.472Z" fill="#42E8E0"/>
</g>
<g style="mix-blend-mode:lighten">
<path d="M175.583 116.534C174.869 116.504 174.175 116.288 173.57 115.908L159.926 108.041L160.239 107.505L173.883 115.372C174.235 115.681 174.674 115.871 175.14 115.917C175.606 115.963 176.075 115.861 176.48 115.627C176.885 115.392 177.206 115.036 177.398 114.61C177.591 114.183 177.644 113.707 177.551 113.249V109.963C177.498 109.395 177.597 108.823 177.836 108.305C178.076 107.787 178.448 107.341 178.915 107.013C179.432 106.767 180.006 106.664 180.577 106.715C181.147 106.766 181.693 106.969 182.158 107.303L185.021 108.935L184.708 109.494L181.845 107.84C181.47 107.573 181.033 107.406 180.575 107.355C180.117 107.304 179.653 107.371 179.228 107.549C178.859 107.826 178.567 108.194 178.383 108.617C178.199 109.04 178.128 109.504 178.177 109.963V113.249C178.23 113.817 178.131 114.389 177.892 114.907C177.652 115.425 177.28 115.871 176.813 116.199C176.441 116.421 176.016 116.537 175.583 116.534Z" fill="#42E8E0"/>
</g>
<g style="mix-blend-mode:lighten">
<path d="M170.282 119.573C169.569 119.552 168.875 119.344 168.269 118.97L154.625 111.103L154.938 110.544L168.582 118.411C168.953 118.689 169.391 118.862 169.851 118.913C170.311 118.964 170.776 118.891 171.199 118.702C171.57 118.427 171.863 118.059 172.047 117.635C172.232 117.212 172.302 116.747 172.25 116.288V113.003C172.141 112.429 172.213 111.835 172.457 111.304C172.7 110.773 173.103 110.331 173.609 110.039C174.115 109.746 174.7 109.619 175.282 109.673C175.864 109.728 176.415 109.962 176.858 110.343L179.72 111.997L179.407 112.533L176.544 110.902C176.194 110.596 175.757 110.407 175.294 110.361C174.831 110.316 174.365 110.415 173.961 110.646C173.558 110.878 173.236 111.229 173.042 111.651C172.847 112.073 172.789 112.546 172.876 113.003V116.288C172.955 116.87 172.873 117.462 172.641 118.002C172.408 118.541 172.034 119.007 171.557 119.35C171.158 119.532 170.719 119.609 170.282 119.573Z" fill="#42E8E0"/>
</g>
<g style="mix-blend-mode:lighten">
<path d="M164.981 122.613C164.269 122.591 163.574 122.383 162.968 122.01L149.324 114.142L149.637 113.606L163.281 121.473C163.656 121.743 164.094 121.909 164.554 121.956C165.013 122.003 165.476 121.929 165.898 121.741C166.269 121.471 166.562 121.108 166.747 120.688C166.932 120.267 167.001 119.806 166.949 119.35V116.064C166.894 115.496 166.991 114.923 167.231 114.405C167.471 113.886 167.845 113.441 168.313 113.114C168.829 112.863 169.404 112.758 169.975 112.809C170.547 112.86 171.094 113.066 171.557 113.405L174.42 115.036L174.084 115.595L171.243 113.941C170.892 113.632 170.452 113.442 169.986 113.396C169.52 113.35 169.051 113.452 168.646 113.686C168.241 113.921 167.92 114.277 167.728 114.703C167.536 115.13 167.482 115.606 167.575 116.064V119.35C167.628 119.918 167.53 120.49 167.29 121.008C167.05 121.526 166.678 121.972 166.211 122.3C165.84 122.521 165.413 122.63 164.981 122.613Z" fill="#42E8E0"/>
</g>
<g style="mix-blend-mode:lighten">
<path d="M159.68 125.675C158.966 125.645 158.272 125.429 157.667 125.049L144.023 117.182L144.336 116.646L157.98 124.513C158.332 124.822 158.772 125.012 159.238 125.058C159.704 125.104 160.172 125.002 160.577 124.768C160.982 124.533 161.304 124.178 161.496 123.751C161.688 123.324 161.741 122.848 161.648 122.39V119.104C161.596 118.536 161.694 117.964 161.934 117.446C162.173 116.928 162.545 116.482 163.013 116.154C163.53 115.908 164.103 115.805 164.674 115.856C165.244 115.907 165.791 116.11 166.256 116.445L169.096 118.098L168.783 118.635L165.943 117.003C165.592 116.698 165.155 116.509 164.692 116.463C164.229 116.417 163.763 116.517 163.36 116.748C162.956 116.979 162.635 117.33 162.44 117.753C162.246 118.175 162.188 118.647 162.275 119.104V122.39C162.33 122.958 162.232 123.531 161.992 124.049C161.753 124.568 161.379 125.013 160.91 125.34C160.538 125.562 160.113 125.678 159.68 125.675Z" fill="#42E8E0"/>
</g>
<g style="mix-blend-mode:lighten">
<path d="M154.357 128.715C153.652 128.689 152.966 128.481 152.366 128.111L138.722 120.244L139.036 119.685L152.679 127.552C153.03 127.858 153.467 128.047 153.93 128.093C154.393 128.138 154.859 128.039 155.262 127.808C155.666 127.576 155.987 127.225 156.182 126.803C156.376 126.381 156.434 125.908 156.347 125.451V122.166C156.291 121.594 156.387 121.018 156.627 120.495C156.866 119.973 157.241 119.524 157.712 119.193C158.231 118.953 158.806 118.855 159.376 118.91C159.946 118.965 160.491 119.171 160.955 119.506L163.795 121.138L163.482 121.674L160.642 120.043C160.271 119.765 159.833 119.592 159.373 119.541C158.913 119.49 158.447 119.563 158.025 119.752C157.655 120.029 157.364 120.397 157.179 120.82C156.995 121.243 156.924 121.707 156.974 122.166V125.451C157.026 126.02 156.928 126.592 156.688 127.11C156.449 127.628 156.076 128.074 155.609 128.402C155.224 128.607 154.794 128.715 154.357 128.715Z" fill="#42E8E0"/>
</g>
<g style="mix-blend-mode:lighten">
<path d="M149.056 131.754C148.351 131.732 147.664 131.524 147.065 131.151L133.422 123.284L133.735 122.747L147.378 130.614C147.73 130.923 148.17 131.114 148.636 131.159C149.102 131.205 149.57 131.104 149.975 130.869C150.381 130.635 150.702 130.279 150.894 129.852C151.086 129.426 151.139 128.95 151.046 128.491V125.206C150.937 124.632 151.01 124.038 151.253 123.507C151.497 122.976 151.899 122.534 152.405 122.242C152.912 121.949 153.496 121.822 154.078 121.876C154.66 121.931 155.211 122.165 155.654 122.546L158.495 124.178L158.181 124.736L155.341 123.082C154.966 122.815 154.528 122.649 154.07 122.598C153.612 122.547 153.149 122.614 152.724 122.792C152.354 123.069 152.063 123.437 151.879 123.86C151.694 124.283 151.623 124.747 151.673 125.206V128.491C151.725 129.059 151.627 129.631 151.387 130.15C151.148 130.668 150.776 131.113 150.308 131.441C149.927 131.657 149.494 131.765 149.056 131.754Z" fill="#42E8E0"/>
</g>
<g style="mix-blend-mode:lighten">
<path d="M143.755 134.816C143.04 134.793 142.344 134.577 141.742 134.19L128.121 126.346L128.434 125.787L142.077 133.654C142.444 133.932 142.878 134.105 143.335 134.156C143.791 134.207 144.253 134.134 144.672 133.945C145.049 133.674 145.348 133.307 145.536 132.883C145.725 132.459 145.797 131.992 145.746 131.531V128.29C145.636 127.716 145.709 127.122 145.952 126.591C146.196 126.06 146.598 125.618 147.105 125.326C147.611 125.034 148.195 124.906 148.777 124.961C149.359 125.015 149.91 125.249 150.353 125.63L153.194 127.284L152.881 127.821L150.04 126.189C149.689 125.883 149.252 125.695 148.789 125.649C148.326 125.603 147.861 125.703 147.457 125.934C147.053 126.165 146.732 126.516 146.537 126.939C146.343 127.361 146.285 127.833 146.372 128.29V131.575C146.432 132.147 146.334 132.724 146.09 133.244C145.845 133.764 145.463 134.207 144.985 134.526C144.612 134.739 144.184 134.84 143.755 134.816Z" fill="#42E8E0"/>
</g>
<g style="mix-blend-mode:lighten">
<path d="M138.454 137.856C137.742 137.831 137.049 137.623 136.441 137.252L122.82 129.385L123.133 128.849L136.777 136.694C137.128 136.991 137.562 137.172 138.021 137.213C138.479 137.254 138.939 137.153 139.338 136.923C139.737 136.693 140.055 136.346 140.249 135.929C140.443 135.512 140.503 135.045 140.422 134.593V131.307C140.321 130.733 140.4 130.142 140.647 129.614C140.895 129.086 141.299 128.646 141.804 128.356C142.31 128.065 142.893 127.937 143.474 127.99C144.055 128.042 144.606 128.272 145.052 128.648L147.893 130.279L147.58 130.816L144.717 129.184C144.365 128.875 143.925 128.685 143.459 128.639C142.993 128.593 142.525 128.695 142.119 128.929C141.714 129.164 141.393 129.519 141.201 129.946C141.009 130.373 140.955 130.849 141.048 131.307V134.593C141.103 135.164 141.004 135.739 140.76 136.258C140.516 136.777 140.137 137.221 139.662 137.543C139.292 137.747 138.877 137.855 138.454 137.856Z" fill="#42E8E0"/>
</g>
<g style="mix-blend-mode:lighten">
<path d="M133.153 140.896C132.441 140.871 131.748 140.663 131.14 140.292L117.519 132.425L117.832 131.888L131.453 139.756C131.827 140.027 132.264 140.196 132.723 140.247C133.182 140.298 133.646 140.229 134.07 140.046C134.443 139.773 134.737 139.405 134.922 138.981C135.107 138.557 135.175 138.092 135.121 137.632V134.347C135.021 133.773 135.099 133.181 135.346 132.653C135.594 132.125 135.998 131.686 136.503 131.396C137.009 131.105 137.592 130.977 138.173 131.029C138.754 131.082 139.305 131.311 139.751 131.687L142.592 133.319L142.279 133.878L139.438 132.224C139.065 131.953 138.627 131.783 138.168 131.732C137.709 131.682 137.245 131.751 136.821 131.933C136.448 132.207 136.154 132.574 135.969 132.998C135.785 133.422 135.716 133.888 135.77 134.347V137.632C135.827 138.204 135.729 138.78 135.485 139.299C135.24 139.819 134.86 140.262 134.383 140.583C134.012 140.804 133.585 140.912 133.153 140.896Z" fill="#42E8E0"/>
</g>
<g style="mix-blend-mode:lighten">
<path d="M127.852 143.935C127.14 143.91 126.447 143.702 125.839 143.332L112.218 135.464L112.531 134.906L126.152 142.773C126.51 143.1 126.964 143.302 127.446 143.348C127.928 143.395 128.413 143.284 128.826 143.032C129.24 142.78 129.561 142.4 129.74 141.951C129.919 141.501 129.947 141.005 129.82 140.538V137.252C129.765 136.682 129.865 136.106 130.109 135.587C130.353 135.068 130.732 134.624 131.207 134.302C131.726 134.063 132.298 133.964 132.868 134.015C133.437 134.066 133.982 134.265 134.45 134.593L137.291 136.247L136.978 136.783L134.137 135.152C133.767 134.874 133.329 134.701 132.868 134.65C132.408 134.599 131.943 134.672 131.52 134.861C131.147 135.129 130.853 135.493 130.668 135.913C130.483 136.334 130.414 136.796 130.469 137.252V140.538C130.526 141.112 130.427 141.691 130.183 142.214C129.939 142.737 129.559 143.185 129.082 143.51C128.717 143.758 128.292 143.904 127.852 143.935Z" fill="#42E8E0"/>
</g>
<g style="mix-blend-mode:lighten">
<path d="M122.551 146.997C121.84 146.972 121.146 146.764 120.538 146.393L106.917 138.526L107.23 137.99L120.851 145.857C121.226 146.127 121.665 146.293 122.124 146.34C122.583 146.387 123.047 146.313 123.468 146.125C123.843 145.859 124.139 145.495 124.324 145.074C124.509 144.653 124.577 144.19 124.52 143.734V140.448C124.419 139.874 124.497 139.283 124.745 138.755C124.992 138.227 125.396 137.788 125.902 137.497C126.408 137.206 126.991 137.079 127.572 137.131C128.153 137.183 128.704 137.413 129.15 137.789L131.99 139.42L131.677 139.979L128.836 138.325C128.463 138.054 128.025 137.885 127.566 137.834C127.108 137.783 126.643 137.852 126.219 138.035C125.846 138.308 125.552 138.676 125.368 139.1C125.183 139.524 125.114 139.989 125.168 140.448V143.734C125.223 144.305 125.123 144.88 124.88 145.399C124.636 145.918 124.256 146.362 123.781 146.684C123.405 146.892 122.981 147 122.551 146.997Z" fill="#42E8E0"/>
</g>
<g style="mix-blend-mode:lighten">
<path d="M117.25 150.059C116.537 150.026 115.844 149.81 115.237 149.433L101.616 141.566L101.929 141.03L115.551 148.897C115.902 149.206 116.342 149.396 116.808 149.442C117.274 149.488 117.743 149.386 118.148 149.152C118.553 148.917 118.874 148.561 119.066 148.135C119.258 147.708 119.312 147.232 119.219 146.774V143.488C119.118 142.914 119.196 142.323 119.444 141.795C119.691 141.267 120.095 140.827 120.601 140.537C121.107 140.246 121.69 140.118 122.271 140.171C122.852 140.223 123.403 140.452 123.849 140.828L126.689 142.482L126.376 143.019L123.513 141.387C123.163 141.082 122.725 140.893 122.262 140.847C121.799 140.801 121.334 140.901 120.93 141.132C120.526 141.363 120.205 141.714 120.011 142.137C119.816 142.559 119.758 143.031 119.845 143.488V146.774C119.905 147.343 119.81 147.917 119.569 148.436C119.329 148.956 118.953 149.401 118.481 149.724C118.112 149.952 117.684 150.069 117.25 150.059Z" fill="#42E8E0"/>
</g>
<g style="mix-blend-mode:lighten">
<path d="M111.95 153.099C111.237 153.077 110.543 152.869 109.936 152.495L96.3152 144.628L96.6283 144.069L110.25 151.936C110.6 152.242 111.037 152.431 111.5 152.477C111.963 152.522 112.429 152.423 112.833 152.192C113.236 151.96 113.558 151.609 113.752 151.187C113.947 150.765 114.005 150.292 113.918 149.836V146.55C113.816 145.978 113.893 145.389 114.138 144.862C114.382 144.334 114.783 143.895 115.285 143.603C115.787 143.31 116.367 143.179 116.947 143.226C117.526 143.274 118.077 143.498 118.525 143.868L121.388 145.522L121.075 146.058L118.212 144.427C117.86 144.118 117.421 143.927 116.955 143.882C116.489 143.836 116.02 143.938 115.615 144.172C115.21 144.407 114.889 144.762 114.696 145.189C114.504 145.615 114.451 146.092 114.544 146.55V149.836C114.601 150.404 114.505 150.978 114.265 151.497C114.025 152.016 113.65 152.461 113.18 152.786C112.803 152.994 112.38 153.102 111.95 153.099Z" fill="#42E8E0"/>
</g>
<g style="mix-blend-mode:lighten">
<path d="M234.429 95.4356C233.993 95.4356 233.562 95.3281 233.177 95.1227C232.71 94.7945 232.337 94.3489 232.098 93.8308C231.858 93.3128 231.76 92.7407 231.813 92.1725V88.887C231.862 88.4281 231.791 87.9643 231.607 87.5411C231.422 87.1178 231.131 86.7498 230.761 86.4732C230.339 86.2839 229.873 86.2111 229.413 86.2621C228.953 86.3132 228.515 86.4864 228.144 86.7638L225.304 88.3953L224.991 87.8589L227.831 86.205C228.298 85.8744 228.846 85.6751 229.416 85.628C229.987 85.5808 230.559 85.6875 231.074 85.9368C231.55 86.2566 231.929 86.7008 232.17 87.221C232.411 87.7413 232.504 88.3176 232.439 88.887V92.1725C232.352 92.6292 232.41 93.1016 232.604 93.5239C232.799 93.9462 233.12 94.2974 233.524 94.5286C233.928 94.7598 234.393 94.8594 234.856 94.8137C235.319 94.7679 235.756 94.5791 236.107 94.2734L316.403 47.8301L316.716 48.3665L236.42 94.7651C235.827 95.1587 235.14 95.39 234.429 95.4356Z" fill="#42E8E0"/>
</g>
<g style="mix-blend-mode:lighten">
<path d="M239.73 98.4751C239.292 98.4863 238.859 98.3781 238.478 98.1622C238.01 97.834 237.638 97.3884 237.399 96.8703C237.159 96.3523 237.061 95.7802 237.113 95.212V91.9265C237.206 91.468 237.153 90.9919 236.961 90.5653C236.769 90.1387 236.447 89.783 236.042 89.5485C235.637 89.314 235.169 89.2125 234.703 89.2582C234.237 89.3039 233.797 89.4945 233.445 89.8033L230.605 91.4572L230.292 90.8985L233.132 89.2669C233.575 88.8857 234.126 88.6517 234.708 88.5971C235.29 88.5426 235.874 88.6702 236.381 88.9624C236.887 89.2546 237.29 89.6969 237.533 90.228C237.777 90.7591 237.849 91.3526 237.74 91.9265V95.212C237.613 95.6792 237.641 96.175 237.82 96.6248C237.999 97.0746 238.32 97.4541 238.734 97.7061C239.147 97.9582 239.632 98.0692 240.114 98.0225C240.596 97.9757 241.05 97.7738 241.408 97.447L321.704 50.9143L322.017 51.4507L241.743 97.9834C241.125 98.3153 240.432 98.4845 239.73 98.4751Z" fill="#42E8E0"/>
</g>
<g style="mix-blend-mode:lighten">
<path d="M245.031 101.47C244.597 101.48 244.17 101.363 243.801 101.135C243.323 100.816 242.941 100.373 242.696 99.8527C242.452 99.3328 242.354 98.7559 242.414 98.1846V94.8991C242.501 94.4424 242.443 93.97 242.249 93.5477C242.054 93.1254 241.733 92.7742 241.329 92.543C240.925 92.3118 240.46 92.2122 239.997 92.2579C239.534 92.3037 239.097 92.4925 238.746 92.7982L235.906 94.4298L235.592 93.8934L238.433 92.2395C238.879 91.8635 239.43 91.6338 240.011 91.5816C240.592 91.5294 241.175 91.6573 241.681 91.9479C242.187 92.2384 242.591 92.6776 242.838 93.2056C243.085 93.7336 243.164 94.3249 243.063 94.8991V98.1846C242.976 98.6391 243.032 99.1094 243.224 99.5306C243.415 99.9519 243.733 100.303 244.133 100.536C244.533 100.769 244.996 100.873 245.457 100.832C245.919 100.791 246.356 100.608 246.709 100.308L327.005 53.7751L327.318 54.3339L247.044 100.844C246.442 101.231 245.746 101.447 245.031 101.47Z" fill="#42E8E0"/>
</g>
<g style="mix-blend-mode:lighten">
<path d="M250.332 104.577C249.902 104.58 249.478 104.472 249.102 104.264C248.627 103.942 248.248 103.498 248.004 102.979C247.76 102.46 247.66 101.885 247.715 101.314V98.0283C247.842 97.5611 247.814 97.0653 247.635 96.6155C247.455 96.1657 247.135 95.7862 246.721 95.5341C246.307 95.2821 245.823 95.1711 245.341 95.2178C244.859 95.2646 244.405 95.4665 244.047 95.7933L241.206 97.4472L240.893 97.0002L243.734 95.3687C244.18 94.9927 244.731 94.7629 245.312 94.7108C245.893 94.6586 246.476 94.7865 246.982 95.077C247.487 95.3676 247.891 95.8067 248.139 96.3347C248.386 96.8628 248.465 97.4541 248.364 98.0283V101.314C248.307 101.77 248.374 102.233 248.559 102.654C248.744 103.075 249.04 103.438 249.415 103.705C249.837 103.894 250.303 103.967 250.763 103.916C251.223 103.865 251.661 103.692 252.032 103.415L332.306 56.9043L332.619 57.4407L252.345 103.973C251.737 104.344 251.044 104.552 250.332 104.577Z" fill="#42E8E0"/>
</g>
<g style="mix-blend-mode:lighten">
<path d="M255.633 107.616C255.201 107.633 254.774 107.524 254.403 107.303C253.928 106.981 253.549 106.537 253.305 106.018C253.061 105.499 252.961 104.924 253.016 104.353V101.068C253.07 100.608 253.001 100.143 252.817 99.7189C252.632 99.2949 252.338 98.9274 251.965 98.6539C251.54 98.4757 251.077 98.4088 250.619 98.4597C250.161 98.5105 249.723 98.6774 249.348 98.9444L246.507 100.598L246.194 100.062L249.035 98.408C249.481 98.032 250.032 97.8023 250.613 97.7501C251.194 97.6979 251.777 97.8258 252.283 98.1164C252.788 98.4069 253.192 98.8461 253.44 99.3741C253.687 99.9021 253.765 100.493 253.665 101.068V104.353C253.611 104.812 253.68 105.278 253.864 105.702C254.049 106.126 254.343 106.493 254.716 106.767C255.14 106.949 255.604 107.019 256.063 106.968C256.522 106.917 256.959 106.747 257.333 106.476L337.607 59.9436L337.92 60.48L257.646 107.013C257.038 107.384 256.345 107.592 255.633 107.616Z" fill="#42E8E0"/>
</g>
<g style="mix-blend-mode:lighten">
<path d="M261.023 110.678C260.593 110.681 260.17 110.573 259.793 110.365C259.317 110.04 258.936 109.592 258.692 109.069C258.449 108.546 258.35 107.967 258.406 107.393V104.107C258.461 103.651 258.392 103.189 258.207 102.768C258.023 102.348 257.728 101.984 257.355 101.716C256.933 101.527 256.467 101.454 256.007 101.505C255.547 101.556 255.109 101.729 254.738 102.006L251.898 103.638L251.585 103.102L254.313 101.47C254.781 101.142 255.327 100.943 255.896 100.892C256.465 100.841 257.038 100.94 257.557 101.179C258.031 101.502 258.411 101.946 258.655 102.465C258.899 102.984 258.998 103.559 258.943 104.13V107.415C258.887 107.875 258.955 108.341 259.139 108.765C259.324 109.19 259.62 109.557 259.994 109.829C260.418 110.011 260.883 110.081 261.341 110.03C261.8 109.979 262.238 109.809 262.611 109.538L342.885 63.0056L343.198 63.5644L262.925 110.097C262.347 110.442 261.695 110.642 261.023 110.678Z" fill="#42E8E0"/>
</g>
<g style="mix-blend-mode:lighten">
<path d="M266.235 113.718C265.803 113.735 265.376 113.626 265.005 113.405C264.534 113.08 264.159 112.635 263.919 112.116C263.679 111.597 263.583 111.024 263.64 110.455V107.169C263.767 106.702 263.739 106.206 263.56 105.757C263.38 105.307 263.06 104.927 262.646 104.675C262.233 104.423 261.748 104.312 261.266 104.359C260.784 104.406 260.33 104.608 259.972 104.934L257.109 106.588L256.796 106.03L259.637 104.398C260.082 104.022 260.633 103.792 261.214 103.74C261.796 103.688 262.379 103.816 262.884 104.106C263.39 104.397 263.794 104.836 264.042 105.364C264.289 105.892 264.367 106.483 264.267 107.058V110.41C264.217 110.869 264.288 111.333 264.472 111.756C264.657 112.179 264.948 112.547 265.318 112.824C265.743 113.002 266.206 113.069 266.664 113.018C267.122 112.967 267.559 112.8 267.935 112.533L348.253 66.0454L348.567 66.5818L268.293 113.114C267.672 113.493 266.962 113.701 266.235 113.718Z" fill="#42E8E0"/>
</g>
<g style="mix-blend-mode:lighten">
<path d="M271.536 116.78C271.102 116.79 270.674 116.673 270.306 116.445C269.83 116.125 269.451 115.681 269.21 115.16C268.969 114.64 268.876 114.064 268.941 113.494V110.209C269.028 109.752 268.97 109.28 268.776 108.858C268.581 108.435 268.26 108.084 267.856 107.853C267.452 107.622 266.987 107.522 266.524 107.568C266.061 107.614 265.624 107.802 265.273 108.108L262.41 109.74L262.097 109.203L264.96 107.549C265.425 107.215 265.971 107.012 266.542 106.961C267.112 106.91 267.686 107.013 268.203 107.259C268.67 107.587 269.043 108.033 269.282 108.551C269.522 109.069 269.62 109.641 269.567 110.209V113.494C269.44 113.962 269.469 114.458 269.648 114.907C269.827 115.357 270.148 115.737 270.561 115.989C270.975 116.241 271.46 116.352 271.942 116.305C272.424 116.258 272.878 116.056 273.236 115.729L353.51 69.1968L353.823 69.7555L273.549 116.154C272.943 116.534 272.25 116.75 271.536 116.78Z" fill="#42E8E0"/>
</g>
<g style="mix-blend-mode:lighten">
<path d="M276.837 119.819C276.406 119.822 275.983 119.714 275.606 119.506C275.136 119.181 274.761 118.736 274.521 118.217C274.281 117.699 274.185 117.125 274.242 116.556V113.271C274.294 112.809 274.221 112.343 274.033 111.918C273.844 111.494 273.546 111.128 273.168 110.857C272.75 110.667 272.288 110.594 271.831 110.645C271.374 110.696 270.94 110.87 270.574 111.147L267.711 112.779L267.398 112.243L270.261 110.589C270.709 110.218 271.26 109.994 271.839 109.947C272.419 109.899 272.999 110.031 273.501 110.323C274.003 110.616 274.404 111.055 274.648 111.582C274.893 112.109 274.97 112.699 274.868 113.271V116.556C274.781 117.013 274.839 117.485 275.034 117.908C275.228 118.33 275.55 118.681 275.953 118.912C276.357 119.143 276.823 119.243 277.286 119.197C277.749 119.152 278.186 118.963 278.536 118.657L358.81 72.1467L359.146 72.6831L278.917 119.216C278.291 119.601 277.572 119.81 276.837 119.819Z" fill="#42E8E0"/>
</g>
<g style="mix-blend-mode:lighten">
<path d="M282.137 122.859C281.706 122.875 281.279 122.767 280.907 122.546C280.44 122.218 280.068 121.772 279.828 121.254C279.589 120.736 279.49 120.164 279.543 119.596V116.31C279.636 115.852 279.583 115.376 279.391 114.949C279.198 114.522 278.877 114.167 278.472 113.932C278.067 113.698 277.598 113.596 277.132 113.642C276.666 113.688 276.227 113.878 275.875 114.187L273.012 115.841L272.699 115.282L275.562 113.651C276.027 113.316 276.573 113.113 277.143 113.062C277.714 113.011 278.288 113.114 278.805 113.36C279.272 113.688 279.644 114.134 279.884 114.652C280.123 115.17 280.222 115.742 280.169 116.31V119.596C280.076 120.054 280.129 120.53 280.322 120.957C280.514 121.384 280.835 121.739 281.24 121.974C281.645 122.208 282.114 122.31 282.58 122.264C283.046 122.218 283.486 122.028 283.837 121.719L364.111 75.1863L364.447 75.7227L284.15 122.255C283.544 122.629 282.85 122.837 282.137 122.859Z" fill="#42E8E0"/>
</g>
<g style="mix-blend-mode:lighten">
<path d="M287.438 125.921C287.005 125.924 286.58 125.808 286.208 125.586C285.738 125.261 285.363 124.816 285.123 124.297C284.883 123.778 284.786 123.204 284.844 122.635V119.35C284.931 118.893 284.873 118.421 284.678 117.999C284.484 117.576 284.162 117.225 283.759 116.994C283.355 116.763 282.889 116.663 282.426 116.709C281.963 116.755 281.526 116.943 281.176 117.249L278.313 118.881L278 118.344L280.863 116.69C281.328 116.356 281.874 116.153 282.444 116.102C283.015 116.051 283.589 116.154 284.106 116.4C284.573 116.728 284.945 117.174 285.185 117.692C285.424 118.21 285.523 118.782 285.47 119.35V122.635C285.377 123.094 285.43 123.57 285.623 123.997C285.815 124.423 286.136 124.779 286.541 125.013C286.946 125.248 287.415 125.35 287.881 125.304C288.347 125.258 288.786 125.067 289.138 124.759L369.412 78.2261L369.748 78.7848L289.451 125.295C288.851 125.685 288.154 125.901 287.438 125.921Z" fill="#42E8E0"/>
</g>
<g style="mix-blend-mode:lighten">
<path d="M292.739 128.96C292.309 128.961 291.887 128.853 291.509 128.648C291.042 128.319 290.67 127.874 290.43 127.356C290.191 126.838 290.092 126.266 290.145 125.697V122.412C290.272 121.945 290.244 121.449 290.064 120.999C289.885 120.549 289.564 120.17 289.151 119.918C288.737 119.666 288.253 119.555 287.77 119.601C287.288 119.648 286.834 119.85 286.477 120.177L283.636 121.831L283.301 121.272L286.163 119.641C286.626 119.302 287.173 119.096 287.745 119.045C288.316 118.993 288.891 119.099 289.407 119.35C289.877 119.675 290.252 120.12 290.492 120.639C290.732 121.158 290.828 121.731 290.771 122.3V125.586C290.684 126.042 290.742 126.515 290.937 126.937C291.131 127.359 291.453 127.711 291.856 127.942C292.26 128.173 292.726 128.273 293.188 128.227C293.651 128.181 294.089 127.992 294.439 127.687L374.735 81.355L375.049 81.8914L294.752 128.29C294.152 128.687 293.458 128.919 292.739 128.96Z" fill="#42E8E0"/>
</g>
<g style="mix-blend-mode:lighten">
<path d="M298.063 132.023C297.622 132.028 297.189 131.912 296.81 131.687C296.343 131.359 295.971 130.914 295.731 130.395C295.491 129.877 295.393 129.305 295.446 128.737V125.452C295.495 124.993 295.424 124.529 295.24 124.106C295.056 123.682 294.764 123.314 294.394 123.038C293.97 122.86 293.506 122.793 293.048 122.844C292.59 122.895 292.153 123.061 291.778 123.328L288.937 124.982L288.624 124.446L291.464 122.792C291.929 122.458 292.476 122.255 293.046 122.203C293.617 122.152 294.19 122.255 294.708 122.501C295.175 122.83 295.547 123.275 295.787 123.793C296.026 124.311 296.125 124.883 296.072 125.452V128.737C295.945 129.204 295.973 129.7 296.152 130.15C296.332 130.6 296.652 130.979 297.066 131.231C297.48 131.483 297.964 131.594 298.446 131.548C298.929 131.501 299.383 131.299 299.74 130.972L380.036 84.4395L380.35 84.9758L300.053 131.509C299.444 131.845 298.759 132.022 298.063 132.023Z" fill="#42E8E0"/>
</g>
<g style="mix-blend-mode:lighten">
<path d="M303.363 134.995C302.927 134.995 302.496 134.888 302.111 134.682C301.64 134.352 301.266 133.903 301.026 133.38C300.786 132.858 300.69 132.281 300.747 131.71V128.514C300.798 128.054 300.728 127.59 300.544 127.166C300.359 126.743 300.067 126.375 299.695 126.1C299.273 125.91 298.807 125.838 298.347 125.889C297.887 125.94 297.449 126.113 297.078 126.39L294.238 128.022L293.925 127.485L296.765 125.831C297.21 125.447 297.763 125.212 298.348 125.157C298.933 125.103 299.52 125.232 300.028 125.528C300.536 125.823 300.938 126.27 301.179 126.805C301.42 127.341 301.488 127.938 301.373 128.514V131.777C301.319 132.238 301.39 132.706 301.579 133.13C301.768 133.555 302.067 133.921 302.446 134.19C302.865 134.38 303.327 134.453 303.784 134.402C304.24 134.351 304.675 134.177 305.041 133.9L385.337 87.3672L385.65 87.9259L305.354 134.459C304.748 134.805 304.062 134.99 303.363 134.995Z" fill="#42E8E0"/>
</g>
<g style="mix-blend-mode:lighten">
<path d="M308.664 138.102C308.226 138.113 307.793 138.005 307.412 137.789C306.945 137.461 306.572 137.015 306.333 136.497C306.093 135.979 305.995 135.407 306.047 134.839V131.553C306.174 131.086 306.146 130.59 305.967 130.14C305.788 129.691 305.467 129.311 305.053 129.059C304.64 128.807 304.155 128.696 303.673 128.743C303.191 128.789 302.737 128.991 302.379 129.318L299.539 130.972L299.226 130.413L302.066 128.782C302.531 128.448 303.077 128.244 303.648 128.193C304.218 128.142 304.792 128.245 305.309 128.491C305.782 128.814 306.158 129.259 306.398 129.779C306.638 130.298 306.733 130.873 306.674 131.441V134.727C306.621 135.183 306.691 135.644 306.876 136.065C307.061 136.485 307.354 136.848 307.725 137.118C308.146 137.306 308.61 137.38 309.069 137.333C309.528 137.286 309.967 137.12 310.342 136.85L390.75 90.4292L391.063 90.9656L310.677 137.498C310.069 137.869 309.376 138.077 308.664 138.102Z" fill="#42E8E0"/>
</g>
<g style="mix-blend-mode:lighten">
<path d="M313.965 141.163C313.531 141.173 313.104 141.057 312.735 140.828C312.257 140.509 311.875 140.066 311.63 139.546C311.386 139.026 311.288 138.449 311.348 137.878V134.593C311.435 134.136 311.377 133.663 311.183 133.241C310.988 132.819 310.667 132.468 310.263 132.236C309.86 132.005 309.394 131.906 308.931 131.951C308.468 131.997 308.031 132.186 307.68 132.492L304.84 134.123L304.526 133.587L307.367 131.933C307.81 131.552 308.361 131.318 308.943 131.263C309.525 131.209 310.109 131.336 310.616 131.628C311.122 131.921 311.525 132.363 311.768 132.894C312.011 133.425 312.084 134.019 311.975 134.593V137.878C311.848 138.345 311.876 138.841 312.055 139.291C312.234 139.741 312.555 140.12 312.969 140.372C313.382 140.624 313.867 140.735 314.349 140.688C314.831 140.642 315.285 140.44 315.643 140.113L395.939 93.5803L396.252 94.1391L315.978 140.649C315.365 140.997 314.67 141.174 313.965 141.163Z" fill="#42E8E0"/>
</g>
<g style="mix-blend-mode:lighten">
<path d="M319.177 144.203C318.747 144.206 318.323 144.098 317.947 143.89C317.472 143.568 317.092 143.124 316.848 142.605C316.604 142.086 316.505 141.511 316.56 140.94V137.655C316.609 137.196 316.538 136.732 316.354 136.309C316.17 135.885 315.878 135.517 315.508 135.241C315.086 135.052 314.621 134.979 314.16 135.03C313.7 135.081 313.262 135.254 312.892 135.531L310.23 137.23L309.917 136.694L312.757 135.062C313.203 134.686 313.754 134.456 314.335 134.404C314.916 134.352 315.499 134.48 316.005 134.77C316.511 135.061 316.915 135.5 317.162 136.028C317.41 136.556 317.488 137.147 317.387 137.722V141.007C317.306 141.46 317.367 141.927 317.561 142.344C317.755 142.761 318.073 143.108 318.472 143.338C318.87 143.567 319.33 143.669 319.789 143.627C320.247 143.586 320.682 143.405 321.033 143.108L401.329 96.5977L401.643 97.134L321.369 143.667C320.702 144.045 319.943 144.231 319.177 144.203Z" fill="#42E8E0"/>
</g>
<g style="mix-blend-mode:lighten">
<path d="M324.567 147.243C324.135 147.259 323.708 147.151 323.337 146.93C322.862 146.608 322.483 146.164 322.239 145.645C321.995 145.126 321.895 144.551 321.95 143.98V140.694C322.004 140.235 321.935 139.77 321.751 139.346C321.566 138.922 321.272 138.554 320.899 138.28C320.475 138.098 320.011 138.029 319.552 138.08C319.093 138.131 318.656 138.3 318.282 138.571L315.441 140.225L315.128 139.666L317.969 138.035C318.415 137.659 318.966 137.429 319.547 137.377C320.128 137.325 320.711 137.452 321.217 137.743C321.722 138.034 322.126 138.473 322.374 139.001C322.621 139.529 322.7 140.12 322.599 140.694V143.935C322.545 144.394 322.614 144.86 322.798 145.284C322.983 145.708 323.277 146.075 323.65 146.349C324.074 146.531 324.538 146.601 324.997 146.55C325.456 146.499 325.893 146.329 326.267 146.058L406.541 99.5256L406.854 100.062L326.58 146.595C325.977 146.981 325.283 147.205 324.567 147.243Z" fill="#42E8E0"/>
</g>
<g style="mix-blend-mode:lighten">
<path d="M329.868 150.305C329.434 150.315 329.007 150.198 328.638 149.969C328.16 149.651 327.777 149.207 327.533 148.687C327.289 148.167 327.191 147.591 327.251 147.019V143.734C327.306 143.278 327.237 142.815 327.052 142.395C326.867 141.974 326.573 141.611 326.2 141.342C325.78 141.175 325.325 141.12 324.877 141.183C324.43 141.245 324.007 141.424 323.65 141.7L320.81 143.331L320.496 142.795L323.337 141.141C323.805 140.813 324.351 140.614 324.92 140.563C325.489 140.512 326.061 140.611 326.58 140.851C327.055 141.173 327.434 141.617 327.678 142.136C327.922 142.655 328.022 143.23 327.967 143.801V147.086C327.84 147.554 327.868 148.049 328.047 148.499C328.227 148.949 328.547 149.328 328.961 149.58C329.375 149.832 329.859 149.944 330.341 149.897C330.823 149.85 331.277 149.648 331.635 149.321L411.909 102.789L412.222 103.347L331.948 149.858C331.309 150.194 330.589 150.348 329.868 150.305Z" fill="#42E8E0"/>
</g>
<g style="mix-blend-mode:lighten">
<path d="M335.169 153.344C334.739 153.347 334.315 153.24 333.939 153.032C333.464 152.709 333.085 152.265 332.841 151.746C332.597 151.227 332.497 150.652 332.552 150.081V146.796C332.606 146.337 332.537 145.871 332.352 145.447C332.168 145.023 331.874 144.656 331.501 144.382C331.077 144.2 330.613 144.13 330.154 144.181C329.695 144.232 329.257 144.402 328.884 144.673L326.043 146.327L325.73 145.768L328.571 144.136C329.017 143.76 329.567 143.531 330.149 143.478C330.73 143.426 331.313 143.554 331.818 143.845C332.324 144.135 332.728 144.574 332.976 145.102C333.223 145.63 333.301 146.222 333.201 146.796V150.081C333.144 150.538 333.211 151.001 333.396 151.422C333.581 151.843 333.877 152.206 334.252 152.473C334.674 152.662 335.14 152.735 335.6 152.684C336.06 152.633 336.498 152.46 336.869 152.182L417.143 105.672L417.456 106.208L337.182 152.741C336.574 153.112 335.881 153.32 335.169 153.344Z" fill="#42E8E0"/>
</g>
<path opacity="0.5" d="M223.604 89.021L304.169 135.509V147.243L223.604 100.755V89.021Z" fill="url(#paint5_linear)"/>
<path opacity="0.5" d="M223.604 100.755L143.017 147.243V135.509L223.604 89.021V100.755Z" fill="url(#paint6_linear)"/>
<path opacity="0.5" d="M223.604 181.997V193.731L304.169 147.243V135.509L223.604 181.997Z" fill="url(#paint7_linear)"/>
<path opacity="0.5" d="M143.017 135.509V147.243L223.604 193.731V181.997L143.017 135.509Z" fill="url(#paint8_linear)"/>
<path opacity="0.8" d="M223.604 180.723L144.135 134.883L143.017 135.509L223.604 181.997L304.169 135.509L303.073 134.883L223.604 180.723Z" fill="#42E8E0"/>
<g style="mix-blend-mode:lighten">
<path d="M249.84 234.072L236.196 226.205C234.947 225.388 233.907 224.288 233.161 222.995C232.415 221.703 231.984 220.253 231.902 218.763V215.455C231.818 214.074 231.415 212.732 230.724 211.534C230.033 210.336 229.074 209.314 227.921 208.549L225.08 206.917L225.393 206.358L228.234 208.012C229.486 208.827 230.527 209.926 231.273 211.219C232.02 212.513 232.45 213.964 232.528 215.455V218.74C232.603 220.12 233.003 221.462 233.695 222.658C234.386 223.854 235.351 224.87 236.509 225.624L250.153 233.491L249.84 234.072Z" fill="#42E8E0"/>
</g>
<g style="mix-blend-mode:lighten">
<path d="M255.051 231.1L241.408 223.233C240.156 222.418 239.114 221.319 238.368 220.026C237.622 218.732 237.192 217.281 237.113 215.79V212.505C237.038 211.125 236.639 209.783 235.947 208.587C235.255 207.391 234.291 206.375 233.132 205.621L230.292 203.967L230.605 203.431L233.445 205.062C234.695 205.88 235.734 206.979 236.48 208.272C237.226 209.565 237.658 211.015 237.74 212.505V215.79C237.816 217.175 238.218 218.522 238.913 219.723C239.609 220.923 240.579 221.942 241.743 222.696L255.365 230.564L255.051 231.1Z" fill="#42E8E0"/>
</g>
<g style="mix-blend-mode:lighten">
<path d="M260.352 227.949L246.709 220.104C245.46 219.285 244.422 218.185 243.676 216.893C242.93 215.6 242.498 214.151 242.414 212.661V209.376C242.33 207.995 241.927 206.653 241.236 205.455C240.546 204.256 239.586 203.235 238.433 202.47L235.592 200.838L235.906 200.279L238.657 202.045C239.911 202.859 240.956 203.957 241.706 205.25C242.457 206.543 242.891 207.995 242.973 209.487V212.773C243.047 214.153 243.446 215.496 244.138 216.692C244.83 217.888 245.795 218.904 246.955 219.657L260.576 227.524L260.352 227.949Z" fill="#42E8E0"/>
</g>
<g style="mix-blend-mode:lighten">
<path d="M265.653 224.909L252.077 217.042C250.824 216.226 249.781 215.127 249.031 213.834C248.282 212.541 247.846 211.091 247.76 209.599V206.314C247.676 204.933 247.273 203.591 246.582 202.393C245.891 201.195 244.932 200.173 243.779 199.408L240.938 197.776L241.251 197.24L244.092 198.871C245.344 199.688 246.387 200.786 247.137 202.079C247.887 203.372 248.322 204.822 248.409 206.314V209.599C248.48 210.98 248.878 212.323 249.57 213.52C250.262 214.716 251.229 215.732 252.39 216.483L266.011 224.35L265.653 224.909Z" fill="#42E8E0"/>
</g>
<g style="mix-blend-mode:lighten">
<path d="M270.954 221.847L257.333 213.98C256.078 213.166 255.033 212.068 254.283 210.775C253.533 209.482 253.099 208.03 253.016 206.537V203.252C252.929 201.875 252.524 200.538 251.833 199.343C251.143 198.149 250.185 197.131 249.035 196.368L246.194 194.714L246.507 194.178L249.348 195.809C250.599 196.627 251.641 197.726 252.391 199.018C253.14 200.311 253.577 201.761 253.665 203.252V206.515C253.735 207.899 254.132 209.246 254.824 210.447C255.516 211.647 256.483 212.667 257.646 213.421L271.267 221.288L270.954 221.847Z" fill="#42E8E0"/>
</g>
<g style="mix-blend-mode:lighten">
<path d="M276.255 218.808L262.634 210.985C261.383 210.168 260.34 209.068 259.591 207.776C258.841 206.484 258.405 205.034 258.317 203.543V200.257C258.247 198.873 257.85 197.526 257.158 196.325C256.466 195.125 255.499 194.106 254.336 193.351L251.495 191.719L251.808 191.161L254.649 192.815C255.904 193.628 256.949 194.726 257.699 196.02C258.449 197.313 258.883 198.765 258.966 200.257V203.543C259.041 204.922 259.44 206.264 260.132 207.46C260.824 208.656 261.788 209.673 262.947 210.426L276.568 218.294L276.255 218.808Z" fill="#42E8E0"/>
</g>
<g style="mix-blend-mode:lighten">
<path d="M281.556 215.745L267.935 207.878C266.683 207.063 265.641 205.965 264.895 204.671C264.149 203.378 263.719 201.927 263.64 200.436V197.15C263.564 195.768 263.162 194.424 262.466 193.228C261.77 192.031 260.801 191.016 259.637 190.266L256.796 188.613L257.109 188.076L259.972 189.708C261.222 190.525 262.261 191.625 263.007 192.917C263.753 194.21 264.185 195.66 264.267 197.15V200.436C264.35 201.816 264.753 203.158 265.444 204.357C266.135 205.555 267.095 206.577 268.248 207.342L281.869 215.209L281.556 215.745Z" fill="#42E8E0"/>
</g>
<g style="mix-blend-mode:lighten">
<path d="M286.857 212.683L273.236 204.816C271.987 204.004 270.947 202.908 270.201 201.619C269.455 200.33 269.023 198.883 268.941 197.396V194.111C268.857 192.73 268.454 191.388 267.763 190.19C267.072 188.991 266.113 187.969 264.96 187.204L262.097 185.573L262.41 185.014L265.273 186.668C266.525 187.483 267.566 188.582 268.313 189.875C269.059 191.168 269.489 192.62 269.567 194.111V197.396C269.655 198.773 270.059 200.11 270.75 201.305C271.441 202.499 272.399 203.517 273.549 204.28L287.17 212.147L286.857 212.683Z" fill="#42E8E0"/>
</g>
<g style="mix-blend-mode:lighten">
<path d="M292.158 209.644L278.536 201.777C277.287 200.959 276.247 199.86 275.501 198.567C274.755 197.274 274.324 195.824 274.242 194.334V191.049C274.158 189.668 273.755 188.326 273.064 187.128C272.373 185.929 271.414 184.908 270.261 184.143L267.398 182.511L267.733 181.93L270.596 183.584C271.846 184.401 272.885 185.501 273.631 186.794C274.377 188.086 274.809 189.536 274.891 191.026V194.312C274.966 195.691 275.365 197.034 276.057 198.23C276.749 199.426 277.713 200.442 278.872 201.196L292.516 209.063L292.158 209.644Z" fill="#42E8E0"/>
</g>
<g style="mix-blend-mode:lighten">
<path d="M297.481 206.515L283.837 198.648C282.585 197.833 281.544 196.734 280.798 195.441C280.051 194.147 279.621 192.696 279.543 191.205V187.92C279.468 186.54 279.068 185.198 278.376 184.002C277.685 182.806 276.72 181.79 275.562 181.036L272.699 179.382L273.012 178.846L275.875 180.477C277.123 181.296 278.162 182.396 278.907 183.688C279.653 184.981 280.085 186.43 280.169 187.92V191.205C280.253 192.586 280.656 193.928 281.347 195.126C282.038 196.325 282.997 197.346 284.15 198.111L297.794 205.979L297.481 206.515Z" fill="#42E8E0"/>
</g>
<g style="mix-blend-mode:lighten">
<path d="M302.782 203.542L289.138 195.675C287.89 194.857 286.851 193.757 286.106 192.464C285.36 191.172 284.928 189.722 284.844 188.233V184.947C284.76 183.567 284.357 182.225 283.666 181.026C282.975 179.828 282.016 178.806 280.863 178.041L278 176.41L278.313 175.851L281.153 177.46C282.405 178.275 283.447 179.374 284.193 180.667C284.939 181.96 285.369 183.412 285.448 184.903V188.188C285.535 189.565 285.94 190.902 286.63 192.097C287.321 193.291 288.279 194.309 289.429 195.072L303.073 202.939L302.782 203.542Z" fill="#42E8E0"/>
</g>
<g style="mix-blend-mode:lighten">
<path d="M307.993 200.481L294.35 192.613C293.1 191.796 292.061 190.696 291.315 189.404C290.569 188.111 290.137 186.661 290.055 185.171V181.93C289.98 180.551 289.58 179.208 288.889 178.012C288.197 176.816 287.233 175.8 286.074 175.046L283.211 173.392L283.547 172.856L286.387 174.487C287.653 175.295 288.71 176.39 289.472 177.684C290.234 178.977 290.679 180.432 290.771 181.93V185.216C290.855 186.596 291.258 187.938 291.949 189.136C292.64 190.335 293.599 191.357 294.752 192.122L308.396 199.967L307.993 200.481Z" fill="#42E8E0"/>
</g>
<g style="mix-blend-mode:lighten">
<path d="M313.384 197.419L299.74 189.551C298.488 188.737 297.447 187.638 296.7 186.344C295.954 185.051 295.524 183.6 295.446 182.109V178.823C295.359 177.447 294.954 176.109 294.263 174.915C293.572 173.721 292.614 172.702 291.464 171.94L288.624 170.286L288.937 169.749L291.778 171.403C293.027 172.216 294.066 173.311 294.812 174.6C295.558 175.89 295.99 177.336 296.072 178.823V182.109C296.156 183.489 296.559 184.831 297.25 186.03C297.941 187.228 298.9 188.25 300.053 189.015L313.697 196.882L313.384 197.419Z" fill="#42E8E0"/>
</g>
<g style="mix-blend-mode:lighten">
<path d="M318.685 194.379L305.041 186.512C303.791 185.694 302.752 184.595 302.006 183.302C301.26 182.009 300.829 180.559 300.747 179.069V175.784C300.663 174.403 300.26 173.061 299.569 171.863C298.878 170.664 297.918 169.643 296.765 168.878L293.925 167.246L294.238 166.687L297.078 168.341C298.33 169.156 299.372 170.255 300.118 171.548C300.864 172.842 301.294 174.293 301.373 175.784V179.069C301.448 180.449 301.848 181.791 302.539 182.987C303.231 184.183 304.195 185.199 305.354 185.953L318.998 193.82L318.685 194.379Z" fill="#42E8E0"/>
</g>
<g style="mix-blend-mode:lighten">
<path d="M323.985 191.317L310.342 183.45C309.09 182.635 308.048 181.536 307.302 180.243C306.556 178.949 306.126 177.498 306.047 176.007V172.722C305.972 171.342 305.573 170 304.881 168.804C304.189 167.608 303.225 166.592 302.066 165.838L299.226 164.184L299.539 163.648L302.379 165.279C303.627 166.098 304.666 167.198 305.412 168.49C306.158 169.783 306.59 171.232 306.674 172.722V176.007C306.758 177.388 307.161 178.73 307.852 179.928C308.542 181.127 309.502 182.148 310.655 182.913L324.299 190.781L323.985 191.317Z" fill="#42E8E0"/>
</g>
<g style="mix-blend-mode:lighten">
<path d="M329.286 188.255L315.643 180.41C314.397 179.593 313.361 178.497 312.615 177.209C311.869 175.92 311.436 174.476 311.348 172.99V169.704C311.264 168.324 310.861 166.982 310.17 165.783C309.48 164.585 308.52 163.563 307.367 162.798L304.526 161.167L304.84 160.608L307.68 162.262C308.932 163.077 309.974 164.175 310.72 165.469C311.466 166.762 311.896 168.213 311.975 169.704V172.99C312.052 174.371 312.455 175.715 313.151 176.911C313.847 178.107 314.815 179.122 315.978 179.874L329.6 187.741L329.286 188.255Z" fill="#42E8E0"/>
</g>
<g style="mix-blend-mode:lighten">
<path d="M334.587 185.215L320.944 177.348C319.694 176.531 318.655 175.431 317.909 174.139C317.163 172.846 316.731 171.396 316.649 169.906V166.62C316.565 165.24 316.162 163.898 315.471 162.699C314.781 161.501 313.821 160.479 312.668 159.714L309.827 158.083L310.14 157.546L312.981 159.178C314.233 159.994 315.276 161.093 316.026 162.385C316.776 163.678 317.212 165.129 317.298 166.62V169.906C317.369 171.286 317.768 172.63 318.46 173.826C319.152 175.023 320.118 176.038 321.279 176.789L334.9 184.657L334.587 185.215Z" fill="#42E8E0"/>
</g>
<g style="mix-blend-mode:lighten">
<path d="M339.888 182.153L326.267 174.286C325.012 173.473 323.967 172.374 323.217 171.081C322.467 169.788 322.033 168.336 321.95 166.844V163.558C321.863 162.182 321.458 160.844 320.767 159.65C320.077 158.456 319.119 157.437 317.969 156.674L315.128 155.021L315.441 154.484L318.282 156.116C319.533 156.933 320.575 158.032 321.325 159.325C322.074 160.617 322.511 162.067 322.599 163.558V166.844C322.669 168.227 323.066 169.575 323.758 170.775C324.45 171.976 325.417 172.995 326.58 173.75L340.201 181.617L339.888 182.153Z" fill="#42E8E0"/>
</g>
<g style="mix-blend-mode:lighten">
<path d="M345.189 179.114L331.568 171.247C330.315 170.43 329.272 169.332 328.523 168.039C327.773 166.746 327.337 165.296 327.251 163.804V160.519C327.181 159.135 326.784 157.787 326.092 156.587C325.4 155.386 324.433 154.367 323.27 153.612L320.429 151.981L320.742 151.422L323.583 153.076C324.838 153.89 325.883 154.988 326.633 156.281C327.383 157.574 327.817 159.026 327.9 160.519V163.804C327.975 165.183 328.374 166.526 329.066 167.722C329.758 168.918 330.722 169.934 331.881 170.688L345.502 178.555L345.189 179.114Z" fill="#42E8E0"/>
</g>
<g style="mix-blend-mode:lighten">
<path d="M350.49 176.052L336.869 168.185C335.614 167.371 334.569 166.273 333.819 164.98C333.069 163.687 332.635 162.235 332.552 160.742V157.457C332.47 156.088 332.067 154.758 331.375 153.574C330.684 152.389 329.723 151.384 328.571 150.64L325.73 148.986L326.043 148.45L328.884 150.081C330.136 150.898 331.179 151.996 331.929 153.289C332.679 154.582 333.114 156.032 333.201 157.524V160.809C333.284 162.19 333.688 163.532 334.378 164.73C335.069 165.929 336.029 166.95 337.182 167.715L350.803 175.583L350.49 176.052Z" fill="#42E8E0"/>
</g>
<g style="mix-blend-mode:lighten">
<path d="M136.307 269.363L135.994 268.804L210.408 225.646C211.566 224.893 212.531 223.877 213.222 222.68C213.914 221.484 214.314 220.142 214.389 218.763V215.455C214.467 213.964 214.897 212.513 215.644 211.219C216.39 209.926 217.431 208.827 218.683 208.012L221.524 206.358L221.837 206.917L218.996 208.549C217.843 209.314 216.884 210.336 216.193 211.534C215.502 212.732 215.099 214.074 215.015 215.455V218.74C214.933 220.23 214.502 221.68 213.756 222.973C213.01 224.266 211.97 225.365 210.721 226.183L136.307 269.363Z" fill="#42E8E0"/>
</g>
<g style="mix-blend-mode:lighten">
<path d="M131.006 266.301L130.693 265.765L205.107 222.607C206.26 221.842 207.219 220.82 207.91 219.622C208.601 218.423 209.004 217.081 209.088 215.701V212.415C209.17 210.925 209.601 209.475 210.347 208.183C211.093 206.89 212.133 205.79 213.382 204.973L216.223 203.341L216.536 203.878L213.696 205.532C212.537 206.285 211.573 207.302 210.881 208.498C210.189 209.694 209.789 211.036 209.714 212.415V215.701C209.636 217.192 209.206 218.643 208.46 219.936C207.713 221.23 206.672 222.329 205.42 223.143L131.006 266.301Z" fill="#42E8E0"/>
</g>
<g style="mix-blend-mode:lighten">
<path d="M125.705 263.239L125.392 262.703L199.806 219.545C200.956 218.782 201.914 217.764 202.604 216.57C203.295 215.375 203.7 214.038 203.787 212.661V209.376C203.866 207.885 204.296 206.434 205.042 205.14C205.788 203.847 206.83 202.748 208.081 201.933L210.922 200.279L211.235 200.838L208.395 202.47C207.242 203.235 206.282 204.256 205.591 205.455C204.9 206.653 204.497 207.995 204.413 209.376V212.661C204.33 214.151 203.897 215.6 203.152 216.893C202.406 218.185 201.367 219.285 200.119 220.104L125.705 263.239Z" fill="#42E8E0"/>
</g>
<g style="mix-blend-mode:lighten">
<path d="M120.404 260.155L120.091 259.596L194.482 216.438C195.646 215.689 196.616 214.674 197.312 213.477C198.008 212.281 198.41 210.936 198.486 209.555V206.269C198.568 204.779 199 203.329 199.745 202.036C200.491 200.744 201.531 199.644 202.78 198.827L205.621 197.195L205.934 197.731L203.094 199.363C201.941 200.128 200.981 201.15 200.29 202.348C199.599 203.547 199.196 204.889 199.112 206.269V209.555C199.03 211.045 198.599 212.495 197.853 213.787C197.107 215.08 196.067 216.18 194.818 216.997L120.404 260.155Z" fill="#42E8E0"/>
</g>
<g style="mix-blend-mode:lighten">
<path d="M115.103 257.138L114.79 256.601L189.182 213.443C190.346 212.689 191.316 211.67 192.011 210.47C192.707 209.27 193.109 207.922 193.185 206.537V203.252C193.269 201.762 193.701 200.313 194.447 199.02C195.193 197.728 196.231 196.628 197.48 195.809L200.32 194.178L200.633 194.714L197.793 196.368C196.643 197.131 195.685 198.149 194.994 199.343C194.303 200.538 193.899 201.875 193.811 203.252V206.515C193.733 208.006 193.303 209.457 192.557 210.75C191.811 212.044 190.769 213.143 189.517 213.958L115.103 257.138Z" fill="#42E8E0"/>
</g>
<g style="mix-blend-mode:lighten">
<path d="M109.802 254.098L109.489 253.539L183.881 210.381C185.042 209.63 186.008 208.615 186.7 207.418C187.392 206.222 187.79 204.878 187.862 203.498V200.212C187.945 198.72 188.379 197.268 189.129 195.975C189.879 194.681 190.924 193.583 192.179 192.77L195.019 191.116L195.332 191.674L192.492 193.306C191.339 194.071 190.379 195.093 189.688 196.291C188.998 197.49 188.594 198.832 188.511 200.212V203.498C188.423 204.989 187.986 206.439 187.237 207.731C186.487 209.024 185.445 210.123 184.194 210.94L109.802 254.098Z" fill="#42E8E0"/>
</g>
<g style="mix-blend-mode:lighten">
<path d="M104.457 251.036L104.144 250.477L178.535 207.342C179.688 206.577 180.648 205.555 181.338 204.357C182.029 203.158 182.432 201.816 182.516 200.436V197.15C182.603 195.659 183.038 194.208 183.788 192.915C184.538 191.623 185.581 190.524 186.833 189.708L189.674 188.076L189.987 188.613L187.146 190.266C185.988 191.02 185.023 192.036 184.331 193.232C183.64 194.429 183.24 195.771 183.165 197.15V200.436C183.082 201.928 182.648 203.38 181.898 204.673C181.148 205.967 180.103 207.065 178.848 207.878L104.457 251.036Z" fill="#42E8E0"/>
</g>
<g style="mix-blend-mode:lighten">
<path d="M99.2005 247.974L98.8873 247.438L173.279 204.28C174.429 203.517 175.387 202.499 176.078 201.305C176.768 200.11 177.173 198.773 177.26 197.396V194.111C177.343 192.618 177.777 191.166 178.527 189.873C179.277 188.58 180.322 187.482 181.577 186.668L184.418 185.014L184.731 185.573L181.89 187.204C180.727 187.959 179.76 188.978 179.068 190.179C178.376 191.379 177.979 192.727 177.909 194.111V197.396C177.823 198.885 177.387 200.332 176.637 201.621C175.887 202.91 174.844 204.005 173.592 204.816L99.2005 247.974Z" fill="#42E8E0"/>
</g>
<g style="mix-blend-mode:lighten">
<path d="M93.8996 244.935L93.5865 244.376L167.978 201.218C169.137 200.464 170.101 199.448 170.793 198.252C171.485 197.056 171.884 195.714 171.959 194.334V191.049C172.041 189.559 172.473 188.109 173.219 186.816C173.965 185.523 175.004 184.424 176.254 183.606L179.117 181.952L179.43 182.511L176.589 184.142C175.429 184.9 174.464 185.92 173.772 187.12C173.08 188.32 172.681 189.666 172.608 191.049V194.334C172.522 195.826 172.086 197.276 171.336 198.569C170.587 199.862 169.544 200.96 168.291 201.777L93.8996 244.935Z" fill="#42E8E0"/>
</g>
<g style="mix-blend-mode:lighten">
<path d="M88.5987 241.873L88.2856 241.336L162.61 198.179C163.763 197.414 164.723 196.392 165.413 195.193C166.104 193.995 166.507 192.653 166.591 191.272V187.987C166.675 186.497 167.107 185.048 167.853 183.756C168.599 182.463 169.638 181.363 170.886 180.544L173.749 178.913L174.062 179.449L171.221 181.103C170.057 181.853 169.088 182.868 168.392 184.064C167.696 185.261 167.293 186.605 167.218 187.987V191.272C167.139 192.763 166.709 194.214 165.963 195.508C165.217 196.801 164.175 197.9 162.923 198.715L88.5987 241.873Z" fill="#42E8E0"/>
</g>
<g style="mix-blend-mode:lighten">
<path d="M83.2978 238.811L82.9623 238.274L157.376 195.117C158.526 194.354 159.484 193.335 160.175 192.141C160.865 190.947 161.27 189.609 161.357 188.233V184.947C161.436 183.456 161.866 182.005 162.612 180.712C163.358 179.418 164.4 178.32 165.652 177.505L168.515 175.851L168.828 176.41L165.965 178.041C164.812 178.806 163.852 179.828 163.162 181.026C162.471 182.225 162.068 183.567 161.984 184.947V188.233C161.9 189.722 161.468 191.172 160.722 192.464C159.976 193.757 158.938 194.856 157.689 195.675L83.2978 238.811Z" fill="#42E8E0"/>
</g>
<g style="mix-blend-mode:lighten">
<path d="M77.9969 235.771L77.6614 235.212L152.075 192.077C153.228 191.312 154.188 190.29 154.879 189.092C155.57 187.893 155.973 186.551 156.057 185.171V181.93C156.139 180.44 156.57 178.99 157.316 177.697C158.062 176.404 159.102 175.305 160.351 174.487L163.214 172.856L163.527 173.392L160.664 175.046C159.506 175.8 158.541 176.816 157.849 178.012C157.158 179.208 156.758 180.551 156.683 181.93V185.216C156.601 186.706 156.169 188.155 155.423 189.448C154.677 190.741 153.638 191.841 152.388 192.658L77.9969 235.771Z" fill="#42E8E0"/>
</g>
<g style="mix-blend-mode:lighten">
<path d="M72.696 232.709L72.3605 232.173L146.774 189.015C147.927 188.25 148.887 187.228 149.578 186.03C150.269 184.831 150.672 183.489 150.756 182.109V178.823C150.838 177.336 151.269 175.89 152.015 174.6C152.761 173.311 153.801 172.216 155.05 171.403L157.913 169.749L158.226 170.286L155.363 171.94C154.213 172.702 153.255 173.721 152.565 174.915C151.874 176.109 151.469 177.447 151.382 178.823V182.109C151.303 183.6 150.874 185.051 150.127 186.344C149.381 187.638 148.339 188.737 147.088 189.551L72.696 232.709Z" fill="#42E8E0"/>
</g>
<g style="mix-blend-mode:lighten">
<path d="M67.3727 229.67L67.0596 229.111L141.473 185.953C142.632 185.199 143.596 184.183 144.288 182.987C144.98 181.791 145.38 180.449 145.455 179.069V175.784C145.533 174.293 145.963 172.842 146.709 171.548C147.456 170.255 148.497 169.156 149.749 168.341L152.59 166.687L152.925 167.246L150.062 168.878C148.909 169.643 147.95 170.664 147.259 171.863C146.568 173.061 146.165 174.403 146.081 175.784V179.069C145.999 180.559 145.568 182.009 144.822 183.302C144.076 184.595 143.036 185.694 141.787 186.512L67.3727 229.67Z" fill="#42E8E0"/>
</g>
<g style="mix-blend-mode:lighten">
<path d="M62.0718 226.63L61.7587 226.094L136.173 182.936C137.326 182.171 138.285 181.149 138.976 179.95C139.667 178.752 140.07 177.41 140.154 176.029V172.744C140.238 171.254 140.67 169.805 141.416 168.513C142.161 167.22 143.2 166.12 144.448 165.301L147.289 163.67L147.602 164.206L144.761 165.86C143.603 166.614 142.638 167.63 141.947 168.826C141.255 170.022 140.855 171.365 140.78 172.744V176.029C140.702 177.52 140.272 178.972 139.525 180.265C138.779 181.558 137.738 182.657 136.486 183.472L62.0718 226.63Z" fill="#42E8E0"/>
</g>
<g style="mix-blend-mode:lighten">
<path d="M56.7709 223.546L56.4578 223.009L130.872 179.851C132.022 179.089 132.98 178.07 133.67 176.876C134.361 175.682 134.766 174.344 134.853 172.968V169.682C134.931 168.191 135.361 166.74 136.108 165.447C136.854 164.153 137.895 163.054 139.147 162.24L141.988 160.586L142.301 161.144L139.46 162.776C138.307 163.541 137.348 164.563 136.657 165.761C135.966 166.96 135.563 168.302 135.479 169.682V172.99C135.395 174.48 134.963 175.929 134.217 177.221C133.472 178.514 132.433 179.614 131.185 180.433L56.7709 223.546Z" fill="#42E8E0"/>
</g>
<g style="mix-blend-mode:lighten">
<path d="M51.47 220.506L51.1569 219.947L125.571 176.789C126.729 176.036 127.694 175.02 128.386 173.823C129.077 172.627 129.477 171.285 129.552 169.906V166.62C129.634 165.13 130.065 163.68 130.811 162.387C131.557 161.095 132.597 159.995 133.846 159.178L136.687 157.546L137 158.083L134.16 159.714C133.007 160.479 132.047 161.501 131.356 162.699C130.665 163.898 130.262 165.24 130.178 166.62V169.906C130.096 171.396 129.665 172.846 128.919 174.138C128.173 175.431 127.133 176.531 125.884 177.348L51.47 220.506Z" fill="#42E8E0"/>
</g>
<g style="mix-blend-mode:lighten">
<path d="M46.1691 217.444L45.856 216.908L120.247 173.75C121.412 172.995 122.382 171.976 123.077 170.776C123.773 169.576 124.175 168.229 124.251 166.844V163.558C124.335 162.069 124.767 160.619 125.513 159.327C126.259 158.034 127.297 156.934 128.546 156.116L131.386 154.484L131.699 155.021L128.859 156.674C127.709 157.437 126.751 158.456 126.06 159.65C125.369 160.844 124.965 162.182 124.877 163.558V166.844C124.799 168.335 124.369 169.786 123.623 171.079C122.876 172.373 121.835 173.471 120.583 174.286L46.1691 217.444Z" fill="#42E8E0"/>
</g>
<g style="mix-blend-mode:lighten">
<path d="M40.8683 214.382L40.5551 213.846L114.947 170.755C116.108 170.004 117.074 168.988 117.766 167.792C118.458 166.595 118.856 165.251 118.928 163.871V160.586C119.011 159.093 119.445 157.641 120.195 156.348C120.945 155.055 121.99 153.957 123.245 153.143L126.085 151.489L126.398 152.048L123.558 153.68C122.405 154.445 121.445 155.466 120.754 156.665C120.064 157.863 119.66 159.205 119.577 160.586V163.871C119.495 165.361 119.063 166.811 118.317 168.104C117.571 169.397 116.532 170.496 115.282 171.314L40.8683 214.382Z" fill="#42E8E0"/>
</g>
<g style="mix-blend-mode:lighten">
<path d="M35.5673 211.342L35.2542 210.784L109.646 167.648C110.809 166.894 111.776 165.874 112.468 164.674C113.16 163.473 113.557 162.126 113.627 160.742V157.457C113.713 155.965 114.149 154.514 114.899 153.222C115.648 151.929 116.691 150.83 117.944 150.014L120.784 148.383L121.097 148.919L118.257 150.573C117.098 151.327 116.134 152.343 115.442 153.539C114.75 154.735 114.351 156.077 114.276 157.457V160.742C114.193 162.235 113.759 163.686 113.009 164.98C112.259 166.273 111.214 167.371 109.959 168.185L35.5673 211.342Z" fill="#42E8E0"/>
</g>
</g>
<g opacity="0.1">
<path opacity="0.1" d="M281.712 334.446L265.653 325.193V343.699L281.712 352.974L297.772 343.699V325.193L281.712 334.446Z" fill="#42E8E0"/>
<path opacity="0.1" d="M281.712 352.974L265.653 343.699V325.193L281.712 334.446V352.974Z" fill="#42E8E0"/>
<path opacity="0.1" d="M297.772 343.699L281.712 352.974V334.446L297.772 325.193V343.699Z" fill="#2FD3C7"/>
<path opacity="0.1" d="M281.712 334.446L265.653 325.193L281.712 315.918L297.772 325.193L281.712 334.446Z" fill="#42E8E0"/>
<path opacity="0.1" d="M281.712 334.446L265.653 325.193V325.998L281.712 335.251L297.772 325.998V325.193L281.712 334.446Z" fill="white"/>
</g>
<path opacity="0.2" d="M281.712 323.227L265.653 313.951L281.712 304.698L297.772 313.951L281.712 323.227Z" fill="#03002D"/>
<path d="M281.712 290.663L265.653 281.387V299.916L281.712 309.191L297.772 299.916V281.387L281.712 290.663Z" fill="#42E8E0"/>
<path d="M281.712 309.191L265.653 299.916V281.387L281.712 290.663V309.191Z" fill="#42E8E0"/>
<path d="M297.772 299.916L281.712 309.191V290.663L297.772 281.387V299.916Z" fill="#2FD3C7"/>
<path d="M281.712 290.663L265.653 281.387L281.712 272.135L297.772 281.387L281.712 290.663Z" fill="#42E8E0"/>
<path d="M281.712 290.663L265.653 281.387V282.214L281.712 291.467L297.772 282.214V281.387L281.712 290.663Z" fill="white"/>
<g opacity="0.1">
<path opacity="0.1" d="M46.0126 333.038L29.9533 323.786V342.314L46.0126 351.567L62.0719 342.314V323.786L46.0126 333.038Z" fill="#42E8E0"/>
<path opacity="0.1" d="M46.0125 351.567L29.9533 342.314V323.786L46.0125 333.038V351.567Z" fill="#42E8E0"/>
<path opacity="0.1" d="M62.0719 342.314L46.0125 351.567V333.038L62.0719 323.786V342.314Z" fill="#2FD3C7"/>
<path opacity="0.1" d="M46.0126 333.038L29.9533 323.785L46.0126 314.51L62.0719 323.785L46.0126 333.038Z" fill="#42E8E0"/>
<path opacity="0.1" d="M46.0126 333.039L29.9533 323.786V324.59L46.0126 333.843L62.0719 324.59V323.786L46.0126 333.039Z" fill="white"/>
</g>
<path opacity="0.2" d="M46.0126 321.819L29.9533 312.543L46.0126 303.291L62.0719 312.543L46.0126 321.819Z" fill="#03002D"/>
<path d="M46.0126 289.255L29.9533 280.002V298.53L46.0126 307.783L62.0719 298.53V280.002L46.0126 289.255Z" fill="#42E8E0"/>
<path d="M46.0125 307.783L29.9533 298.53V280.002L46.0125 289.255V307.783Z" fill="#42E8E0"/>
<path d="M62.0719 298.53L46.0125 307.783V289.255L62.0719 280.002V298.53Z" fill="#2FD3C7"/>
<path d="M46.0126 289.255L29.9533 280.002L46.0126 270.727L62.0719 280.002L46.0126 289.255Z" fill="#42E8E0"/>
<path d="M46.0126 289.255L29.9533 280.002V280.806L46.0126 290.059L62.0719 280.806V280.002L46.0126 289.255Z" fill="white"/>
<g opacity="0.1">
<path opacity="0.1" d="M16.1307 156.831L0.0714417 147.578V166.084L16.1307 175.359L32.19 166.084V147.578L16.1307 156.831Z" fill="#42E8E0"/>
<path opacity="0.1" d="M16.1307 175.359L0.0714417 166.084V147.578L16.1307 156.831V175.359Z" fill="#42E8E0"/>
<path opacity="0.1" d="M32.19 166.084L16.1307 175.359V156.831L32.19 147.578V166.084Z" fill="#2FD3C7"/>
<path opacity="0.1" d="M16.1307 156.831L0.0714417 147.578L16.1307 138.303L32.19 147.578L16.1307 156.831Z" fill="#42E8E0"/>
<path opacity="0.1" d="M16.1307 156.831L0.0714417 147.578V148.383L16.1307 157.636L32.19 148.383V147.578L16.1307 156.831Z" fill="white"/>
</g>
<path opacity="0.2" d="M16.1307 145.611L0.0714417 136.336L16.1307 127.083L32.19 136.336L16.1307 145.611Z" fill="#03002D"/>
<path d="M16.1307 113.047L0.0714417 103.772V122.3L16.1307 131.575L32.19 122.3V103.772L16.1307 113.047Z" fill="#42E8E0"/>
<path d="M16.1307 131.575L0.0714417 122.3V103.772L16.1307 113.047V131.575Z" fill="#42E8E0"/>
<path d="M32.19 122.3L16.1307 131.575V113.047L32.19 103.772V122.3Z" fill="#2FD3C7"/>
<path d="M16.1307 113.047L0.0714417 103.772L16.1307 94.5193L32.19 103.772L16.1307 113.047Z" fill="#42E8E0"/>
<path d="M16.1307 113.047L0.0714417 103.772V104.577L16.1307 113.852L32.19 104.577V103.772L16.1307 113.047Z" fill="white"/>
<path opacity="0.4" d="M243.443 198.692L132.862 134.995C129.999 133.341 130.357 130.525 133.668 128.558L198.173 91.3454C199.869 90.3941 201.765 89.8559 203.708 89.7743C205.652 89.6928 207.587 90.0702 209.356 90.8761L319.937 154.663C322.778 156.317 322.42 159.133 319.132 161.1L254.627 198.312C252.922 199.245 251.022 199.764 249.08 199.83C247.138 199.896 245.207 199.507 243.443 198.692Z" fill="#24126A"/>
<path d="M349.237 104.979L347.403 104.733C347.196 104.579 346.979 104.437 346.755 104.308L204.413 22.1945C202.143 21.1653 199.663 20.6837 197.173 20.7885C194.682 20.8933 192.251 21.5817 190.076 22.798L107.029 70.694C106.045 71.2617 105.185 72.0219 104.501 72.929L103.517 72.6385V75.5217C103.574 76.2822 103.834 77.0135 104.271 77.6388C104.708 78.2641 105.305 78.7603 106 79.0753L248.341 161.212C250.611 162.241 253.092 162.722 255.582 162.618C258.072 162.513 260.503 161.824 262.678 160.608L345.726 112.645C346.687 112.231 347.52 111.566 348.138 110.721C348.756 109.876 349.135 108.881 349.237 107.84V104.979Z" fill="#9FFFF8"/>
<path d="M248.341 158.217L106 76.1028C102.309 73.8678 102.779 70.2695 107.029 67.811L190.076 19.9149C192.251 18.6986 194.682 18.0103 197.173 17.9054C199.663 17.8006 202.143 18.2823 204.413 19.3115L346.755 101.47C350.423 103.705 349.976 107.303 345.726 109.762L262.678 157.658C260.5 158.867 258.067 159.548 255.577 159.645C253.086 159.742 250.608 159.253 248.341 158.217Z" fill="#42E8E0"/>
<path d="M248.341 158.217L106 76.1028C102.309 73.8678 102.779 70.2695 107.029 67.811L190.076 19.9149C192.251 18.6986 194.682 18.0103 197.173 17.9054C199.663 17.8006 202.143 18.2823 204.413 19.3115L346.755 101.47C350.423 103.705 349.976 107.303 345.726 109.762L262.678 157.658C260.5 158.867 258.067 159.548 255.577 159.645C253.086 159.742 250.608 159.253 248.341 158.217Z" fill="url(#paint9_radial)"/>
<path opacity="0.7" d="M271.312 152.651L115.64 62.8491L132.169 53.3057L287.841 143.108L271.312 152.651Z" fill="#453C9E"/>
<path opacity="0.7" d="M268.852 113.047L221.993 86.0262L233.423 79.4106L280.303 106.454L268.852 113.047Z" fill="white"/>
<path d="M84.5727 72.0798C100.229 68.1909 116.378 52.5235 120.807 37.0797C123.043 29.3466 121.836 23.1332 118.167 19.3561L114.298 15.4225L114.522 16.7859C110.076 14.992 105.149 14.779 100.565 16.1824C84.9082 20.0713 68.7595 35.761 64.3533 51.1825C62.9052 55.5354 62.9052 60.2396 64.3533 64.5925L63.1007 64.7937L67.0149 68.7943L67.1715 68.9731C70.9067 72.7056 76.9009 74.0019 84.5727 72.0798Z" fill="#9FFFF8"/>
<path d="M102.969 54.9819C117.114 41.3128 122.177 23.614 114.277 15.4506C106.377 7.28726 88.505 11.7506 74.3594 25.4197C60.2138 39.0889 55.1509 56.7876 63.0511 64.951C70.9513 73.1144 88.8229 68.6511 102.969 54.9819Z" fill="#42E8E0"/>
<path d="M75.6484 66.0228C73.8322 66.1136 72.0169 65.829 70.3158 65.1868C68.6148 64.5446 67.0646 63.5585 65.7623 62.2904C62.2731 58.7144 61.4232 53.0151 63.3691 46.2878C67.2833 32.5425 81.7769 18.5514 95.6666 14.9977C102.377 13.2991 108.125 14.3496 111.592 17.9256C115.058 21.5016 115.908 27.2008 113.985 33.9505C110.048 47.6958 95.5547 61.6869 81.6874 65.2406C79.7142 65.748 77.6859 66.0107 75.6484 66.0228ZM101.683 14.9977C99.7119 15.0098 97.7502 15.2727 95.8455 15.78C82.1794 19.1772 67.9319 32.9671 64.0401 46.4889C62.206 52.9704 62.9888 58.4015 66.2767 61.7987C69.5646 65.1959 74.9774 66.1569 81.5085 64.5254C95.1745 61.1058 109.422 47.3382 113.291 33.8164C115.148 27.3349 114.365 21.9039 111.055 18.5067C109.814 17.315 108.343 16.3891 106.731 15.7857C105.12 15.1823 103.402 14.9142 101.683 14.9977Z" fill="#18B2A3"/>
<g opacity="0.1">
<path opacity="0.1" d="M363.709 282.505C363.709 266.458 374.892 246.924 388.894 238.9C395.872 234.877 402.179 234.43 406.787 237.157L411.551 239.928L410.164 240.062C412.995 243.942 414.401 248.678 414.146 253.472C414.146 269.542 402.85 289.053 388.938 297.077C385.063 299.579 380.477 300.748 375.876 300.407L375.988 301.681L371.157 298.865L370.978 298.753C366.437 295.915 363.709 290.283 363.709 282.505Z" fill="#9FFFF8"/>
<path opacity="0.1" d="M411.543 280.926C421.382 263.897 421.379 245.49 411.537 239.812C401.695 234.134 385.741 243.335 375.902 260.364C366.063 277.393 366.065 295.801 375.907 301.479C385.749 307.157 401.704 297.955 411.543 280.926Z" fill="#42E8E0"/>
</g>
<path opacity="0.4" d="M392.092 308.588C374.713 308.588 357.334 304.766 344.093 297.144C331.232 289.724 324.142 279.845 324.142 269.319C324.142 258.792 331.232 248.891 344.093 241.471C370.553 226.205 413.609 226.205 440.091 241.471C452.952 248.891 460.042 258.792 460.042 269.319C460.042 279.845 452.952 289.724 440.091 297.144C426.85 304.855 409.471 308.588 392.092 308.588ZM392.092 230.519C374.803 230.519 357.513 234.318 344.339 241.917C331.635 249.248 324.634 258.971 324.634 269.319C324.634 279.667 331.635 289.434 344.339 296.72C370.665 311.895 413.497 311.895 439.823 296.72C452.549 289.389 459.528 279.644 459.528 269.319C459.528 258.993 452.549 249.204 439.823 241.917C426.671 234.318 409.381 230.519 392.092 230.519Z" fill="#42E8E0"/>
<path opacity="0.2" d="M392.092 319.114C370.038 319.114 347.985 314.287 331.188 304.587C314.86 295.177 305.891 282.639 305.891 269.318C305.891 255.998 314.838 243.437 331.188 234.028C364.738 214.65 419.402 214.65 452.996 234.028C469.302 243.437 478.293 255.975 478.293 269.318C478.293 282.661 469.346 295.177 452.996 304.587C436.199 314.287 414.146 319.114 392.092 319.114ZM392.092 219.992C370.128 219.992 348.164 224.82 331.434 234.452C315.285 243.772 306.383 256.154 306.383 269.318C306.383 282.483 315.33 294.842 331.434 304.162C364.872 323.45 419.29 323.45 452.75 304.162C468.899 294.842 477.801 282.46 477.801 269.318C477.801 256.177 468.854 243.772 452.75 234.452C436.02 224.82 414.056 219.925 392.092 219.925V219.992Z" fill="#42E8E0"/>
<path d="M392.092 300.385C378.381 300.385 364.693 297.39 354.27 291.445C343.847 285.5 338.613 277.789 338.613 269.497C338.613 261.205 344.205 253.383 354.27 247.527C375.116 235.503 409.068 235.503 429.914 247.527C440.069 253.383 445.571 261.183 445.571 269.497C445.571 277.811 439.979 285.589 429.914 291.445C419.849 297.3 405.78 300.385 392.092 300.385ZM392.092 238.9C378.471 238.9 364.872 241.895 354.516 247.84C344.518 253.606 339.016 261.25 339.016 269.385C339.016 277.521 344.518 285.03 354.516 290.908C375.227 302.866 408.934 302.866 429.668 290.908C439.644 285.142 445.146 277.498 445.146 269.385C445.146 261.272 439.644 253.606 429.668 247.84C419.312 241.805 405.691 238.811 392.092 238.811V238.9Z" fill="#42E8E0"/>
<path d="M363.709 282.505C363.709 266.458 374.892 246.924 388.894 238.9C395.872 234.877 402.179 234.43 406.787 237.157L411.551 239.928L410.164 240.062C412.995 243.942 414.401 248.678 414.146 253.472C414.146 269.542 402.85 289.053 388.938 297.077C385.063 299.579 380.477 300.748 375.876 300.407L375.988 301.681L371.157 298.865L370.978 298.753C366.437 295.915 363.709 290.283 363.709 282.505Z" fill="#9FFFF8"/>
<path d="M411.543 280.926C421.382 263.897 421.379 245.49 411.537 239.812C401.695 234.134 385.741 243.335 375.902 260.364C366.063 277.393 366.065 295.801 375.907 301.479C385.749 307.157 401.704 297.955 411.543 280.926Z" fill="#42E8E0"/>
<path d="M383.593 300.385C381.454 300.417 379.346 299.877 377.487 298.82C373.013 296.273 370.665 290.953 370.665 283.824C370.665 269.274 380.931 251.528 393.546 244.242C399.719 240.688 405.534 240.129 409.941 242.655C414.347 245.18 416.763 250.522 416.763 257.652C416.763 272.202 406.496 289.947 393.904 297.234C390.8 299.163 387.246 300.249 383.593 300.385ZM403.857 241.806C400.328 241.936 396.895 242.992 393.904 244.868C381.49 252.042 371.38 269.453 371.38 283.824C371.38 290.685 373.617 295.781 377.844 298.195C382.072 300.608 387.596 300.05 393.501 296.608C405.892 289.456 416.002 272.023 416.002 257.652C416.002 250.79 413.765 245.694 409.538 243.281C407.814 242.275 405.854 241.743 403.857 241.739V241.806Z" fill="#18B2A3"/>
<defs>
<linearGradient id="paint0_linear" x1="9.71149" y1="177.46" x2="443.468" y2="177.46" gradientUnits="userSpaceOnUse">
<stop stop-color="#BCBEFF"/>
<stop offset="0.15" stop-color="#A3A7F5"/>
<stop offset="0.39" stop-color="#8289E8"/>
<stop offset="0.61" stop-color="#6A73DF"/>
<stop offset="0.82" stop-color="#5C66D9"/>
<stop offset="1" stop-color="#5761D7"/>
</linearGradient>
<linearGradient id="paint1_linear" x1="139270" y1="64522.2" x2="129179" y2="41342.3" gradientUnits="userSpaceOnUse">
<stop stop-color="#42E8E0"/>
<stop offset="0.11" stop-color="#37B6BF"/>
<stop offset="0.22" stop-color="#2C87A1"/>
<stop offset="0.34" stop-color="#235F87"/>
<stop offset="0.46" stop-color="#1C3F72"/>
<stop offset="0.58" stop-color="#162561"/>
<stop offset="0.71" stop-color="#121355"/>
<stop offset="0.85" stop-color="#10084E"/>
<stop offset="1" stop-color="#0F054C"/>
</linearGradient>
<linearGradient id="paint2_linear" x1="67.0372" y1="183.494" x2="335.527" y2="183.494" gradientUnits="userSpaceOnUse">
<stop stop-color="#706EC4"/>
<stop offset="0.02" stop-color="#6D6BC2"/>
<stop offset="0.25" stop-color="#5651AC"/>
<stop offset="0.49" stop-color="#463F9D"/>
<stop offset="0.73" stop-color="#3C3494"/>
<stop offset="1" stop-color="#393091"/>
</linearGradient>
<linearGradient id="paint3_linear" x1="143.017" y1="147.243" x2="304.169" y2="147.243" gradientUnits="userSpaceOnUse">
<stop stop-color="#42E8E0"/>
<stop offset="0.15" stop-color="#43E3E0"/>
<stop offset="0.33" stop-color="#45D5DF"/>
<stop offset="0.52" stop-color="#49BDDD"/>
<stop offset="0.72" stop-color="#4E9CDB"/>
<stop offset="0.93" stop-color="#5472D8"/>
<stop offset="1" stop-color="#5761D7"/>
</linearGradient>
<linearGradient id="paint4_linear" x1="42725.8" y1="20286.2" x2="54336.8" y2="20286.2" gradientUnits="userSpaceOnUse">
<stop stop-color="#42E8E0"/>
<stop offset="0.15" stop-color="#43E3E0"/>
<stop offset="0.33" stop-color="#45D5DF"/>
<stop offset="0.52" stop-color="#49BDDD"/>
<stop offset="0.72" stop-color="#4E9CDB"/>
<stop offset="0.93" stop-color="#5472D8"/>
<stop offset="1" stop-color="#5761D7"/>
</linearGradient>
<linearGradient id="paint5_linear" x1="24414.8" y1="12284.2" x2="27316.7" y2="12284.2" gradientUnits="userSpaceOnUse">
<stop stop-color="#42E8E0"/>
<stop offset="0.15" stop-color="#43E3E0"/>
<stop offset="0.33" stop-color="#45D5DF"/>
<stop offset="0.52" stop-color="#49BDDD"/>
<stop offset="0.72" stop-color="#4E9CDB"/>
<stop offset="0.93" stop-color="#5472D8"/>
<stop offset="1" stop-color="#5761D7"/>
</linearGradient>
<linearGradient id="paint6_linear" x1="21437.3" y1="12283.6" x2="24340.9" y2="12283.6" gradientUnits="userSpaceOnUse">
<stop stop-color="#42E8E0"/>
<stop offset="0.15" stop-color="#43E3E0"/>
<stop offset="0.33" stop-color="#45D5DF"/>
<stop offset="0.52" stop-color="#49BDDD"/>
<stop offset="0.72" stop-color="#4E9CDB"/>
<stop offset="0.93" stop-color="#5472D8"/>
<stop offset="1" stop-color="#5761D7"/>
</linearGradient>
<linearGradient id="paint7_linear" x1="24414.8" y1="13541.1" x2="27316.7" y2="13541.1" gradientUnits="userSpaceOnUse">
<stop stop-color="#42E8E0"/>
<stop offset="0.15" stop-color="#43E3E0"/>
<stop offset="0.33" stop-color="#45D5DF"/>
<stop offset="0.52" stop-color="#49BDDD"/>
<stop offset="0.72" stop-color="#4E9CDB"/>
<stop offset="0.93" stop-color="#5472D8"/>
<stop offset="1" stop-color="#5761D7"/>
</linearGradient>
<linearGradient id="paint8_linear" x1="21437.3" y1="13541.1" x2="24340.9" y2="13541.1" gradientUnits="userSpaceOnUse">
<stop stop-color="#42E8E0"/>
<stop offset="0.15" stop-color="#43E3E0"/>
<stop offset="0.33" stop-color="#45D5DF"/>
<stop offset="0.52" stop-color="#49BDDD"/>
<stop offset="0.72" stop-color="#4E9CDB"/>
<stop offset="0.93" stop-color="#5472D8"/>
<stop offset="1" stop-color="#5761D7"/>
</linearGradient>
<radialGradient id="paint9_radial" cx="0" cy="0" r="1" gradientUnits="userSpaceOnUse" gradientTransform="translate(179.788 17.7246) scale(268.445 268.245)">
<stop stop-color="#15A0FF"/>
<stop offset="0.09" stop-color="#368CEE"/>
<stop offset="0.28" stop-color="#7368D0"/>
<stop offset="0.45" stop-color="#A54BB7"/>
<stop offset="0.62" stop-color="#CC33A4"/>
<stop offset="0.77" stop-color="#E82396"/>
<stop offset="0.9" stop-color="#F9198D"/>
<stop offset="1" stop-color="#FF158A"/>
</radialGradient>
</defs>
</svg>
