<svg width="479" height="342" viewBox="0 0 479 342" fill="none"
	xmlns="http://www.w3.org/2000/svg">
	<g opacity="0.2">
		<path opacity="0.2" d="M119.688 135.17C118.324 119.19 105.418 100.684 90.8578 93.8673C83.5662 90.4701 77.2588 90.6266 72.9644 93.6438L68.4911 96.8399H69.8778C67.3981 100.934 66.4031 105.756 67.0596 110.496C68.424 126.498 81.3295 144.982 95.8903 151.799C99.9606 153.959 104.622 154.743 109.176 154.034V155.285L113.649 152.067L113.828 151.933C118.1 148.915 120.359 143.104 119.688 135.17Z" fill="#9FFFF8"/>
		<path opacity="0.2" d="M109.159 155.298C118.48 148.802 116.913 130.461 105.657 114.332C94.4009 98.2033 77.7194 90.3941 68.3976 96.8898C59.0758 103.386 60.6436 121.726 71.8995 137.855C83.1553 153.984 99.8368 161.793 109.159 155.298Z" fill="#42E8E0"/>
		<path opacity="0.2" d="M99.9833 154.346C96.8148 154.275 93.7002 153.512 90.8577 152.111C77.9074 146.054 66.3885 129.538 65.1584 115.279C64.5545 108.305 66.5004 102.897 70.5935 100.036C74.6866 97.175 80.4348 97.2421 86.787 100.215C99.7373 106.294 111.278 122.81 112.486 137.047C113.09 144.021 111.167 149.452 107.051 152.29C104.968 153.696 102.496 154.415 99.9833 154.346ZM77.6166 98.6054C75.2304 98.5534 72.8866 99.2404 70.9066 100.572C67.0372 103.277 65.2255 108.462 65.7847 115.167C66.9925 129.203 78.3324 145.451 91.0814 151.418C97.1875 154.279 102.69 154.369 106.559 151.664C110.429 148.96 112.263 143.775 111.681 137.07C110.473 123.056 99.1334 106.786 86.3844 100.818C83.6578 99.4518 80.6655 98.6966 77.6166 98.6054Z" fill="#18B2A3"/>
	</g>
	<path opacity="0.6" d="M161.76 313.21C158.107 313.317 154.488 312.486 151.248 310.796L13.6927 231.431C12.4799 230.877 11.4401 230.004 10.6839 228.906C9.92778 227.808 9.48351 226.526 9.39835 225.196C9.39835 222.29 11.635 219.34 15.3926 217.15L277.776 65.8849C284.889 61.7502 295.669 61.4149 301.932 64.8792L439.487 144.11C440.695 144.67 441.731 145.545 442.487 146.641C443.242 147.738 443.689 149.017 443.781 150.346C443.781 153.273 441.545 156.201 437.787 158.392L175.404 309.813C171.22 312.089 166.523 313.259 161.76 313.21ZM291.487 62.89C286.803 62.8423 282.184 63.9884 278.067 66.2202L15.6834 217.664C12.0823 219.742 10.0023 222.491 10.0023 225.196C10.0894 226.419 10.5052 227.596 11.2059 228.603C11.9066 229.61 12.8662 230.41 13.9835 230.917L151.538 310.282C157.577 313.769 168.135 313.322 175.113 309.299L437.496 157.922C441.097 155.844 443.177 153.095 443.177 150.39C443.083 149.169 442.665 147.995 441.965 146.989C441.265 145.983 440.309 145.182 439.196 144.669L301.641 65.3038C298.488 63.6695 294.971 62.862 291.42 62.9571L291.487 62.89Z" fill="#42E8E0"/>
	<path d="M443.468 113.736L423.718 117.133L301.775 46.7979C295.669 43.2666 284.978 43.7136 277.91 47.7813L44.6259 182.373L9.71149 188.363V200.745C9.78608 202.026 10.2086 203.263 10.9337 204.322C11.6588 205.381 12.659 206.223 13.8269 206.757L151.427 286.144C157.533 289.653 168.224 289.228 175.292 285.138L437.72 133.784C441.522 131.549 443.491 128.778 443.558 126.118L443.468 113.736Z" fill="url(#paint0_linear)"/>
	<path d="M151.427 273.74L13.8493 194.375C7.74322 190.844 8.50366 184.675 15.5715 180.607L277.933 29.2309C285 25.1632 295.692 24.7609 301.798 28.2475L439.375 107.612C445.481 111.144 444.721 117.312 437.653 121.38L175.292 272.756C168.202 276.757 157.51 277.204 151.427 273.74Z" fill="#24126A"/>
	<path d="M437.72 121.313L175.359 272.689C168.291 276.757 157.6 277.159 151.494 273.673L13.9164 194.308C12.8856 193.811 11.9838 193.082 11.2815 192.178C10.5792 191.275 10.0955 190.222 9.86806 189.1C9.73013 190.519 10.0482 191.945 10.7762 193.171C11.5042 194.396 12.6041 195.358 13.9164 195.917L151.427 275.282C157.533 278.813 168.224 278.366 175.292 274.299L437.72 122.922C441.947 120.486 443.915 117.29 443.491 114.362C443.111 115.879 442.395 117.29 441.397 118.493C440.398 119.697 439.141 120.66 437.72 121.313Z" fill="white"/>
	<path opacity="0.51" d="M151.673 270.589L19.016 194.04C13.0889 190.62 13.8269 184.653 20.6711 180.63L278.156 32.1142C285 28.1583 295.334 27.6443 301.261 31.1532L433.918 107.702C439.845 111.121 439.107 117.089 432.262 121.112L174.755 269.65C167.933 273.584 157.6 274.008 151.673 270.589Z" fill="#330B41"/>
	<path style="mix-blend-mode:lighten" opacity="0.8" d="M161.693 269.896C158.144 270.033 154.618 269.264 151.449 267.661L18.7923 191.045C17.6014 190.489 16.5824 189.623 15.8424 188.537C15.1025 187.452 14.6689 186.187 14.5874 184.876C14.5874 182.015 16.8241 179.132 20.4475 176.964L277.955 28.4486C284.889 24.4479 295.446 23.9786 301.485 27.4875L434.141 104.059C435.329 104.613 436.346 105.475 437.086 106.557C437.825 107.638 438.261 108.898 438.346 110.205C438.346 113.088 436.221 115.971 432.486 118.117L174.979 266.588C170.903 268.801 166.331 269.939 161.693 269.896ZM151.874 266.811C157.667 270.141 167.844 269.717 174.554 265.85L432.061 117.29C435.506 115.301 437.496 112.686 437.496 110.115C437.408 108.958 437.011 107.846 436.346 106.895C435.682 105.943 434.773 105.188 433.716 104.707L301.037 28.158C295.267 24.8055 285.09 25.2302 278.38 29.0967L20.8724 177.635C17.428 179.646 15.4373 182.261 15.4373 184.809C15.5259 185.969 15.923 187.084 16.5876 188.039C17.2522 188.994 18.1601 189.754 19.2173 190.24L151.874 266.811Z" fill="url(#paint1_linear)"/>
	<path opacity="0.4" d="M161.693 269.762C158.166 269.89 154.664 269.12 151.516 267.527L18.8594 190.978C17.6868 190.436 16.683 189.586 15.9545 188.52C15.2259 187.453 14.7999 186.21 14.7216 184.921C14.7216 182.105 16.824 179.267 20.5145 177.143L278.022 28.5158C284.933 24.5375 295.423 24.0458 301.418 27.5771L434.074 104.126C435.241 104.67 436.24 105.517 436.968 106.579C437.695 107.64 438.125 108.877 438.212 110.16C438.212 112.999 436.11 115.837 432.419 117.96L174.912 266.476C170.859 268.681 166.308 269.813 161.693 269.762ZM151.829 267.035C157.645 270.387 167.866 269.963 174.621 266.074L432.128 117.446C435.618 115.435 437.63 112.775 437.63 110.16C437.533 108.983 437.126 107.853 436.45 106.883C435.774 105.914 434.854 105.14 433.783 104.64L301.104 28.0688C295.289 24.7163 285.068 25.1409 278.313 29.0298L20.8053 177.635C17.3161 179.669 15.3031 182.306 15.3031 184.921C15.397 186.102 15.8025 187.237 16.4783 188.211C17.1541 189.185 18.076 189.962 19.1502 190.464L151.829 267.035Z" fill="#42E8E0"/>
	<path d="M328.369 136.22V148.312L223.604 208.769L118.838 148.312V136.22H328.369Z" fill="url(#paint2_linear)"/>
	<path d="M223.604 196.655L118.838 136.22L223.604 75.7859L328.369 136.22L223.604 196.655Z" fill="#BCBEFF"/>
	<path d="M223.604 195.247L120.069 135.505L118.838 136.221L223.604 196.655L328.369 136.221L327.139 135.528L223.604 195.247Z" fill="white"/>
	<path d="M223.604 182.731L143.017 136.243L223.604 89.7546L304.169 136.243L223.604 182.731Z" fill="#0F054C"/>
	<path opacity="0.5" d="M223.604 182.731L143.017 136.243L223.604 89.7546L304.169 136.243L223.604 182.731Z" fill="url(#paint3_linear)"/>
	<path opacity="0.5" d="M223.604 170.997L143.017 124.509L223.604 78.021L304.169 124.509L223.604 170.997Z" fill="url(#paint4_linear)"/>
	<path opacity="0.7" d="M223.604 157.319L166.77 124.509L223.604 91.7217L280.438 124.509L223.604 157.319Z" fill="#42E8E0"/>
	<path opacity="0.5" d="M223.604 143.082L191.396 124.509L223.604 105.936L255.789 124.509L223.604 143.082Z" fill="#42E8E0"/>
	<path opacity="0.5" d="M223.604 107.657L254.313 125.381L255.789 124.509L223.604 105.936L191.396 124.509L192.894 125.381L223.604 107.657Z" fill="#42E8E0"/>
	<g opacity="0.4">
		<g style="mix-blend-mode:lighten">
			<path d="M212.689 84.1898C211.977 84.1651 211.284 83.9572 210.676 83.5863L197.055 75.7191L197.368 75.1604L211.012 83.0276C211.378 83.3052 211.812 83.4787 212.269 83.5299C212.725 83.581 213.187 83.5079 213.606 83.3181C213.981 83.0462 214.276 82.679 214.461 82.2545C214.646 81.83 214.714 81.3638 214.657 80.9043V77.6189C214.602 77.048 214.702 76.4729 214.946 75.9538C215.19 75.4348 215.569 74.9909 216.044 74.6687C216.563 74.4293 217.135 74.3302 217.704 74.3812C218.273 74.4322 218.819 74.6315 219.287 74.9592L222.128 76.6131L221.815 77.1495L218.974 75.518C218.624 75.2123 218.186 75.0234 217.723 74.9777C217.26 74.9319 216.795 75.0316 216.391 75.2627C215.987 75.4939 215.666 75.8451 215.471 76.2674C215.277 76.6897 215.219 77.1622 215.306 77.6189V80.9043C215.363 81.4785 215.264 82.0574 215.02 82.5803C214.776 83.1033 214.396 83.5511 213.919 83.8769C213.543 84.085 213.119 84.1928 212.689 84.1898Z" fill="#42E8E0"/>
		</g>
		<g style="mix-blend-mode:lighten">
			<path d="M207.343 87.2293C206.632 87.2046 205.938 86.9968 205.33 86.6259L191.687 78.7586L192 78.2222L205.621 86.0894C205.996 86.3589 206.435 86.5255 206.894 86.5726C207.353 86.6196 207.816 86.5455 208.238 86.3577C208.613 86.0909 208.909 85.7278 209.094 85.3068C209.279 84.8857 209.346 84.4225 209.289 83.9662V80.6807C209.188 80.1065 209.267 79.5152 209.514 78.9872C209.762 78.4591 210.166 78.02 210.671 77.7295C211.177 77.4389 211.76 77.311 212.341 77.3632C212.922 77.4154 213.473 77.6451 213.919 78.0211L216.76 79.6526L216.447 80.2114L213.606 78.5575C213.232 78.2864 212.795 78.1171 212.336 78.0662C211.877 78.0153 211.413 78.0844 210.989 78.2669C210.616 78.5404 210.322 78.908 210.137 79.332C209.953 79.756 209.884 80.2214 209.938 80.6807V83.9662C209.993 84.537 209.893 85.1122 209.649 85.6312C209.405 86.1503 209.026 86.5942 208.551 86.9164C208.186 87.1331 207.767 87.2416 207.343 87.2293Z" fill="#42E8E0"/>
		</g>
		<g style="mix-blend-mode:lighten">
			<path d="M202.087 90.2912C201.374 90.2578 200.681 90.0423 200.074 89.6654L186.453 81.7982L186.766 81.2618L200.387 89.129C200.761 89.4 201.198 89.5693 201.657 89.6203C202.116 89.6712 202.58 89.602 203.004 89.4195C203.377 89.146 203.671 88.7785 203.856 88.3545C204.041 87.9304 204.109 87.465 204.055 87.0057V83.765C203.955 83.1908 204.033 82.5995 204.28 82.0714C204.528 81.5434 204.932 81.1043 205.438 80.8137C205.943 80.5231 206.526 80.3953 207.107 80.4474C207.689 80.4996 208.239 80.7293 208.685 81.1053L211.526 82.7592L211.213 83.2956L208.372 81.6641C208.002 81.3867 207.564 81.2135 207.103 81.1624C206.643 81.1113 206.178 81.1842 205.755 81.3735C205.38 81.6402 205.085 82.0034 204.9 82.4244C204.715 82.8454 204.647 83.3087 204.704 83.765V87.0504C204.764 87.6218 204.666 88.1986 204.422 88.7186C204.178 89.2386 203.796 89.6819 203.317 90.0006C202.944 90.2137 202.517 90.3145 202.087 90.2912Z" fill="#42E8E0"/>
		</g>
		<g style="mix-blend-mode:lighten">
			<path d="M196.786 93.3307C196.074 93.306 195.381 93.0981 194.773 92.7272L181.152 84.86L181.465 84.3013L195.086 92.1685C195.457 92.4458 195.895 92.619 196.355 92.6701C196.815 92.7212 197.281 92.6483 197.703 92.459C198.076 92.1907 198.371 91.8273 198.556 91.4067C198.74 90.9861 198.809 90.5237 198.755 90.0676V86.7821C198.698 86.2079 198.797 85.629 199.041 85.1061C199.285 84.5831 199.665 84.1353 200.141 83.8096C200.66 83.5702 201.233 83.4711 201.802 83.5221C202.371 83.5731 202.917 83.7724 203.384 84.1001L206.225 85.754L205.912 86.2904L203.071 84.6588C202.72 84.3501 202.28 84.1595 201.814 84.1138C201.348 84.0681 200.879 84.1696 200.474 84.4041C200.069 84.6386 199.748 84.9942 199.556 85.4209C199.364 85.8475 199.31 86.3236 199.403 86.7821V90.0676C199.458 90.6384 199.358 91.2135 199.114 91.7326C198.871 92.2517 198.491 92.6956 198.016 93.0178C197.64 93.2259 197.216 93.3337 196.786 93.3307Z" fill="#42E8E0"/>
		</g>
		<g style="mix-blend-mode:lighten">
			<path d="M191.485 96.3704C190.774 96.3457 190.08 96.1379 189.472 95.7669L175.851 87.8998L176.164 87.3633L189.786 95.2306C190.161 95.4976 190.598 95.6644 191.056 95.7153C191.514 95.7661 191.978 95.6993 192.402 95.5211C192.772 95.2445 193.064 94.8765 193.248 94.4533C193.432 94.0301 193.503 93.5662 193.454 93.1073V89.8219C193.353 89.2476 193.431 88.6563 193.679 88.1283C193.926 87.6003 194.33 87.1611 194.836 86.8706C195.342 86.58 195.925 86.4521 196.506 86.5043C197.087 86.5565 197.638 86.7862 198.084 87.1622L200.924 88.7937L200.611 89.3525L197.748 87.6986C197.391 87.3718 196.937 87.1699 196.454 87.1231C195.972 87.0764 195.488 87.1874 195.074 87.4394C194.66 87.6915 194.34 88.0709 194.16 88.5207C193.981 88.9705 193.953 89.4664 194.08 89.9336V93.219C194.137 93.7878 194.041 94.3615 193.801 94.8804C193.561 95.3993 193.186 95.8444 192.716 96.1693C192.333 96.3514 191.906 96.4212 191.485 96.3704Z" fill="#42E8E0"/>
		</g>
		<g style="mix-blend-mode:lighten">
			<path d="M186.184 99.41C185.469 99.3904 184.772 99.1739 184.171 98.7842L170.55 90.9393L170.863 90.3806L184.485 98.2478C184.855 98.5251 185.293 98.6983 185.753 98.7494C186.214 98.8005 186.679 98.7276 187.102 98.5383C187.471 98.2617 187.763 97.8937 187.947 97.4705C188.131 97.0473 188.202 96.5834 188.153 96.1245V92.8391C188.1 92.2708 188.199 91.6988 188.438 91.1807C188.678 90.6627 189.05 90.2171 189.517 89.8889C190.034 89.6427 190.608 89.5398 191.178 89.5909C191.749 89.642 192.295 89.8452 192.76 90.1794L195.623 91.8333L195.31 92.3697L192.447 90.7382C192.097 90.4325 191.659 90.2436 191.196 90.1979C190.733 90.1521 190.268 90.2518 189.864 90.483C189.46 90.7141 189.139 91.0653 188.945 91.4877C188.75 91.91 188.692 92.3823 188.779 92.8391V96.1245C188.844 96.694 188.751 97.2703 188.51 97.7905C188.27 98.3108 187.891 98.755 187.415 99.0747C187.046 99.3034 186.618 99.4199 186.184 99.41Z" fill="#42E8E0"/>
		</g>
		<g style="mix-blend-mode:lighten">
			<path d="M180.884 102.472C180.171 102.45 179.477 102.242 178.871 101.869L165.227 94.0013L165.562 93.4426L179.184 101.31C179.534 101.615 179.971 101.804 180.434 101.85C180.897 101.896 181.363 101.796 181.767 101.565C182.17 101.334 182.492 100.983 182.686 100.56C182.881 100.138 182.939 99.6656 182.852 99.2089V95.9234C182.794 95.3547 182.891 94.781 183.131 94.2621C183.371 93.7432 183.746 93.2981 184.216 92.9732C184.732 92.7222 185.307 92.6167 185.878 92.6679C186.45 92.7191 186.996 92.9251 187.459 93.2638L190.322 94.8953L190.009 95.454L187.146 93.8002C186.794 93.4914 186.355 93.3008 185.889 93.2551C185.423 93.2094 184.954 93.3109 184.549 93.5454C184.144 93.7799 183.823 94.1355 183.631 94.5621C183.438 94.9888 183.385 95.4649 183.478 95.9234V99.2089C183.535 99.7776 183.439 100.351 183.199 100.87C182.959 101.389 182.584 101.834 182.114 102.159C181.736 102.364 181.313 102.472 180.884 102.472Z" fill="#42E8E0"/>
		</g>
		<g style="mix-blend-mode:lighten">
			<path d="M175.583 105.534C174.869 105.504 174.175 105.288 173.57 104.908L159.926 97.041L160.239 96.5046L173.883 104.372C174.235 104.681 174.674 104.871 175.14 104.917C175.606 104.963 176.075 104.861 176.48 104.627C176.885 104.392 177.206 104.036 177.398 103.61C177.591 103.183 177.644 102.707 177.551 102.249V98.9631C177.498 98.3949 177.597 97.8228 177.836 97.3048C178.076 96.7867 178.448 96.3411 178.915 96.0129C179.432 95.7667 180.006 95.6638 180.577 95.7149C181.147 95.766 181.693 95.9693 182.158 96.3035L185.021 97.935L184.708 98.4938L181.845 96.8399C181.47 96.5729 181.033 96.406 180.575 96.3551C180.117 96.3043 179.653 96.3711 179.228 96.5493C178.859 96.8259 178.567 97.1939 178.383 97.6171C178.199 98.0404 178.128 98.5042 178.177 98.9631V102.249C178.23 102.817 178.131 103.389 177.892 103.907C177.652 104.425 177.28 104.871 176.813 105.199C176.441 105.421 176.016 105.537 175.583 105.534Z" fill="#42E8E0"/>
		</g>
		<g style="mix-blend-mode:lighten">
			<path d="M170.282 108.573C169.569 108.552 168.875 108.344 168.269 107.97L154.625 100.103L154.938 99.5441L168.582 107.411C168.953 107.689 169.391 107.862 169.851 107.913C170.311 107.964 170.776 107.891 171.199 107.702C171.57 107.427 171.863 107.059 172.047 106.635C172.232 106.212 172.302 105.747 172.25 105.288V102.003C172.141 101.429 172.213 100.835 172.457 100.304C172.7 99.773 173.103 99.3307 173.609 99.0385C174.115 98.7463 174.7 98.6186 175.282 98.6732C175.864 98.7277 176.415 98.9618 176.858 99.343L179.72 100.997L179.407 101.533L176.544 99.9017C176.194 99.596 175.757 99.4072 175.294 99.3614C174.831 99.3157 174.365 99.4153 173.961 99.6465C173.558 99.8777 173.236 100.229 173.042 100.651C172.847 101.073 172.789 101.546 172.876 102.003V105.288C172.955 105.87 172.873 106.462 172.641 107.002C172.408 107.541 172.034 108.007 171.557 108.35C171.158 108.532 170.719 108.609 170.282 108.573Z" fill="#42E8E0"/>
		</g>
		<g style="mix-blend-mode:lighten">
			<path d="M164.981 111.613C164.269 111.591 163.574 111.383 162.968 111.01L149.324 103.142L149.637 102.606L163.281 110.473C163.656 110.743 164.094 110.909 164.554 110.956C165.013 111.003 165.476 110.929 165.898 110.741C166.269 110.471 166.562 110.108 166.747 109.688C166.932 109.267 167.001 108.806 166.949 108.35V105.064C166.894 104.496 166.991 103.923 167.231 103.405C167.471 102.886 167.845 102.441 168.313 102.114C168.829 101.863 169.404 101.758 169.975 101.809C170.547 101.86 171.094 102.066 171.557 102.405L174.42 104.036L174.084 104.595L171.243 102.941C170.892 102.632 170.452 102.442 169.986 102.396C169.52 102.35 169.051 102.452 168.646 102.686C168.241 102.921 167.92 103.277 167.728 103.703C167.536 104.13 167.482 104.606 167.575 105.064V108.35C167.628 108.918 167.53 109.49 167.29 110.008C167.05 110.526 166.678 110.972 166.211 111.3C165.84 111.521 165.413 111.63 164.981 111.613Z" fill="#42E8E0"/>
		</g>
		<g style="mix-blend-mode:lighten">
			<path d="M159.68 114.675C158.966 114.645 158.272 114.429 157.667 114.049L144.023 106.182L144.336 105.646L157.98 113.513C158.332 113.822 158.772 114.012 159.238 114.058C159.704 114.104 160.172 114.002 160.577 113.768C160.982 113.533 161.304 113.178 161.496 112.751C161.688 112.324 161.741 111.848 161.648 111.39V108.104C161.596 107.536 161.694 106.964 161.934 106.446C162.173 105.928 162.545 105.482 163.013 105.154C163.53 104.908 164.103 104.805 164.674 104.856C165.244 104.907 165.791 105.11 166.256 105.445L169.096 107.098L168.783 107.635L165.943 106.003C165.592 105.698 165.155 105.509 164.692 105.463C164.229 105.417 163.763 105.517 163.36 105.748C162.956 105.979 162.635 106.33 162.44 106.753C162.246 107.175 162.188 107.647 162.275 108.104V111.39C162.33 111.958 162.232 112.531 161.992 113.049C161.753 113.568 161.379 114.013 160.91 114.34C160.538 114.562 160.113 114.678 159.68 114.675Z" fill="#42E8E0"/>
		</g>
		<g style="mix-blend-mode:lighten">
			<path d="M154.357 117.715C153.652 117.689 152.966 117.481 152.366 117.111L138.722 109.244L139.036 108.685L152.679 116.552C153.03 116.858 153.467 117.047 153.93 117.093C154.393 117.138 154.859 117.039 155.262 116.808C155.666 116.576 155.987 116.225 156.182 115.803C156.376 115.381 156.434 114.908 156.347 114.451V111.166C156.291 110.594 156.387 110.018 156.627 109.495C156.866 108.973 157.241 108.524 157.712 108.193C158.231 107.953 158.806 107.855 159.376 107.91C159.946 107.965 160.491 108.171 160.955 108.506L163.795 110.138L163.482 110.674L160.642 109.043C160.271 108.765 159.833 108.592 159.373 108.541C158.913 108.49 158.447 108.563 158.025 108.752C157.655 109.029 157.364 109.397 157.179 109.82C156.995 110.243 156.924 110.707 156.974 111.166V114.451C157.026 115.02 156.928 115.592 156.688 116.11C156.449 116.628 156.076 117.074 155.609 117.402C155.224 117.607 154.794 117.715 154.357 117.715Z" fill="#42E8E0"/>
		</g>
		<g style="mix-blend-mode:lighten">
			<path d="M149.056 120.754C148.351 120.732 147.664 120.524 147.065 120.151L133.422 112.284L133.735 111.747L147.378 119.614C147.73 119.923 148.17 120.114 148.636 120.159C149.102 120.205 149.57 120.104 149.975 119.869C150.381 119.635 150.702 119.279 150.894 118.852C151.086 118.426 151.139 117.95 151.046 117.491V114.206C150.937 113.632 151.01 113.038 151.253 112.507C151.497 111.976 151.899 111.534 152.405 111.242C152.912 110.949 153.496 110.822 154.078 110.876C154.66 110.931 155.211 111.165 155.654 111.546L158.495 113.178L158.181 113.736L155.341 112.082C154.966 111.815 154.528 111.649 154.07 111.598C153.612 111.547 153.149 111.614 152.724 111.792C152.354 112.069 152.063 112.437 151.879 112.86C151.694 113.283 151.623 113.747 151.673 114.206V117.491C151.725 118.059 151.627 118.631 151.387 119.15C151.148 119.668 150.776 120.113 150.308 120.441C149.927 120.657 149.494 120.765 149.056 120.754Z" fill="#42E8E0"/>
		</g>
		<g style="mix-blend-mode:lighten">
			<path d="M143.755 123.816C143.04 123.793 142.344 123.577 141.742 123.19L128.121 115.346L128.434 114.787L142.077 122.654C142.444 122.932 142.878 123.105 143.335 123.156C143.791 123.207 144.253 123.134 144.672 122.945C145.049 122.674 145.348 122.307 145.536 121.883C145.725 121.459 145.797 120.992 145.746 120.531V117.29C145.636 116.716 145.709 116.122 145.952 115.591C146.196 115.06 146.598 114.618 147.105 114.326C147.611 114.034 148.195 113.906 148.777 113.961C149.359 114.015 149.91 114.249 150.353 114.63L153.194 116.284L152.881 116.821L150.04 115.189C149.689 114.883 149.252 114.695 148.789 114.649C148.326 114.603 147.861 114.703 147.457 114.934C147.053 115.165 146.732 115.516 146.537 115.939C146.343 116.361 146.285 116.833 146.372 117.29V120.575C146.432 121.147 146.334 121.724 146.09 122.244C145.845 122.764 145.463 123.207 144.985 123.526C144.612 123.739 144.184 123.84 143.755 123.816Z" fill="#42E8E0"/>
		</g>
		<g style="mix-blend-mode:lighten">
			<path d="M138.454 126.856C137.742 126.831 137.049 126.623 136.441 126.252L122.82 118.385L123.133 117.849L136.777 125.694C137.128 125.991 137.562 126.172 138.021 126.213C138.479 126.254 138.939 126.153 139.338 125.923C139.737 125.693 140.055 125.346 140.249 124.929C140.443 124.512 140.503 124.045 140.422 123.593V120.307C140.321 119.733 140.4 119.142 140.647 118.614C140.895 118.086 141.299 117.646 141.804 117.356C142.31 117.065 142.893 116.937 143.474 116.99C144.055 117.042 144.606 117.272 145.052 117.648L147.893 119.279L147.58 119.816L144.717 118.184C144.365 117.875 143.925 117.685 143.459 117.639C142.993 117.593 142.525 117.695 142.119 117.929C141.714 118.164 141.393 118.519 141.201 118.946C141.009 119.373 140.955 119.849 141.048 120.307V123.593C141.103 124.164 141.004 124.739 140.76 125.258C140.516 125.777 140.137 126.221 139.662 126.543C139.292 126.747 138.877 126.855 138.454 126.856Z" fill="#42E8E0"/>
		</g>
		<g style="mix-blend-mode:lighten">
			<path d="M133.153 129.896C132.441 129.871 131.748 129.663 131.14 129.292L117.519 121.425L117.832 120.888L131.453 128.756C131.827 129.027 132.264 129.196 132.723 129.247C133.182 129.298 133.646 129.229 134.07 129.046C134.443 128.773 134.737 128.405 134.922 127.981C135.107 127.557 135.175 127.092 135.121 126.632V123.347C135.021 122.773 135.099 122.181 135.346 121.653C135.594 121.125 135.998 120.686 136.503 120.396C137.009 120.105 137.592 119.977 138.173 120.029C138.754 120.082 139.305 120.311 139.751 120.687L142.592 122.319L142.279 122.878L139.438 121.224C139.065 120.953 138.627 120.783 138.168 120.732C137.709 120.682 137.245 120.751 136.821 120.933C136.448 121.207 136.154 121.574 135.969 121.998C135.785 122.422 135.716 122.888 135.77 123.347V126.632C135.827 127.204 135.729 127.78 135.485 128.299C135.24 128.819 134.86 129.262 134.383 129.583C134.012 129.804 133.585 129.912 133.153 129.896Z" fill="#42E8E0"/>
		</g>
		<g style="mix-blend-mode:lighten">
			<path d="M127.852 132.935C127.14 132.91 126.447 132.702 125.839 132.332L112.218 124.464L112.531 123.906L126.152 131.773C126.51 132.1 126.964 132.302 127.446 132.348C127.928 132.395 128.413 132.284 128.826 132.032C129.24 131.78 129.561 131.4 129.74 130.951C129.919 130.501 129.947 130.005 129.82 129.538V126.252C129.765 125.682 129.865 125.106 130.109 124.587C130.353 124.068 130.732 123.624 131.207 123.302C131.726 123.063 132.298 122.964 132.868 123.015C133.437 123.066 133.982 123.265 134.45 123.593L137.291 125.247L136.978 125.783L134.137 124.152C133.767 123.874 133.329 123.701 132.868 123.65C132.408 123.599 131.943 123.672 131.52 123.861C131.147 124.129 130.853 124.493 130.668 124.913C130.483 125.334 130.414 125.796 130.469 126.252V129.538C130.526 130.112 130.427 130.691 130.183 131.214C129.939 131.737 129.559 132.185 129.082 132.51C128.717 132.758 128.292 132.904 127.852 132.935Z" fill="#42E8E0"/>
		</g>
		<g style="mix-blend-mode:lighten">
			<path d="M122.551 135.997C121.84 135.972 121.146 135.764 120.538 135.393L106.917 127.526L107.23 126.99L120.851 134.857C121.226 135.127 121.665 135.293 122.124 135.34C122.583 135.387 123.047 135.313 123.468 135.125C123.843 134.859 124.139 134.495 124.324 134.074C124.509 133.653 124.577 133.19 124.52 132.734V129.448C124.419 128.874 124.497 128.283 124.745 127.755C124.992 127.227 125.396 126.788 125.902 126.497C126.408 126.206 126.991 126.079 127.572 126.131C128.153 126.183 128.704 126.413 129.15 126.789L131.99 128.42L131.677 128.979L128.836 127.325C128.463 127.054 128.025 126.885 127.566 126.834C127.108 126.783 126.643 126.852 126.219 127.035C125.846 127.308 125.552 127.676 125.368 128.1C125.183 128.524 125.114 128.989 125.168 129.448V132.734C125.223 133.305 125.123 133.88 124.88 134.399C124.636 134.918 124.256 135.362 123.781 135.684C123.405 135.892 122.981 136 122.551 135.997Z" fill="#42E8E0"/>
		</g>
		<g style="mix-blend-mode:lighten">
			<path d="M117.25 139.059C116.537 139.026 115.844 138.81 115.237 138.433L101.616 130.566L101.929 130.03L115.551 137.897C115.902 138.206 116.342 138.396 116.808 138.442C117.274 138.488 117.743 138.386 118.148 138.152C118.553 137.917 118.874 137.561 119.066 137.135C119.258 136.708 119.312 136.232 119.219 135.774V132.488C119.118 131.914 119.196 131.323 119.444 130.795C119.691 130.267 120.095 129.827 120.601 129.537C121.107 129.246 121.69 129.118 122.271 129.171C122.852 129.223 123.403 129.452 123.849 129.828L126.689 131.482L126.376 132.019L123.513 130.387C123.163 130.082 122.725 129.893 122.262 129.847C121.799 129.801 121.334 129.901 120.93 130.132C120.526 130.363 120.205 130.714 120.011 131.137C119.816 131.559 119.758 132.031 119.845 132.488V135.774C119.905 136.343 119.81 136.917 119.569 137.436C119.329 137.956 118.953 138.401 118.481 138.724C118.112 138.952 117.684 139.069 117.25 139.059Z" fill="#42E8E0"/>
		</g>
		<g style="mix-blend-mode:lighten">
			<path d="M111.95 142.099C111.237 142.077 110.543 141.869 109.936 141.495L96.3152 133.628L96.6283 133.069L110.25 140.936C110.6 141.242 111.037 141.431 111.5 141.477C111.963 141.522 112.429 141.423 112.833 141.192C113.236 140.96 113.558 140.609 113.752 140.187C113.947 139.765 114.005 139.292 113.918 138.836V135.55C113.816 134.978 113.893 134.389 114.138 133.862C114.382 133.334 114.783 132.895 115.285 132.603C115.787 132.31 116.367 132.179 116.947 132.226C117.526 132.274 118.077 132.498 118.525 132.868L121.388 134.522L121.075 135.058L118.212 133.427C117.86 133.118 117.421 132.927 116.955 132.882C116.489 132.836 116.02 132.938 115.615 133.172C115.21 133.407 114.889 133.762 114.696 134.189C114.504 134.615 114.451 135.092 114.544 135.55V138.836C114.601 139.404 114.505 139.978 114.265 140.497C114.025 141.016 113.65 141.461 113.18 141.786C112.803 141.994 112.38 142.102 111.95 142.099Z" fill="#42E8E0"/>
		</g>
		<g style="mix-blend-mode:lighten">
			<path d="M234.429 84.4356C233.993 84.4356 233.562 84.3281 233.177 84.1227C232.71 83.7945 232.337 83.3489 232.098 82.8308C231.858 82.3128 231.76 81.7407 231.813 81.1725V77.887C231.862 77.4281 231.791 76.9643 231.607 76.5411C231.422 76.1178 231.131 75.7498 230.761 75.4732C230.339 75.2839 229.873 75.2111 229.413 75.2621C228.953 75.3132 228.515 75.4864 228.144 75.7638L225.304 77.3953L224.991 76.8589L227.831 75.205C228.298 74.8744 228.846 74.6751 229.416 74.628C229.987 74.5808 230.559 74.6875 231.074 74.9368C231.55 75.2566 231.929 75.7008 232.17 76.221C232.411 76.7413 232.504 77.3176 232.439 77.887V81.1725C232.352 81.6292 232.41 82.1016 232.604 82.5239C232.799 82.9462 233.12 83.2974 233.524 83.5286C233.928 83.7598 234.393 83.8594 234.856 83.8137C235.319 83.7679 235.756 83.5791 236.107 83.2734L316.403 36.8301L316.716 37.3665L236.42 83.7651C235.827 84.1587 235.14 84.39 234.429 84.4356Z" fill="#42E8E0"/>
		</g>
		<g style="mix-blend-mode:lighten">
			<path d="M239.73 87.4751C239.292 87.4863 238.859 87.3781 238.478 87.1622C238.01 86.834 237.638 86.3884 237.399 85.8703C237.159 85.3523 237.061 84.7802 237.113 84.212V80.9265C237.206 80.468 237.153 79.9919 236.961 79.5653C236.769 79.1387 236.447 78.783 236.042 78.5485C235.637 78.314 235.169 78.2125 234.703 78.2582C234.237 78.3039 233.797 78.4945 233.445 78.8033L230.605 80.4572L230.292 79.8985L233.132 78.2669C233.575 77.8857 234.126 77.6517 234.708 77.5971C235.29 77.5426 235.874 77.6702 236.381 77.9624C236.887 78.2546 237.29 78.6969 237.533 79.228C237.777 79.7591 237.849 80.3526 237.74 80.9265V84.212C237.613 84.6792 237.641 85.175 237.82 85.6248C237.999 86.0746 238.32 86.4541 238.734 86.7061C239.147 86.9582 239.632 87.0692 240.114 87.0225C240.596 86.9757 241.05 86.7738 241.408 86.447L321.704 39.9143L322.017 40.4507L241.743 86.9834C241.125 87.3153 240.432 87.4845 239.73 87.4751Z" fill="#42E8E0"/>
		</g>
		<g style="mix-blend-mode:lighten">
			<path d="M245.031 90.47C244.597 90.4799 244.17 90.3634 243.801 90.1348C243.323 89.8161 242.941 89.3727 242.696 88.8527C242.452 88.3328 242.354 87.7559 242.414 87.1846V83.8991C242.501 83.4424 242.443 82.97 242.249 82.5477C242.054 82.1254 241.733 81.7742 241.329 81.543C240.925 81.3118 240.46 81.2122 239.997 81.2579C239.534 81.3037 239.097 81.4925 238.746 81.7982L235.906 83.4298L235.592 82.8934L238.433 81.2395C238.879 80.8635 239.43 80.6338 240.011 80.5816C240.592 80.5294 241.175 80.6573 241.681 80.9479C242.187 81.2384 242.591 81.6776 242.838 82.2056C243.085 82.7336 243.164 83.3249 243.063 83.8991V87.1846C242.976 87.6391 243.032 88.1094 243.224 88.5306C243.415 88.9519 243.733 89.3033 244.133 89.5363C244.533 89.7693 244.996 89.8725 245.457 89.8316C245.919 89.7907 246.356 89.6076 246.709 89.3078L327.005 42.7751L327.318 43.3339L247.044 89.8442C246.442 90.2308 245.746 90.4471 245.031 90.47Z" fill="#42E8E0"/>
		</g>
		<g style="mix-blend-mode:lighten">
			<path d="M250.332 93.5768C249.902 93.5798 249.478 93.4721 249.102 93.2639C248.627 92.9417 248.248 92.4978 248.004 91.9788C247.76 91.4597 247.66 90.8846 247.715 90.3137V87.0283C247.842 86.5611 247.814 86.0653 247.635 85.6155C247.455 85.1657 247.135 84.7862 246.721 84.5341C246.307 84.2821 245.823 84.1711 245.341 84.2178C244.859 84.2646 244.405 84.4665 244.047 84.7933L241.206 86.4472L240.893 86.0002L243.734 84.3687C244.18 83.9927 244.731 83.7629 245.312 83.7108C245.893 83.6586 246.476 83.7865 246.982 84.077C247.487 84.3676 247.891 84.8067 248.139 85.3347C248.386 85.8628 248.465 86.4541 248.364 87.0283V90.3137C248.307 90.77 248.374 91.2333 248.559 91.6543C248.744 92.0754 249.04 92.4385 249.415 92.7052C249.837 92.8945 250.303 92.9674 250.763 92.9163C251.223 92.8652 251.661 92.692 252.032 92.4146L332.306 45.9043L332.619 46.4407L252.345 92.9734C251.737 93.3443 251.044 93.5522 250.332 93.5768Z" fill="#42E8E0"/>
		</g>
		<g style="mix-blend-mode:lighten">
			<path d="M255.633 96.6162C255.201 96.6328 254.774 96.5241 254.403 96.3033C253.928 95.9811 253.549 95.5372 253.305 95.0181C253.061 94.499 252.961 93.9239 253.016 93.3531V90.0677C253.07 89.6084 253.001 89.1429 252.817 88.7189C252.632 88.2949 252.338 87.9274 251.965 87.6539C251.54 87.4757 251.077 87.4088 250.619 87.4597C250.161 87.5105 249.723 87.6774 249.348 87.9444L246.507 89.5983L246.194 89.0619L249.035 87.408C249.481 87.032 250.032 86.8023 250.613 86.7501C251.194 86.6979 251.777 86.8258 252.283 87.1164C252.788 87.4069 253.192 87.8461 253.44 88.3741C253.687 88.9021 253.765 89.4935 253.665 90.0677V93.3531C253.611 93.8124 253.68 94.2778 253.864 94.7018C254.049 95.1259 254.343 95.4934 254.716 95.7669C255.14 95.9494 255.604 96.0186 256.063 95.9676C256.522 95.9167 256.959 95.7474 257.333 95.4764L337.607 48.9436L337.92 49.48L257.646 96.0127C257.038 96.3837 256.345 96.5915 255.633 96.6162Z" fill="#42E8E0"/>
		</g>
		<g style="mix-blend-mode:lighten">
			<path d="M261.023 99.6782C260.593 99.6812 260.17 99.5734 259.793 99.3653C259.317 99.0396 258.936 98.5918 258.692 98.0688C258.449 97.5459 258.35 96.967 258.406 96.3928V93.1073C258.461 92.6512 258.392 92.1888 258.207 91.7682C258.023 91.3476 257.728 90.9842 257.355 90.7159C256.933 90.5266 256.467 90.4537 256.007 90.5048C255.547 90.5559 255.109 90.7291 254.738 91.0064L251.898 92.638L251.585 92.1016L254.313 90.47C254.781 90.1423 255.327 89.943 255.896 89.892C256.465 89.841 257.038 89.9401 257.557 90.1795C258.031 90.5017 258.411 90.9456 258.655 91.4646C258.899 91.9837 258.998 92.5588 258.943 93.1297V96.4151C258.887 96.8746 258.955 97.3408 259.139 97.7653C259.324 98.1897 259.62 98.557 259.994 98.8289C260.418 99.0114 260.883 99.0806 261.341 99.0296C261.8 98.9787 262.238 98.8094 262.611 98.5384L342.885 52.0056L343.198 52.5644L262.925 99.0971C262.347 99.4423 261.695 99.6418 261.023 99.6782Z" fill="#42E8E0"/>
		</g>
		<g style="mix-blend-mode:lighten">
			<path d="M266.235 102.718C265.803 102.735 265.376 102.626 265.005 102.405C264.534 102.08 264.159 101.635 263.919 101.116C263.679 100.597 263.583 100.024 263.64 99.4548V96.1694C263.767 95.7022 263.739 95.2064 263.56 94.7566C263.38 94.3068 263.06 93.9273 262.646 93.6752C262.233 93.4232 261.748 93.3122 261.266 93.3589C260.784 93.4056 260.33 93.6076 259.972 93.9344L257.109 95.5883L256.796 95.0295L259.637 93.398C260.082 93.022 260.633 92.7923 261.214 92.7401C261.796 92.6879 262.379 92.8158 262.884 93.1064C263.39 93.3969 263.794 93.8361 264.042 94.3641C264.289 94.8921 264.367 95.4834 264.267 96.0576V99.4101C264.217 99.869 264.288 100.333 264.472 100.756C264.657 101.179 264.948 101.547 265.318 101.824C265.743 102.002 266.206 102.069 266.664 102.018C267.122 101.967 267.559 101.8 267.935 101.533L348.253 55.0454L348.567 55.5818L268.293 102.114C267.672 102.493 266.962 102.701 266.235 102.718Z" fill="#42E8E0"/>
		</g>
		<g style="mix-blend-mode:lighten">
			<path d="M271.536 105.78C271.102 105.79 270.674 105.673 270.306 105.445C269.83 105.125 269.451 104.681 269.21 104.16C268.969 103.64 268.876 103.064 268.941 102.494V99.209C269.028 98.7523 268.97 98.2799 268.776 97.8576C268.581 97.4353 268.26 97.0841 267.856 96.8529C267.452 96.6217 266.987 96.5221 266.524 96.5678C266.061 96.6136 265.624 96.8024 265.273 97.1081L262.41 98.7397L262.097 98.2033L264.96 96.5494C265.425 96.2152 265.971 96.0119 266.542 95.9608C267.112 95.9097 267.686 96.0126 268.203 96.2588C268.67 96.587 269.043 97.0326 269.282 97.5507C269.522 98.0687 269.62 98.6408 269.567 99.209V102.494C269.44 102.962 269.469 103.458 269.648 103.907C269.827 104.357 270.148 104.737 270.561 104.989C270.975 105.241 271.46 105.352 271.942 105.305C272.424 105.258 272.878 105.056 273.236 104.729L353.51 58.1968L353.823 58.7555L273.549 105.154C272.943 105.534 272.25 105.75 271.536 105.78Z" fill="#42E8E0"/>
		</g>
		<g style="mix-blend-mode:lighten">
			<path d="M276.837 108.819C276.406 108.822 275.983 108.714 275.606 108.506C275.136 108.181 274.761 107.736 274.521 107.217C274.281 106.699 274.185 106.125 274.242 105.556V102.271C274.294 101.809 274.221 101.343 274.033 100.918C273.844 100.494 273.546 100.128 273.168 99.8569C272.75 99.6672 272.288 99.594 271.831 99.6452C271.374 99.6963 270.94 99.8699 270.574 100.147L267.711 101.779L267.398 101.243L270.261 99.5887C270.709 99.2184 271.26 98.9944 271.839 98.947C272.419 98.8995 272.999 99.0309 273.501 99.3233C274.003 99.6157 274.404 100.055 274.648 100.582C274.893 101.109 274.97 101.699 274.868 102.271V105.556C274.781 106.013 274.839 106.485 275.034 106.908C275.228 107.33 275.55 107.681 275.953 107.912C276.357 108.143 276.823 108.243 277.286 108.197C277.749 108.152 278.186 107.963 278.536 107.657L358.81 61.1467L359.146 61.6831L278.917 108.216C278.291 108.601 277.572 108.81 276.837 108.819Z" fill="#42E8E0"/>
		</g>
		<g style="mix-blend-mode:lighten">
			<path d="M282.137 111.859C281.706 111.875 281.279 111.767 280.907 111.546C280.44 111.218 280.068 110.772 279.828 110.254C279.589 109.736 279.49 109.164 279.543 108.596V105.31C279.636 104.852 279.583 104.376 279.391 103.949C279.198 103.522 278.877 103.167 278.472 102.932C278.067 102.698 277.598 102.596 277.132 102.642C276.666 102.688 276.227 102.878 275.875 103.187L273.012 104.841L272.699 104.282L275.562 102.651C276.027 102.316 276.573 102.113 277.143 102.062C277.714 102.011 278.288 102.114 278.805 102.36C279.272 102.688 279.644 103.134 279.884 103.652C280.123 104.17 280.222 104.742 280.169 105.31V108.596C280.076 109.054 280.129 109.53 280.322 109.957C280.514 110.384 280.835 110.739 281.24 110.974C281.645 111.208 282.114 111.31 282.58 111.264C283.046 111.218 283.486 111.028 283.837 110.719L364.111 64.1863L364.447 64.7227L284.15 111.255C283.544 111.629 282.85 111.837 282.137 111.859Z" fill="#42E8E0"/>
		</g>
		<g style="mix-blend-mode:lighten">
			<path d="M287.438 114.921C287.005 114.924 286.58 114.808 286.208 114.586C285.738 114.261 285.363 113.816 285.123 113.297C284.883 112.778 284.786 112.204 284.844 111.635V108.35C284.931 107.893 284.873 107.421 284.678 106.999C284.484 106.576 284.162 106.225 283.759 105.994C283.355 105.763 282.889 105.663 282.426 105.709C281.963 105.755 281.526 105.943 281.176 106.249L278.313 107.881L278 107.344L280.863 105.69C281.328 105.356 281.874 105.153 282.444 105.102C283.015 105.051 283.589 105.154 284.106 105.4C284.573 105.728 284.945 106.174 285.185 106.692C285.424 107.21 285.523 107.782 285.47 108.35V111.635C285.377 112.094 285.43 112.57 285.623 112.997C285.815 113.423 286.136 113.779 286.541 114.013C286.946 114.248 287.415 114.35 287.881 114.304C288.347 114.258 288.786 114.067 289.138 113.759L369.412 67.2261L369.748 67.7848L289.451 114.295C288.851 114.685 288.154 114.901 287.438 114.921Z" fill="#42E8E0"/>
		</g>
		<g style="mix-blend-mode:lighten">
			<path d="M292.739 117.96C292.309 117.961 291.887 117.853 291.509 117.648C291.042 117.319 290.67 116.874 290.43 116.356C290.191 115.838 290.092 115.266 290.145 114.697V111.412C290.272 110.945 290.244 110.449 290.064 109.999C289.885 109.549 289.564 109.17 289.151 108.918C288.737 108.666 288.253 108.555 287.77 108.601C287.288 108.648 286.834 108.85 286.477 109.177L283.636 110.831L283.301 110.272L286.163 108.641C286.626 108.302 287.173 108.096 287.745 108.045C288.316 107.993 288.891 108.099 289.407 108.35C289.877 108.675 290.252 109.12 290.492 109.639C290.732 110.158 290.828 110.731 290.771 111.3V114.586C290.684 115.042 290.742 115.515 290.937 115.937C291.131 116.359 291.453 116.711 291.856 116.942C292.26 117.173 292.726 117.273 293.188 117.227C293.651 117.181 294.089 116.992 294.439 116.687L374.735 70.355L375.049 70.8914L294.752 117.29C294.152 117.687 293.458 117.919 292.739 117.96Z" fill="#42E8E0"/>
		</g>
		<g style="mix-blend-mode:lighten">
			<path d="M298.063 121.023C297.622 121.028 297.189 120.912 296.81 120.687C296.343 120.359 295.971 119.914 295.731 119.395C295.491 118.877 295.393 118.305 295.446 117.737V114.452C295.495 113.993 295.424 113.529 295.24 113.106C295.056 112.682 294.764 112.314 294.394 112.038C293.97 111.86 293.506 111.793 293.048 111.844C292.59 111.895 292.153 112.061 291.778 112.328L288.937 113.982L288.624 113.446L291.464 111.792C291.929 111.458 292.476 111.255 293.046 111.203C293.617 111.152 294.19 111.255 294.708 111.501C295.175 111.83 295.547 112.275 295.787 112.793C296.026 113.311 296.125 113.883 296.072 114.452V117.737C295.945 118.204 295.973 118.7 296.152 119.15C296.332 119.6 296.652 119.979 297.066 120.231C297.48 120.483 297.964 120.594 298.446 120.548C298.929 120.501 299.383 120.299 299.74 119.972L380.036 73.4395L380.35 73.9758L300.053 120.509C299.444 120.845 298.759 121.022 298.063 121.023Z" fill="#42E8E0"/>
		</g>
		<g style="mix-blend-mode:lighten">
			<path d="M303.363 123.995C302.927 123.995 302.496 123.888 302.111 123.682C301.64 123.352 301.266 122.903 301.026 122.38C300.786 121.858 300.69 121.281 300.747 120.71V117.514C300.798 117.054 300.728 116.59 300.544 116.166C300.359 115.743 300.067 115.375 299.695 115.1C299.273 114.91 298.807 114.838 298.347 114.889C297.887 114.94 297.449 115.113 297.078 115.39L294.238 117.022L293.925 116.485L296.765 114.831C297.21 114.447 297.763 114.212 298.348 114.157C298.933 114.103 299.52 114.232 300.028 114.528C300.536 114.823 300.938 115.27 301.179 115.805C301.42 116.341 301.488 116.938 301.373 117.514V120.777C301.319 121.238 301.39 121.706 301.579 122.13C301.768 122.555 302.067 122.921 302.446 123.19C302.865 123.38 303.327 123.453 303.784 123.402C304.24 123.351 304.675 123.177 305.041 122.9L385.337 76.3672L385.65 76.9259L305.354 123.459C304.748 123.805 304.062 123.99 303.363 123.995Z" fill="#42E8E0"/>
		</g>
		<g style="mix-blend-mode:lighten">
			<path d="M308.664 127.102C308.226 127.113 307.793 127.005 307.412 126.789C306.945 126.461 306.572 126.015 306.333 125.497C306.093 124.979 305.995 124.407 306.047 123.839V120.553C306.174 120.086 306.146 119.59 305.967 119.14C305.788 118.691 305.467 118.311 305.053 118.059C304.64 117.807 304.155 117.696 303.673 117.743C303.191 117.789 302.737 117.991 302.379 118.318L299.539 119.972L299.226 119.413L302.066 117.782C302.531 117.448 303.077 117.244 303.648 117.193C304.218 117.142 304.792 117.245 305.309 117.491C305.782 117.814 306.158 118.259 306.398 118.779C306.638 119.298 306.733 119.873 306.674 120.441V123.727C306.621 124.183 306.691 124.644 306.876 125.065C307.061 125.485 307.354 125.848 307.725 126.118C308.146 126.306 308.61 126.38 309.069 126.333C309.528 126.286 309.967 126.12 310.342 125.85L390.75 79.4292L391.063 79.9656L310.677 126.498C310.069 126.869 309.376 127.077 308.664 127.102Z" fill="#42E8E0"/>
		</g>
		<g style="mix-blend-mode:lighten">
			<path d="M313.965 130.163C313.531 130.173 313.104 130.057 312.735 129.828C312.257 129.509 311.875 129.066 311.63 128.546C311.386 128.026 311.288 127.449 311.348 126.878V123.593C311.435 123.136 311.377 122.663 311.183 122.241C310.988 121.819 310.667 121.468 310.263 121.236C309.86 121.005 309.394 120.906 308.931 120.951C308.468 120.997 308.031 121.186 307.68 121.492L304.84 123.123L304.526 122.587L307.367 120.933C307.81 120.552 308.361 120.318 308.943 120.263C309.525 120.209 310.109 120.336 310.616 120.628C311.122 120.921 311.525 121.363 311.768 121.894C312.011 122.425 312.084 123.019 311.975 123.593V126.878C311.848 127.345 311.876 127.841 312.055 128.291C312.234 128.741 312.555 129.12 312.969 129.372C313.382 129.624 313.867 129.735 314.349 129.688C314.831 129.642 315.285 129.44 315.643 129.113L395.939 82.5803L396.252 83.1391L315.978 129.649C315.365 129.997 314.67 130.174 313.965 130.163Z" fill="#42E8E0"/>
		</g>
		<g style="mix-blend-mode:lighten">
			<path d="M319.177 133.203C318.747 133.206 318.323 133.098 317.947 132.89C317.472 132.568 317.092 132.124 316.848 131.605C316.604 131.086 316.505 130.511 316.56 129.94V126.655C316.609 126.196 316.538 125.732 316.354 125.309C316.17 124.885 315.878 124.517 315.508 124.241C315.086 124.052 314.621 123.979 314.16 124.03C313.7 124.081 313.262 124.254 312.892 124.531L310.23 126.23L309.917 125.694L312.757 124.062C313.203 123.686 313.754 123.456 314.335 123.404C314.916 123.352 315.499 123.48 316.005 123.77C316.511 124.061 316.915 124.5 317.162 125.028C317.41 125.556 317.488 126.147 317.387 126.722V130.007C317.306 130.46 317.367 130.927 317.561 131.344C317.755 131.761 318.073 132.108 318.472 132.338C318.87 132.567 319.33 132.669 319.789 132.627C320.247 132.586 320.682 132.405 321.033 132.108L401.329 85.5977L401.643 86.134L321.369 132.667C320.702 133.045 319.943 133.231 319.177 133.203Z" fill="#42E8E0"/>
		</g>
		<g style="mix-blend-mode:lighten">
			<path d="M324.567 136.243C324.135 136.259 323.708 136.151 323.337 135.93C322.862 135.608 322.483 135.164 322.239 134.645C321.995 134.126 321.895 133.551 321.95 132.98V129.694C322.004 129.235 321.935 128.77 321.751 128.346C321.566 127.922 321.272 127.554 320.899 127.28C320.475 127.098 320.011 127.029 319.552 127.08C319.093 127.131 318.656 127.3 318.282 127.571L315.441 129.225L315.128 128.666L317.969 127.035C318.415 126.659 318.966 126.429 319.547 126.377C320.128 126.325 320.711 126.452 321.217 126.743C321.722 127.034 322.126 127.473 322.374 128.001C322.621 128.529 322.7 129.12 322.599 129.694V132.935C322.545 133.394 322.614 133.86 322.798 134.284C322.983 134.708 323.277 135.075 323.65 135.349C324.074 135.531 324.538 135.601 324.997 135.55C325.456 135.499 325.893 135.329 326.267 135.058L406.541 88.5256L406.854 89.062L326.58 135.595C325.977 135.981 325.283 136.205 324.567 136.243Z" fill="#42E8E0"/>
		</g>
		<g style="mix-blend-mode:lighten">
			<path d="M329.868 139.305C329.434 139.315 329.007 139.198 328.638 138.969C328.16 138.651 327.777 138.207 327.533 137.687C327.289 137.167 327.191 136.591 327.251 136.019V132.734C327.306 132.278 327.237 131.815 327.052 131.395C326.867 130.974 326.573 130.611 326.2 130.342C325.78 130.175 325.325 130.12 324.877 130.183C324.43 130.245 324.007 130.424 323.65 130.7L320.81 132.331L320.496 131.795L323.337 130.141C323.805 129.813 324.351 129.614 324.92 129.563C325.489 129.512 326.061 129.611 326.58 129.851C327.055 130.173 327.434 130.617 327.678 131.136C327.922 131.655 328.022 132.23 327.967 132.801V136.086C327.84 136.554 327.868 137.049 328.047 137.499C328.227 137.949 328.547 138.328 328.961 138.58C329.375 138.832 329.859 138.944 330.341 138.897C330.823 138.85 331.277 138.648 331.635 138.321L411.909 91.7886L412.222 92.3473L331.948 138.858C331.309 139.194 330.589 139.348 329.868 139.305Z" fill="#42E8E0"/>
		</g>
		<g style="mix-blend-mode:lighten">
			<path d="M335.169 142.344C334.739 142.347 334.315 142.24 333.939 142.032C333.464 141.709 333.085 141.265 332.841 140.746C332.597 140.227 332.497 139.652 332.552 139.081V135.796C332.606 135.337 332.537 134.871 332.352 134.447C332.168 134.023 331.874 133.656 331.501 133.382C331.077 133.2 330.613 133.13 330.154 133.181C329.695 133.232 329.257 133.402 328.884 133.673L326.043 135.327L325.73 134.768L328.571 133.136C329.017 132.76 329.567 132.531 330.149 132.478C330.73 132.426 331.313 132.554 331.818 132.845C332.324 133.135 332.728 133.574 332.976 134.102C333.223 134.63 333.301 135.222 333.201 135.796V139.081C333.144 139.538 333.211 140.001 333.396 140.422C333.581 140.843 333.877 141.206 334.252 141.473C334.674 141.662 335.14 141.735 335.6 141.684C336.06 141.633 336.498 141.46 336.869 141.182L417.143 94.6719L417.456 95.2083L337.182 141.741C336.574 142.112 335.881 142.32 335.169 142.344Z" fill="#42E8E0"/>
		</g>
		<path opacity="0.5" d="M223.604 78.021L304.169 124.509V136.243L223.604 89.7547V78.021Z" fill="url(#paint5_linear)"/>
		<path opacity="0.5" d="M223.604 89.7547L143.017 136.243V124.509L223.604 78.021V89.7547Z" fill="url(#paint6_linear)"/>
		<path opacity="0.5" d="M223.604 170.997V182.731L304.169 136.243V124.509L223.604 170.997Z" fill="url(#paint7_linear)"/>
		<path opacity="0.5" d="M143.017 124.509V136.243L223.604 182.731V170.997L143.017 124.509Z" fill="url(#paint8_linear)"/>
		<path opacity="0.8" d="M223.604 169.723L144.135 123.883L143.017 124.509L223.604 170.997L304.169 124.509L303.073 123.883L223.604 169.723Z" fill="#42E8E0"/>
		<g style="mix-blend-mode:lighten">
			<path d="M249.84 223.072L236.196 215.205C234.947 214.388 233.907 213.288 233.161 211.995C232.415 210.703 231.984 209.253 231.902 207.763V204.455C231.818 203.074 231.415 201.732 230.724 200.534C230.033 199.336 229.074 198.314 227.921 197.549L225.08 195.917L225.393 195.358L228.234 197.012C229.486 197.827 230.527 198.926 231.273 200.219C232.02 201.513 232.45 202.964 232.528 204.455V207.74C232.603 209.12 233.003 210.462 233.695 211.658C234.386 212.854 235.351 213.87 236.509 214.624L250.153 222.491L249.84 223.072Z" fill="#42E8E0"/>
		</g>
		<g style="mix-blend-mode:lighten">
			<path d="M255.051 220.1L241.408 212.233C240.156 211.418 239.114 210.319 238.368 209.026C237.622 207.732 237.192 206.281 237.113 204.79V201.505C237.038 200.125 236.639 198.783 235.947 197.587C235.255 196.391 234.291 195.375 233.132 194.621L230.292 192.967L230.605 192.431L233.445 194.062C234.695 194.88 235.734 195.979 236.48 197.272C237.226 198.565 237.658 200.015 237.74 201.505V204.79C237.816 206.175 238.218 207.522 238.913 208.723C239.609 209.923 240.579 210.942 241.743 211.696L255.365 219.564L255.051 220.1Z" fill="#42E8E0"/>
		</g>
		<g style="mix-blend-mode:lighten">
			<path d="M260.352 216.949L246.709 209.104C245.46 208.285 244.422 207.185 243.676 205.893C242.93 204.6 242.498 203.151 242.414 201.661V198.376C242.33 196.995 241.927 195.653 241.236 194.455C240.546 193.256 239.586 192.235 238.433 191.47L235.592 189.838L235.906 189.279L238.657 191.045C239.911 191.859 240.956 192.957 241.706 194.25C242.457 195.543 242.891 196.995 242.973 198.487V201.773C243.047 203.153 243.446 204.496 244.138 205.692C244.83 206.888 245.795 207.904 246.955 208.657L260.576 216.524L260.352 216.949Z" fill="#42E8E0"/>
		</g>
		<g style="mix-blend-mode:lighten">
			<path d="M265.653 213.909L252.077 206.042C250.824 205.226 249.781 204.127 249.031 202.834C248.282 201.541 247.846 200.091 247.76 198.599V195.314C247.676 193.933 247.273 192.591 246.582 191.393C245.891 190.195 244.932 189.173 243.779 188.408L240.938 186.776L241.251 186.24L244.092 187.871C245.344 188.688 246.387 189.786 247.137 191.079C247.887 192.372 248.322 193.822 248.409 195.314V198.599C248.48 199.98 248.878 201.323 249.57 202.52C250.262 203.716 251.229 204.732 252.39 205.483L266.011 213.35L265.653 213.909Z" fill="#42E8E0"/>
		</g>
		<g style="mix-blend-mode:lighten">
			<path d="M270.954 210.847L257.333 202.98C256.078 202.166 255.033 201.068 254.283 199.775C253.533 198.482 253.099 197.03 253.016 195.537V192.252C252.929 190.875 252.524 189.538 251.833 188.343C251.143 187.149 250.185 186.131 249.035 185.368L246.194 183.714L246.507 183.178L249.348 184.809C250.599 185.627 251.641 186.726 252.391 188.018C253.14 189.311 253.577 190.761 253.665 192.252V195.515C253.735 196.899 254.132 198.246 254.824 199.447C255.516 200.647 256.483 201.667 257.646 202.421L271.267 210.288L270.954 210.847Z" fill="#42E8E0"/>
		</g>
		<g style="mix-blend-mode:lighten">
			<path d="M276.255 207.808L262.634 199.985C261.383 199.168 260.34 198.068 259.591 196.776C258.841 195.484 258.405 194.034 258.317 192.543V189.257C258.247 187.873 257.85 186.526 257.158 185.325C256.466 184.125 255.499 183.106 254.336 182.351L251.495 180.719L251.808 180.161L254.649 181.815C255.904 182.628 256.949 183.726 257.699 185.02C258.449 186.313 258.883 187.765 258.966 189.257V192.543C259.041 193.922 259.44 195.264 260.132 196.46C260.824 197.656 261.788 198.673 262.947 199.426L276.568 207.294L276.255 207.808Z" fill="#42E8E0"/>
		</g>
		<g style="mix-blend-mode:lighten">
			<path d="M281.556 204.745L267.935 196.878C266.683 196.063 265.641 194.965 264.895 193.671C264.149 192.378 263.719 190.927 263.64 189.436V186.15C263.564 184.768 263.162 183.424 262.466 182.228C261.77 181.031 260.801 180.016 259.637 179.266L256.796 177.613L257.109 177.076L259.972 178.708C261.222 179.525 262.261 180.625 263.007 181.917C263.753 183.21 264.185 184.66 264.267 186.15V189.436C264.35 190.816 264.753 192.158 265.444 193.357C266.135 194.555 267.095 195.577 268.248 196.342L281.869 204.209L281.556 204.745Z" fill="#42E8E0"/>
		</g>
		<g style="mix-blend-mode:lighten">
			<path d="M286.857 201.683L273.236 193.816C271.987 193.004 270.947 191.908 270.201 190.619C269.455 189.33 269.023 187.883 268.941 186.396V183.111C268.857 181.73 268.454 180.388 267.763 179.19C267.072 177.991 266.113 176.969 264.96 176.204L262.097 174.573L262.41 174.014L265.273 175.668C266.525 176.483 267.566 177.582 268.313 178.875C269.059 180.168 269.489 181.62 269.567 183.111V186.396C269.655 187.773 270.059 189.11 270.75 190.305C271.441 191.499 272.399 192.517 273.549 193.28L287.17 201.147L286.857 201.683Z" fill="#42E8E0"/>
		</g>
		<g style="mix-blend-mode:lighten">
			<path d="M292.158 198.644L278.536 190.777C277.287 189.959 276.247 188.86 275.501 187.567C274.755 186.274 274.324 184.824 274.242 183.334V180.049C274.158 178.668 273.755 177.326 273.064 176.128C272.373 174.929 271.414 173.908 270.261 173.143L267.398 171.511L267.733 170.93L270.596 172.584C271.846 173.401 272.885 174.501 273.631 175.794C274.377 177.086 274.809 178.536 274.891 180.026V183.312C274.966 184.691 275.365 186.034 276.057 187.23C276.749 188.426 277.713 189.442 278.872 190.196L292.516 198.063L292.158 198.644Z" fill="#42E8E0"/>
		</g>
		<g style="mix-blend-mode:lighten">
			<path d="M297.481 195.515L283.837 187.648C282.585 186.833 281.544 185.734 280.798 184.441C280.051 183.147 279.621 181.696 279.543 180.205V176.92C279.468 175.54 279.068 174.198 278.376 173.002C277.685 171.806 276.72 170.79 275.562 170.036L272.699 168.382L273.012 167.846L275.875 169.477C277.123 170.296 278.162 171.396 278.907 172.688C279.653 173.981 280.085 175.43 280.169 176.92V180.205C280.253 181.586 280.656 182.928 281.347 184.126C282.038 185.325 282.997 186.346 284.15 187.111L297.794 194.979L297.481 195.515Z" fill="#42E8E0"/>
		</g>
		<g style="mix-blend-mode:lighten">
			<path d="M302.782 192.542L289.138 184.675C287.89 183.857 286.851 182.757 286.106 181.464C285.36 180.172 284.928 178.722 284.844 177.233V173.947C284.76 172.567 284.357 171.225 283.666 170.026C282.975 168.828 282.016 167.806 280.863 167.041L278 165.41L278.313 164.851L281.153 166.46C282.405 167.275 283.447 168.374 284.193 169.667C284.939 170.96 285.369 172.412 285.448 173.903V177.188C285.535 178.565 285.94 179.902 286.63 181.097C287.321 182.291 288.279 183.309 289.429 184.072L303.073 191.939L302.782 192.542Z" fill="#42E8E0"/>
		</g>
		<g style="mix-blend-mode:lighten">
			<path d="M307.993 189.481L294.35 181.613C293.1 180.796 292.061 179.696 291.315 178.404C290.569 177.111 290.137 175.661 290.055 174.171V170.93C289.98 169.551 289.58 168.208 288.889 167.012C288.197 165.816 287.233 164.8 286.074 164.046L283.211 162.392L283.547 161.856L286.387 163.487C287.653 164.295 288.71 165.39 289.472 166.684C290.234 167.977 290.679 169.432 290.771 170.93V174.216C290.855 175.596 291.258 176.938 291.949 178.136C292.64 179.335 293.599 180.357 294.752 181.122L308.396 188.967L307.993 189.481Z" fill="#42E8E0"/>
		</g>
		<g style="mix-blend-mode:lighten">
			<path d="M313.384 186.419L299.74 178.551C298.488 177.737 297.447 176.638 296.7 175.344C295.954 174.051 295.524 172.6 295.446 171.109V167.823C295.359 166.447 294.954 165.109 294.263 163.915C293.572 162.721 292.614 161.702 291.464 160.94L288.624 159.286L288.937 158.749L291.778 160.403C293.027 161.216 294.066 162.311 294.812 163.6C295.558 164.89 295.99 166.336 296.072 167.823V171.109C296.156 172.489 296.559 173.831 297.25 175.03C297.941 176.228 298.9 177.25 300.053 178.015L313.697 185.882L313.384 186.419Z" fill="#42E8E0"/>
		</g>
		<g style="mix-blend-mode:lighten">
			<path d="M318.685 183.379L305.041 175.512C303.791 174.694 302.752 173.595 302.006 172.302C301.26 171.009 300.829 169.559 300.747 168.069V164.784C300.663 163.403 300.26 162.061 299.569 160.863C298.878 159.664 297.918 158.643 296.765 157.878L293.925 156.246L294.238 155.687L297.078 157.341C298.33 158.156 299.372 159.255 300.118 160.548C300.864 161.842 301.294 163.293 301.373 164.784V168.069C301.448 169.449 301.848 170.791 302.539 171.987C303.231 173.183 304.195 174.199 305.354 174.953L318.998 182.82L318.685 183.379Z" fill="#42E8E0"/>
		</g>
		<g style="mix-blend-mode:lighten">
			<path d="M323.985 180.317L310.342 172.45C309.09 171.635 308.048 170.536 307.302 169.243C306.556 167.949 306.126 166.498 306.047 165.007V161.722C305.972 160.342 305.573 159 304.881 157.804C304.189 156.608 303.225 155.592 302.066 154.838L299.226 153.184L299.539 152.648L302.379 154.279C303.627 155.098 304.666 156.198 305.412 157.49C306.158 158.783 306.59 160.232 306.674 161.722V165.007C306.758 166.388 307.161 167.73 307.852 168.928C308.542 170.127 309.502 171.148 310.655 171.913L324.299 179.781L323.985 180.317Z" fill="#42E8E0"/>
		</g>
		<g style="mix-blend-mode:lighten">
			<path d="M329.286 177.255L315.643 169.41C314.397 168.593 313.361 167.497 312.615 166.209C311.869 164.92 311.436 163.476 311.348 161.99V158.704C311.264 157.324 310.861 155.982 310.17 154.783C309.48 153.585 308.52 152.563 307.367 151.798L304.526 150.167L304.84 149.608L307.68 151.262C308.932 152.077 309.974 153.175 310.72 154.469C311.466 155.762 311.896 157.213 311.975 158.704V161.99C312.052 163.371 312.455 164.715 313.151 165.911C313.847 167.107 314.815 168.122 315.978 168.874L329.6 176.741L329.286 177.255Z" fill="#42E8E0"/>
		</g>
		<g style="mix-blend-mode:lighten">
			<path d="M334.587 174.215L320.944 166.348C319.694 165.531 318.655 164.431 317.909 163.139C317.163 161.846 316.731 160.396 316.649 158.906V155.62C316.565 154.24 316.162 152.898 315.471 151.699C314.781 150.501 313.821 149.479 312.668 148.714L309.827 147.083L310.14 146.546L312.981 148.178C314.233 148.994 315.276 150.093 316.026 151.385C316.776 152.678 317.212 154.129 317.298 155.62V158.906C317.369 160.286 317.768 161.63 318.46 162.826C319.152 164.023 320.118 165.038 321.279 165.789L334.9 173.657L334.587 174.215Z" fill="#42E8E0"/>
		</g>
		<g style="mix-blend-mode:lighten">
			<path d="M339.888 171.153L326.267 163.286C325.012 162.473 323.967 161.374 323.217 160.081C322.467 158.788 322.033 157.336 321.95 155.844V152.558C321.863 151.182 321.458 149.844 320.767 148.65C320.077 147.456 319.119 146.437 317.969 145.674L315.128 144.021L315.441 143.484L318.282 145.116C319.533 145.933 320.575 147.032 321.325 148.325C322.074 149.617 322.511 151.067 322.599 152.558V155.844C322.669 157.227 323.066 158.575 323.758 159.775C324.45 160.976 325.417 161.995 326.58 162.75L340.201 170.617L339.888 171.153Z" fill="#42E8E0"/>
		</g>
		<g style="mix-blend-mode:lighten">
			<path d="M345.189 168.114L331.568 160.247C330.315 159.43 329.272 158.332 328.523 157.039C327.773 155.746 327.337 154.296 327.251 152.804V149.519C327.181 148.135 326.784 146.787 326.092 145.587C325.4 144.386 324.433 143.367 323.27 142.612L320.429 140.981L320.742 140.422L323.583 142.076C324.838 142.89 325.883 143.988 326.633 145.281C327.383 146.574 327.817 148.026 327.9 149.519V152.804C327.975 154.183 328.374 155.526 329.066 156.722C329.758 157.918 330.722 158.934 331.881 159.688L345.502 167.555L345.189 168.114Z" fill="#42E8E0"/>
		</g>
		<g style="mix-blend-mode:lighten">
			<path d="M350.49 165.052L336.869 157.185C335.614 156.371 334.569 155.273 333.819 153.98C333.069 152.687 332.635 151.235 332.552 149.742V146.457C332.47 145.088 332.067 143.758 331.375 142.574C330.684 141.389 329.723 140.384 328.571 139.64L325.73 137.986L326.043 137.45L328.884 139.081C330.136 139.898 331.179 140.996 331.929 142.289C332.679 143.582 333.114 145.032 333.201 146.524V149.809C333.284 151.19 333.688 152.532 334.378 153.73C335.069 154.929 336.029 155.95 337.182 156.715L350.803 164.583L350.49 165.052Z" fill="#42E8E0"/>
		</g>
		<g style="mix-blend-mode:lighten">
			<path d="M136.307 258.363L135.994 257.804L210.408 214.646C211.566 213.893 212.531 212.877 213.222 211.68C213.914 210.484 214.314 209.142 214.389 207.763V204.455C214.467 202.964 214.897 201.513 215.644 200.219C216.39 198.926 217.431 197.827 218.683 197.012L221.524 195.358L221.837 195.917L218.996 197.549C217.843 198.314 216.884 199.336 216.193 200.534C215.502 201.732 215.099 203.074 215.015 204.455V207.74C214.933 209.23 214.502 210.68 213.756 211.973C213.01 213.266 211.97 214.365 210.721 215.183L136.307 258.363Z" fill="#42E8E0"/>
		</g>
		<g style="mix-blend-mode:lighten">
			<path d="M131.006 255.301L130.693 254.765L205.107 211.607C206.26 210.842 207.219 209.82 207.91 208.622C208.601 207.423 209.004 206.081 209.088 204.701V201.415C209.17 199.925 209.601 198.475 210.347 197.183C211.093 195.89 212.133 194.79 213.382 193.973L216.223 192.341L216.536 192.878L213.696 194.532C212.537 195.285 211.573 196.302 210.881 197.498C210.189 198.694 209.789 200.036 209.714 201.415V204.701C209.636 206.192 209.206 207.643 208.46 208.936C207.713 210.23 206.672 211.329 205.42 212.143L131.006 255.301Z" fill="#42E8E0"/>
		</g>
		<g style="mix-blend-mode:lighten">
			<path d="M125.705 252.239L125.392 251.703L199.806 208.545C200.956 207.782 201.914 206.764 202.604 205.57C203.295 204.375 203.7 203.038 203.787 201.661V198.376C203.866 196.885 204.296 195.434 205.042 194.14C205.788 192.847 206.83 191.748 208.081 190.933L210.922 189.279L211.235 189.838L208.395 191.47C207.242 192.235 206.282 193.256 205.591 194.455C204.9 195.653 204.497 196.995 204.413 198.376V201.661C204.33 203.151 203.897 204.6 203.152 205.893C202.406 207.185 201.367 208.285 200.119 209.104L125.705 252.239Z" fill="#42E8E0"/>
		</g>
		<g style="mix-blend-mode:lighten">
			<path d="M120.404 249.155L120.091 248.596L194.482 205.438C195.646 204.689 196.616 203.674 197.312 202.477C198.008 201.281 198.41 199.936 198.486 198.555V195.269C198.568 193.779 199 192.329 199.745 191.036C200.491 189.744 201.531 188.644 202.78 187.827L205.621 186.195L205.934 186.731L203.094 188.363C201.941 189.128 200.981 190.15 200.29 191.348C199.599 192.547 199.196 193.889 199.112 195.269V198.555C199.03 200.045 198.599 201.495 197.853 202.787C197.107 204.08 196.067 205.18 194.818 205.997L120.404 249.155Z" fill="#42E8E0"/>
		</g>
		<g style="mix-blend-mode:lighten">
			<path d="M115.103 246.138L114.79 245.601L189.182 202.443C190.346 201.689 191.316 200.67 192.011 199.47C192.707 198.27 193.109 196.922 193.185 195.537V192.252C193.269 190.762 193.701 189.313 194.447 188.02C195.193 186.728 196.231 185.628 197.48 184.809L200.32 183.178L200.633 183.714L197.793 185.368C196.643 186.131 195.685 187.149 194.994 188.343C194.303 189.538 193.899 190.875 193.811 192.252V195.515C193.733 197.006 193.303 198.457 192.557 199.75C191.811 201.044 190.769 202.143 189.517 202.958L115.103 246.138Z" fill="#42E8E0"/>
		</g>
		<g style="mix-blend-mode:lighten">
			<path d="M109.802 243.098L109.489 242.539L183.881 199.381C185.042 198.63 186.008 197.615 186.7 196.418C187.392 195.222 187.79 193.878 187.862 192.498V189.212C187.945 187.72 188.379 186.268 189.129 184.975C189.879 183.681 190.924 182.583 192.179 181.77L195.019 180.116L195.332 180.674L192.492 182.306C191.339 183.071 190.379 184.093 189.688 185.291C188.998 186.49 188.594 187.832 188.511 189.212V192.498C188.423 193.989 187.986 195.439 187.237 196.731C186.487 198.024 185.445 199.123 184.194 199.94L109.802 243.098Z" fill="#42E8E0"/>
		</g>
		<g style="mix-blend-mode:lighten">
			<path d="M104.457 240.036L104.144 239.477L178.535 196.342C179.688 195.577 180.648 194.555 181.338 193.357C182.029 192.158 182.432 190.816 182.516 189.436V186.15C182.603 184.659 183.038 183.208 183.788 181.915C184.538 180.623 185.581 179.524 186.833 178.708L189.674 177.076L189.987 177.613L187.146 179.266C185.988 180.02 185.023 181.036 184.331 182.232C183.64 183.429 183.24 184.771 183.165 186.15V189.436C183.082 190.928 182.648 192.38 181.898 193.673C181.148 194.967 180.103 196.065 178.848 196.878L104.457 240.036Z" fill="#42E8E0"/>
		</g>
		<g style="mix-blend-mode:lighten">
			<path d="M99.2005 236.974L98.8873 236.438L173.279 193.28C174.429 192.517 175.387 191.499 176.078 190.305C176.768 189.11 177.173 187.773 177.26 186.396V183.111C177.343 181.618 177.777 180.166 178.527 178.873C179.277 177.58 180.322 176.482 181.577 175.668L184.418 174.014L184.731 174.573L181.89 176.204C180.727 176.959 179.76 177.978 179.068 179.179C178.376 180.379 177.979 181.727 177.909 183.111V186.396C177.823 187.885 177.387 189.332 176.637 190.621C175.887 191.91 174.844 193.005 173.592 193.816L99.2005 236.974Z" fill="#42E8E0"/>
		</g>
		<g style="mix-blend-mode:lighten">
			<path d="M93.8996 233.935L93.5865 233.376L167.978 190.218C169.137 189.464 170.101 188.448 170.793 187.252C171.485 186.056 171.884 184.714 171.959 183.334V180.049C172.041 178.559 172.473 177.109 173.219 175.816C173.965 174.523 175.004 173.424 176.254 172.606L179.117 170.952L179.43 171.511L176.589 173.142C175.429 173.9 174.464 174.92 173.772 176.12C173.08 177.32 172.681 178.666 172.608 180.049V183.334C172.522 184.826 172.086 186.276 171.336 187.569C170.587 188.862 169.544 189.96 168.291 190.777L93.8996 233.935Z" fill="#42E8E0"/>
		</g>
		<g style="mix-blend-mode:lighten">
			<path d="M88.5987 230.873L88.2856 230.336L162.61 187.179C163.763 186.414 164.723 185.392 165.413 184.193C166.104 182.995 166.507 181.653 166.591 180.272V176.987C166.675 175.497 167.107 174.048 167.853 172.756C168.599 171.463 169.638 170.363 170.886 169.544L173.749 167.913L174.062 168.449L171.221 170.103C170.057 170.853 169.088 171.868 168.392 173.064C167.696 174.261 167.293 175.605 167.218 176.987V180.272C167.139 181.763 166.709 183.214 165.963 184.508C165.217 185.801 164.175 186.9 162.923 187.715L88.5987 230.873Z" fill="#42E8E0"/>
		</g>
		<g style="mix-blend-mode:lighten">
			<path d="M83.2978 227.811L82.9623 227.274L157.376 184.117C158.526 183.354 159.484 182.335 160.175 181.141C160.865 179.947 161.27 178.609 161.357 177.233V173.947C161.436 172.456 161.866 171.005 162.612 169.712C163.358 168.418 164.4 167.32 165.652 166.505L168.515 164.851L168.828 165.41L165.965 167.041C164.812 167.806 163.852 168.828 163.162 170.026C162.471 171.225 162.068 172.567 161.984 173.947V177.233C161.9 178.722 161.468 180.172 160.722 181.464C159.976 182.757 158.938 183.856 157.689 184.675L83.2978 227.811Z" fill="#42E8E0"/>
		</g>
		<g style="mix-blend-mode:lighten">
			<path d="M77.9969 224.771L77.6614 224.212L152.075 181.077C153.228 180.312 154.188 179.29 154.879 178.092C155.57 176.893 155.973 175.551 156.057 174.171V170.93C156.139 169.44 156.57 167.99 157.316 166.697C158.062 165.404 159.102 164.305 160.351 163.487L163.214 161.856L163.527 162.392L160.664 164.046C159.506 164.8 158.541 165.816 157.849 167.012C157.158 168.208 156.758 169.551 156.683 170.93V174.216C156.601 175.706 156.169 177.155 155.423 178.448C154.677 179.741 153.638 180.841 152.388 181.658L77.9969 224.771Z" fill="#42E8E0"/>
		</g>
		<g style="mix-blend-mode:lighten">
			<path d="M72.696 221.709L72.3605 221.173L146.774 178.015C147.927 177.25 148.887 176.228 149.578 175.03C150.269 173.831 150.672 172.489 150.756 171.109V167.823C150.838 166.336 151.269 164.89 152.015 163.6C152.761 162.311 153.801 161.216 155.05 160.403L157.913 158.749L158.226 159.286L155.363 160.94C154.213 161.702 153.255 162.721 152.565 163.915C151.874 165.109 151.469 166.447 151.382 167.823V171.109C151.303 172.6 150.874 174.051 150.127 175.344C149.381 176.638 148.339 177.737 147.088 178.551L72.696 221.709Z" fill="#42E8E0"/>
		</g>
		<g style="mix-blend-mode:lighten">
			<path d="M67.3727 218.67L67.0596 218.111L141.473 174.953C142.632 174.199 143.596 173.183 144.288 171.987C144.98 170.791 145.38 169.449 145.455 168.069V164.784C145.533 163.293 145.963 161.842 146.709 160.548C147.456 159.255 148.497 158.156 149.749 157.341L152.59 155.687L152.925 156.246L150.062 157.878C148.909 158.643 147.95 159.664 147.259 160.863C146.568 162.061 146.165 163.403 146.081 164.784V168.069C145.999 169.559 145.568 171.009 144.822 172.302C144.076 173.595 143.036 174.694 141.787 175.512L67.3727 218.67Z" fill="#42E8E0"/>
		</g>
		<g style="mix-blend-mode:lighten">
			<path d="M62.0718 215.63L61.7587 215.094L136.173 171.936C137.326 171.171 138.285 170.149 138.976 168.95C139.667 167.752 140.07 166.41 140.154 165.029V161.744C140.238 160.254 140.67 158.805 141.416 157.513C142.161 156.22 143.2 155.12 144.448 154.301L147.289 152.67L147.602 153.206L144.761 154.86C143.603 155.614 142.638 156.63 141.947 157.826C141.255 159.022 140.855 160.365 140.78 161.744V165.029C140.702 166.52 140.272 167.972 139.525 169.265C138.779 170.558 137.738 171.657 136.486 172.472L62.0718 215.63Z" fill="#42E8E0"/>
		</g>
		<g style="mix-blend-mode:lighten">
			<path d="M56.7709 212.546L56.4578 212.009L130.872 168.851C132.022 168.089 132.98 167.07 133.67 165.876C134.361 164.682 134.766 163.344 134.853 161.968V158.682C134.931 157.191 135.361 155.74 136.108 154.447C136.854 153.153 137.895 152.054 139.147 151.24L141.988 149.586L142.301 150.144L139.46 151.776C138.307 152.541 137.348 153.563 136.657 154.761C135.966 155.96 135.563 157.302 135.479 158.682V161.99C135.395 163.48 134.963 164.929 134.217 166.221C133.472 167.514 132.433 168.614 131.185 169.433L56.7709 212.546Z" fill="#42E8E0"/>
		</g>
		<g style="mix-blend-mode:lighten">
			<path d="M51.47 209.506L51.1569 208.947L125.571 165.789C126.729 165.036 127.694 164.02 128.386 162.823C129.077 161.627 129.477 160.285 129.552 158.906V155.62C129.634 154.13 130.065 152.68 130.811 151.387C131.557 150.095 132.597 148.995 133.846 148.178L136.687 146.546L137 147.083L134.16 148.714C133.007 149.479 132.047 150.501 131.356 151.699C130.665 152.898 130.262 154.24 130.178 155.62V158.906C130.096 160.396 129.665 161.846 128.919 163.138C128.173 164.431 127.133 165.531 125.884 166.348L51.47 209.506Z" fill="#42E8E0"/>
		</g>
		<g style="mix-blend-mode:lighten">
			<path d="M46.1691 206.444L45.856 205.908L120.247 162.75C121.412 161.995 122.382 160.976 123.077 159.776C123.773 158.576 124.175 157.229 124.251 155.844V152.558C124.335 151.069 124.767 149.619 125.513 148.327C126.259 147.034 127.297 145.934 128.546 145.116L131.386 143.484L131.699 144.021L128.859 145.674C127.709 146.437 126.751 147.456 126.06 148.65C125.369 149.844 124.965 151.182 124.877 152.558V155.844C124.799 157.335 124.369 158.786 123.623 160.079C122.876 161.373 121.835 162.471 120.583 163.286L46.1691 206.444Z" fill="#42E8E0"/>
		</g>
		<g style="mix-blend-mode:lighten">
			<path d="M40.8683 203.382L40.5551 202.846L114.947 159.755C116.108 159.004 117.074 157.988 117.766 156.792C118.458 155.595 118.856 154.251 118.928 152.871V149.586C119.011 148.093 119.445 146.641 120.195 145.348C120.945 144.055 121.99 142.957 123.245 142.143L126.085 140.489L126.398 141.048L123.558 142.68C122.405 143.445 121.445 144.466 120.754 145.665C120.064 146.863 119.66 148.205 119.577 149.586V152.871C119.495 154.361 119.063 155.811 118.317 157.104C117.571 158.397 116.532 159.496 115.282 160.314L40.8683 203.382Z" fill="#42E8E0"/>
		</g>
		<g style="mix-blend-mode:lighten">
			<path d="M35.5673 200.342L35.2542 199.784L109.646 156.648C110.809 155.894 111.776 154.874 112.468 153.674C113.16 152.473 113.557 151.126 113.627 149.742V146.457C113.713 144.965 114.149 143.514 114.899 142.222C115.648 140.929 116.691 139.83 117.944 139.014L120.784 137.383L121.097 137.919L118.257 139.573C117.098 140.327 116.134 141.343 115.442 142.539C114.75 143.735 114.351 145.077 114.276 146.457V149.742C114.193 151.235 113.759 152.686 113.009 153.98C112.259 155.273 111.214 156.371 109.959 157.185L35.5673 200.342Z" fill="#42E8E0"/>
		</g>
	</g>
	<g opacity="0.1">
		<path opacity="0.1" d="M281.712 323.446L265.653 314.193V332.699L281.712 341.974L297.772 332.699V314.193L281.712 323.446Z" fill="#42E8E0"/>
		<path opacity="0.1" d="M281.712 341.974L265.653 332.699V314.193L281.712 323.446V341.974Z" fill="#42E8E0"/>
		<path opacity="0.1" d="M297.772 332.699L281.712 341.974V323.446L297.772 314.193V332.699Z" fill="#2FD3C7"/>
		<path opacity="0.1" d="M281.712 323.446L265.653 314.193L281.712 304.918L297.772 314.193L281.712 323.446Z" fill="#42E8E0"/>
		<path opacity="0.1" d="M281.712 323.446L265.653 314.193V314.998L281.712 324.251L297.772 314.998V314.193L281.712 323.446Z" fill="white"/>
	</g>
	<path opacity="0.2" d="M281.712 312.227L265.653 302.951L281.712 293.698L297.772 302.951L281.712 312.227Z" fill="#03002D"/>
	<path d="M281.712 279.663L265.653 270.387V288.916L281.712 298.191L297.772 288.916V270.387L281.712 279.663Z" fill="#42E8E0"/>
	<path d="M281.712 298.191L265.653 288.916V270.387L281.712 279.663V298.191Z" fill="#42E8E0"/>
	<path d="M297.772 288.916L281.712 298.191V279.663L297.772 270.387V288.916Z" fill="#2FD3C7"/>
	<path d="M281.712 279.663L265.653 270.387L281.712 261.135L297.772 270.387L281.712 279.663Z" fill="#42E8E0"/>
	<path d="M281.712 279.663L265.653 270.387V271.214L281.712 280.467L297.772 271.214V270.387L281.712 279.663Z" fill="white"/>
	<g opacity="0.1">
		<path opacity="0.1" d="M46.0126 322.038L29.9533 312.786V331.314L46.0126 340.567L62.0719 331.314V312.786L46.0126 322.038Z" fill="#42E8E0"/>
		<path opacity="0.1" d="M46.0125 340.567L29.9533 331.314V312.786L46.0125 322.038V340.567Z" fill="#42E8E0"/>
		<path opacity="0.1" d="M62.0719 331.314L46.0125 340.567V322.038L62.0719 312.786V331.314Z" fill="#2FD3C7"/>
		<path opacity="0.1" d="M46.0126 322.038L29.9533 312.785L46.0126 303.51L62.0719 312.785L46.0126 322.038Z" fill="#42E8E0"/>
		<path opacity="0.1" d="M46.0126 322.039L29.9533 312.786V313.59L46.0126 322.843L62.0719 313.59V312.786L46.0126 322.039Z" fill="white"/>
	</g>
	<path opacity="0.2" d="M46.0126 310.819L29.9533 301.543L46.0126 292.291L62.0719 301.543L46.0126 310.819Z" fill="#03002D"/>
	<path d="M46.0126 278.255L29.9533 269.002V287.53L46.0126 296.783L62.0719 287.53V269.002L46.0126 278.255Z" fill="#42E8E0"/>
	<path d="M46.0125 296.783L29.9533 287.53V269.002L46.0125 278.255V296.783Z" fill="#42E8E0"/>
	<path d="M62.0719 287.53L46.0125 296.783V278.255L62.0719 269.002V287.53Z" fill="#2FD3C7"/>
	<path d="M46.0126 278.255L29.9533 269.002L46.0126 259.727L62.0719 269.002L46.0126 278.255Z" fill="#42E8E0"/>
	<path d="M46.0126 278.255L29.9533 269.002V269.807L46.0126 279.059L62.0719 269.807V269.002L46.0126 278.255Z" fill="white"/>
	<g opacity="0.1">
		<path opacity="0.1" d="M16.1307 145.831L0.0714417 136.578V155.084L16.1307 164.359L32.19 155.084V136.578L16.1307 145.831Z" fill="#42E8E0"/>
		<path opacity="0.1" d="M16.1307 164.359L0.0714417 155.084V136.578L16.1307 145.831V164.359Z" fill="#42E8E0"/>
		<path opacity="0.1" d="M32.19 155.084L16.1307 164.359V145.831L32.19 136.578V155.084Z" fill="#2FD3C7"/>
		<path opacity="0.1" d="M16.1307 145.831L0.0714417 136.578L16.1307 127.303L32.19 136.578L16.1307 145.831Z" fill="#42E8E0"/>
		<path opacity="0.1" d="M16.1307 145.831L0.0714417 136.578V137.383L16.1307 146.636L32.19 137.383V136.578L16.1307 145.831Z" fill="white"/>
	</g>
	<path opacity="0.2" d="M16.1307 134.611L0.0714417 125.336L16.1307 116.083L32.19 125.336L16.1307 134.611Z" fill="#03002D"/>
	<path d="M16.1307 102.047L0.0714417 92.772V111.3L16.1307 120.575L32.19 111.3V92.772L16.1307 102.047Z" fill="#42E8E0"/>
	<path d="M16.1307 120.575L0.0714417 111.3V92.772L16.1307 102.047V120.575Z" fill="#42E8E0"/>
	<path d="M32.19 111.3L16.1307 120.575V102.047L32.19 92.772V111.3Z" fill="#2FD3C7"/>
	<path d="M16.1307 102.047L0.0714417 92.7722L16.1307 83.5193L32.19 92.7722L16.1307 102.047Z" fill="#42E8E0"/>
	<path d="M16.1307 102.047L0.0714417 92.772V93.5766L16.1307 102.852L32.19 93.5766V92.772L16.1307 102.047Z" fill="white"/>
	<path opacity="0.4" d="M243.443 187.692L132.862 123.995C129.999 122.341 130.357 119.525 133.668 117.558L198.173 80.3454C199.869 79.3941 201.765 78.8559 203.708 78.7743C205.652 78.6928 207.587 79.0702 209.356 79.8761L319.937 143.663C322.778 145.317 322.42 148.133 319.132 150.1L254.627 187.312C252.922 188.245 251.022 188.764 249.08 188.83C247.138 188.896 245.207 188.507 243.443 187.692Z" fill="#24126A"/>
	<path d="M349.237 93.979L347.403 93.7331C347.196 93.5788 346.979 93.437 346.755 93.3085L204.413 11.1945C202.143 10.1653 199.663 9.68367 197.173 9.78849C194.682 9.89332 192.251 10.5817 190.076 11.798L107.029 59.694C106.045 60.2617 105.185 61.0219 104.501 61.929L103.517 61.6385V64.5217C103.574 65.2822 103.834 66.0135 104.271 66.6388C104.708 67.2641 105.305 67.7603 106 68.0753L248.341 150.212C250.611 151.241 253.092 151.722 255.582 151.618C258.072 151.513 260.503 150.824 262.678 149.608L345.726 101.645C346.687 101.231 347.52 100.566 348.138 99.7213C348.756 98.8762 349.135 97.8812 349.237 96.8398V93.979Z" fill="#9FFFF8"/>
	<path d="M248.341 147.217L106 65.1028C102.309 62.8678 102.779 59.2695 107.029 56.811L190.076 8.91491C192.251 7.69859 194.682 7.01026 197.173 6.90544C199.663 6.80061 202.143 7.28226 204.413 8.31149L346.755 90.4701C350.423 92.7051 349.976 96.3034 345.726 98.7619L262.678 146.658C260.5 147.867 258.067 148.548 255.577 148.645C253.086 148.742 250.608 148.253 248.341 147.217Z" fill="#42E8E0"/>
	<path d="M248.341 147.217L106 65.1028C102.309 62.8678 102.779 59.2695 107.029 56.811L190.076 8.91491C192.251 7.69859 194.682 7.01026 197.173 6.90544C199.663 6.80061 202.143 7.28226 204.413 8.31149L346.755 90.4701C350.423 92.7051 349.976 96.3034 345.726 98.7619L262.678 146.658C260.5 147.867 258.067 148.548 255.577 148.645C253.086 148.742 250.608 148.253 248.341 147.217Z" fill="url(#paint9_radial)"/>
	<path opacity="0.7" d="M271.312 141.651L115.64 51.8491L132.169 42.3057L287.841 132.108L271.312 141.651Z" fill="#453C9E"/>
	<path opacity="0.7" d="M268.852 102.047L221.993 75.0262L233.423 68.4106L280.303 95.4541L268.852 102.047Z" fill="white"/>
	<path d="M84.5727 61.0798C100.229 57.1909 116.378 41.5235 120.807 26.0797C123.043 18.3466 121.836 12.1332 118.167 8.35609L114.298 4.4225L114.522 5.78585C110.076 3.99204 105.149 3.77899 100.565 5.18239C84.9082 9.07129 68.7595 24.761 64.3533 40.1825C62.9052 44.5354 62.9052 49.2396 64.3533 53.5925L63.1007 53.7937L67.0149 57.7943L67.1715 57.9731C70.9067 61.7056 76.9009 63.0019 84.5727 61.0798Z" fill="#9FFFF8"/>
	<path d="M102.969 43.9819C117.114 30.3128 122.177 12.614 114.277 4.45063C106.377 -3.71274 88.505 0.750567 74.3594 14.4197C60.2138 28.0889 55.1509 45.7876 63.0511 53.951C70.9513 62.1144 88.8229 57.6511 102.969 43.9819Z" fill="#42E8E0"/>
	<path d="M75.6484 55.0231C73.8322 55.1139 72.0169 54.8293 70.3158 54.187C68.6148 53.5448 67.0646 52.5588 65.7623 51.2906C62.2731 47.7146 61.4232 42.0154 63.3691 35.288C67.2833 21.5427 81.7769 7.55163 95.6666 3.99798C102.377 2.29938 108.125 3.34982 111.592 6.92582C115.058 10.5018 115.908 16.2011 113.985 22.9508C110.048 36.696 95.5547 50.6872 81.6874 54.2408C79.7142 54.7482 77.6859 55.0109 75.6484 55.0231ZM101.683 3.99798C99.7119 4.01002 97.7502 4.2729 95.8455 4.78024C82.1794 8.17744 67.9319 21.9674 64.0401 35.4891C62.206 41.9707 62.9888 47.4017 66.2767 50.7989C69.5646 54.1961 74.9774 55.1572 81.5085 53.5256C95.1745 50.1061 109.422 36.3385 113.291 22.8167C115.148 16.3352 114.365 10.9042 111.055 7.50695C109.814 6.31525 108.343 5.38932 106.731 4.78594C105.12 4.18255 103.402 3.91441 101.683 3.99798Z" fill="#18B2A3"/>
	<g opacity="0.1">
		<path opacity="0.1" d="M363.709 271.505C363.709 255.458 374.892 235.924 388.894 227.9C395.872 223.877 402.179 223.43 406.787 226.157L411.551 228.928L410.164 229.062C412.995 232.942 414.401 237.678 414.146 242.472C414.146 258.542 402.85 278.053 388.938 286.077C385.063 288.579 380.477 289.748 375.876 289.407L375.988 290.681L371.157 287.865L370.978 287.753C366.437 284.915 363.709 279.283 363.709 271.505Z" fill="#9FFFF8"/>
		<path opacity="0.1" d="M411.543 269.926C421.382 252.897 421.379 234.49 411.537 228.812C401.695 223.134 385.741 232.335 375.902 249.364C366.063 266.393 366.065 284.801 375.907 290.479C385.749 296.157 401.704 286.955 411.543 269.926Z" fill="#42E8E0"/>
	</g>
	<path opacity="0.4" d="M392.092 297.588C374.713 297.588 357.334 293.766 344.093 286.144C331.232 278.724 324.142 268.845 324.142 258.319C324.142 247.792 331.232 237.891 344.093 230.471C370.553 215.205 413.609 215.205 440.091 230.471C452.952 237.891 460.042 247.792 460.042 258.319C460.042 268.845 452.952 278.724 440.091 286.144C426.85 293.855 409.471 297.588 392.092 297.588ZM392.092 219.519C374.803 219.519 357.513 223.318 344.339 230.917C331.635 238.248 324.634 247.971 324.634 258.319C324.634 268.667 331.635 278.434 344.339 285.72C370.665 300.895 413.497 300.895 439.823 285.72C452.549 278.389 459.528 268.644 459.528 258.319C459.528 247.993 452.549 238.204 439.823 230.917C426.671 223.318 409.381 219.519 392.092 219.519Z" fill="#42E8E0"/>
	<path opacity="0.2" d="M392.092 308.114C370.038 308.114 347.985 303.287 331.188 293.587C314.86 284.177 305.891 271.639 305.891 258.318C305.891 244.998 314.838 232.437 331.188 223.028C364.738 203.65 419.402 203.65 452.996 223.028C469.302 232.437 478.293 244.975 478.293 258.318C478.293 271.661 469.346 284.177 452.996 293.587C436.199 303.287 414.146 308.114 392.092 308.114ZM392.092 208.992C370.128 208.992 348.164 213.82 331.434 223.452C315.285 232.772 306.383 245.154 306.383 258.318C306.383 271.483 315.33 283.842 331.434 293.162C364.872 312.45 419.29 312.45 452.75 293.162C468.899 283.842 477.801 271.46 477.801 258.318C477.801 245.177 468.854 232.772 452.75 223.452C436.02 213.82 414.056 208.925 392.092 208.925V208.992Z" fill="#42E8E0"/>
	<path d="M392.092 289.385C378.381 289.385 364.693 286.39 354.27 280.445C343.847 274.5 338.613 266.789 338.613 258.497C338.613 250.205 344.205 242.383 354.27 236.527C375.116 224.503 409.068 224.503 429.914 236.527C440.069 242.383 445.571 250.183 445.571 258.497C445.571 266.811 439.979 274.589 429.914 280.445C419.849 286.3 405.78 289.385 392.092 289.385ZM392.092 227.9C378.471 227.9 364.872 230.895 354.516 236.84C344.518 242.606 339.016 250.25 339.016 258.385C339.016 266.521 344.518 274.03 354.516 279.908C375.227 291.866 408.934 291.866 429.668 279.908C439.644 274.142 445.146 266.498 445.146 258.385C445.146 250.272 439.644 242.606 429.668 236.84C419.312 230.805 405.691 227.811 392.092 227.811V227.9Z" fill="#42E8E0"/>
	<path d="M363.709 271.505C363.709 255.458 374.892 235.924 388.894 227.9C395.872 223.877 402.179 223.43 406.787 226.157L411.551 228.928L410.164 229.062C412.995 232.942 414.401 237.678 414.146 242.472C414.146 258.542 402.85 278.053 388.938 286.077C385.063 288.579 380.477 289.748 375.876 289.407L375.988 290.681L371.157 287.865L370.978 287.753C366.437 284.915 363.709 279.283 363.709 271.505Z" fill="#9FFFF8"/>
	<path d="M411.543 269.926C421.382 252.897 421.379 234.49 411.537 228.812C401.695 223.134 385.741 232.335 375.902 249.364C366.063 266.393 366.065 284.801 375.907 290.479C385.749 296.157 401.704 286.955 411.543 269.926Z" fill="#42E8E0"/>
	<path d="M383.593 289.385C381.454 289.417 379.346 288.877 377.487 287.82C373.013 285.273 370.665 279.953 370.665 272.824C370.665 258.274 380.931 240.528 393.546 233.242C399.719 229.688 405.534 229.129 409.941 231.655C414.347 234.18 416.763 239.522 416.763 246.652C416.763 261.202 406.496 278.947 393.904 286.234C390.8 288.163 387.246 289.249 383.593 289.385ZM403.857 230.806C400.328 230.936 396.895 231.992 393.904 233.868C381.49 241.042 371.38 258.453 371.38 272.824C371.38 279.685 373.617 284.781 377.844 287.195C382.072 289.608 387.596 289.05 393.501 285.608C405.892 278.456 416.002 261.023 416.002 246.652C416.002 239.79 413.765 234.694 409.538 232.281C407.814 231.275 405.854 230.743 403.857 230.739V230.806Z" fill="#18B2A3"/>
	<defs>
		<linearGradient id="paint0_linear" x1="9.71149" y1="166.46" x2="443.468" y2="166.46" gradientUnits="userSpaceOnUse">
			<stop stop-color="#BCBEFF"/>
			<stop offset="0.15" stop-color="#A3A7F5"/>
			<stop offset="0.39" stop-color="#8289E8"/>
			<stop offset="0.61" stop-color="#6A73DF"/>
			<stop offset="0.82" stop-color="#5C66D9"/>
			<stop offset="1" stop-color="#5761D7"/>
		</linearGradient>
		<linearGradient id="paint1_linear" x1="139270" y1="64511.2" x2="129179" y2="41331.3" gradientUnits="userSpaceOnUse">
			<stop stop-color="#42E8E0"/>
			<stop offset="0.11" stop-color="#37B6BF"/>
			<stop offset="0.22" stop-color="#2C87A1"/>
			<stop offset="0.34" stop-color="#235F87"/>
			<stop offset="0.46" stop-color="#1C3F72"/>
			<stop offset="0.58" stop-color="#162561"/>
			<stop offset="0.71" stop-color="#121355"/>
			<stop offset="0.85" stop-color="#10084E"/>
			<stop offset="1" stop-color="#0F054C"/>
		</linearGradient>
		<linearGradient id="paint2_linear" x1="67.0372" y1="172.494" x2="335.527" y2="172.494" gradientUnits="userSpaceOnUse">
			<stop stop-color="#706EC4"/>
			<stop offset="0.02" stop-color="#6D6BC2"/>
			<stop offset="0.25" stop-color="#5651AC"/>
			<stop offset="0.49" stop-color="#463F9D"/>
			<stop offset="0.73" stop-color="#3C3494"/>
			<stop offset="1" stop-color="#393091"/>
		</linearGradient>
		<linearGradient id="paint3_linear" x1="143.017" y1="136.243" x2="304.169" y2="136.243" gradientUnits="userSpaceOnUse">
			<stop stop-color="#42E8E0"/>
			<stop offset="0.15" stop-color="#43E3E0"/>
			<stop offset="0.33" stop-color="#45D5DF"/>
			<stop offset="0.52" stop-color="#49BDDD"/>
			<stop offset="0.72" stop-color="#4E9CDB"/>
			<stop offset="0.93" stop-color="#5472D8"/>
			<stop offset="1" stop-color="#5761D7"/>
		</linearGradient>
		<linearGradient id="paint4_linear" x1="42725.8" y1="20275.2" x2="54336.8" y2="20275.2" gradientUnits="userSpaceOnUse">
			<stop stop-color="#42E8E0"/>
			<stop offset="0.15" stop-color="#43E3E0"/>
			<stop offset="0.33" stop-color="#45D5DF"/>
			<stop offset="0.52" stop-color="#49BDDD"/>
			<stop offset="0.72" stop-color="#4E9CDB"/>
			<stop offset="0.93" stop-color="#5472D8"/>
			<stop offset="1" stop-color="#5761D7"/>
		</linearGradient>
		<linearGradient id="paint5_linear" x1="24414.8" y1="12273.2" x2="27316.7" y2="12273.2" gradientUnits="userSpaceOnUse">
			<stop stop-color="#42E8E0"/>
			<stop offset="0.15" stop-color="#43E3E0"/>
			<stop offset="0.33" stop-color="#45D5DF"/>
			<stop offset="0.52" stop-color="#49BDDD"/>
			<stop offset="0.72" stop-color="#4E9CDB"/>
			<stop offset="0.93" stop-color="#5472D8"/>
			<stop offset="1" stop-color="#5761D7"/>
		</linearGradient>
		<linearGradient id="paint6_linear" x1="21437.3" y1="12272.6" x2="24340.9" y2="12272.6" gradientUnits="userSpaceOnUse">
			<stop stop-color="#42E8E0"/>
			<stop offset="0.15" stop-color="#43E3E0"/>
			<stop offset="0.33" stop-color="#45D5DF"/>
			<stop offset="0.52" stop-color="#49BDDD"/>
			<stop offset="0.72" stop-color="#4E9CDB"/>
			<stop offset="0.93" stop-color="#5472D8"/>
			<stop offset="1" stop-color="#5761D7"/>
		</linearGradient>
		<linearGradient id="paint7_linear" x1="24414.8" y1="13530.1" x2="27316.7" y2="13530.1" gradientUnits="userSpaceOnUse">
			<stop stop-color="#42E8E0"/>
			<stop offset="0.15" stop-color="#43E3E0"/>
			<stop offset="0.33" stop-color="#45D5DF"/>
			<stop offset="0.52" stop-color="#49BDDD"/>
			<stop offset="0.72" stop-color="#4E9CDB"/>
			<stop offset="0.93" stop-color="#5472D8"/>
			<stop offset="1" stop-color="#5761D7"/>
		</linearGradient>
		<linearGradient id="paint8_linear" x1="21437.3" y1="13530.1" x2="24340.9" y2="13530.1" gradientUnits="userSpaceOnUse">
			<stop stop-color="#42E8E0"/>
			<stop offset="0.15" stop-color="#43E3E0"/>
			<stop offset="0.33" stop-color="#45D5DF"/>
			<stop offset="0.52" stop-color="#49BDDD"/>
			<stop offset="0.72" stop-color="#4E9CDB"/>
			<stop offset="0.93" stop-color="#5472D8"/>
			<stop offset="1" stop-color="#5761D7"/>
		</linearGradient>
		<radialGradient id="paint9_radial" cx="0" cy="0" r="1" gradientUnits="userSpaceOnUse" gradientTransform="translate(179.788 6.72463) scale(268.445 268.245)">
			<stop stop-color="#15A0FF"/>
			<stop offset="0.09" stop-color="#368CEE"/>
			<stop offset="0.28" stop-color="#7368D0"/>
			<stop offset="0.45" stop-color="#A54BB7"/>
			<stop offset="0.62" stop-color="#CC33A4"/>
			<stop offset="0.77" stop-color="#E82396"/>
			<stop offset="0.9" stop-color="#F9198D"/>
			<stop offset="1" stop-color="#FF158A"/>
		</radialGradient>
	</defs>
</svg>
