<svg width="18" height="18" viewBox="0 0 18 18" fill="none" xmlns="http://www.w3.org/2000/svg">
<g clip-path="url(#clip0)">
<path d="M8.59927 17.8461L2.59959 12.4464C2.4724 12.3312 2.4004 12.1704 2.4004 12L2.4004 8.4002C2.4004 8.16382 2.53959 7.94903 2.75558 7.85183C2.97277 7.75584 3.22596 7.79544 3.40115 7.95383L9.00004 12.9924L14.5977 7.95383C14.7741 7.79544 15.0273 7.75464 15.2433 7.85183C15.4605 7.94903 15.5997 8.16382 15.5997 8.4002V12C15.5997 12.1704 15.5265 12.3312 15.4017 12.4464L9.40202 17.8461C9.17404 18.0513 8.82605 18.0513 8.59927 17.8461Z" fill="#42E8E0"/>
<path d="M8.59927 10.0465L2.59959 4.64682C2.4724 4.53163 2.4004 4.37084 2.4004 4.20045L2.4004 0.600642C2.4004 0.364255 2.53959 0.149467 2.75558 0.0522719C2.97277 -0.0437229 3.22596 -0.00412505 3.40115 0.154266L9.00004 5.19279L14.5977 0.154266C14.7741 -0.00412505 15.0273 -0.0449228 15.2433 0.0522719C15.4605 0.149467 15.5997 0.364255 15.5997 0.600642V4.20045C15.5997 4.37084 15.5265 4.53163 15.4017 4.64682L9.40202 10.0465C9.17404 10.2517 8.82605 10.2517 8.59927 10.0465Z" fill="#42E8E0"/>
</g>
<defs>
<clipPath id="clip0">
<rect width="18" height="18" fill="white" transform="matrix(0 1 1 0 0 0)"/>
</clipPath>
</defs>
</svg>
