<svg version="1.1" xmlns="http://www.w3.org/2000/svg" xmlns:xlink="http://www.w3.org/1999/xlink" style="enable-background:new 0 0 1200 630;" xml:space="preserve" width="1161" height="394"><rect id="backgroundrect" width="100%" height="100%" x="0" y="0" fill="none" stroke="none" style="" class=""/>
<g class="currentLayer" style="">
	<g>
		<linearGradient id="SVGID_1_" gradientUnits="userSpaceOnUse" x1="1107.361328125" y1="319.2312927246094" x2="993.3499145507812" y2="160.21539306640625" gradientTransform="translate(0, -118.172) translate(-19.625)">
			<stop offset="0" style="stop-color:#00FBFB"/>
			<stop offset="0.9957" style="stop-color:#0146FF"/>
		</linearGradient>
		<path style="fill:url(#SVGID_1_);" d="M1072.89404296875,146.14511108398438 c-13.821999549865723,-3.634000062942505 -27.974000930786133,4.625999927520752 -31.607999801635742,18.44700050354004 c-3.634000062942505,13.814000129699707 4.618000030517578,27.965999603271484 18.43899917602539,31.600000381469727 c13.821000099182129,3.634000062942505 27.965999603271484,-4.618000030517578 31.607999801635742,-18.43199920654297 C1094.967041015625,163.93911743164062 1086.70703125,149.78713989257812 1072.89404296875,146.14511108398438 " id="svg_5" opacity="1" filter=""/>
		<linearGradient id="SVGID_2_" gradientUnits="userSpaceOnUse" x1="1108.042236328125" y1="318.74310302734375" x2="994.0308227539062" y2="159.72720336914062" gradientTransform="translate(0, -118.172) translate(-19.625)">
			<stop offset="0" style="stop-color:#00FBFB"/>
			<stop offset="0.9957" style="stop-color:#0146FF"/>
		</linearGradient>
		<path style="fill:url(#SVGID_2_);" d="M1160.010009765625,184.47811889648438 l-94.96600341796875,-177.16299438476562 c-5.168000221252441,-9.63599967956543 -18.927000045776367,-9.78600025177002 -24.29199981689453,-0.2590000033378601 l-86.48500061035156,153.46099853515625 c-7.763999938964844,13.789999961853027 9.895999908447266,27.714000701904297 21.483999252319336,16.937000274658203 c42.89699935913086,-39.85200119018555 100.55899810791016,-78.27300262451172 174.5279998779297,14.765000343322754 C1154.6529541015625,197.72613525390625 1163.3299560546875,190.6771240234375 1160.010009765625,184.47811889648438 " id="svg_6" opacity="1" filter=""/>
		<linearGradient id="SVGID_3_" gradientUnits="userSpaceOnUse" x1="1061.348876953125" y1="477.5798034667969" x2="1061.348876953125" y2="317.2029113769531" gradientTransform="translate(0, -118.172) translate(-19.625)">
			<stop offset="0.0019" style="stop-color:#3D01E7"/>
			<stop offset="1" style="stop-color:#D3ACFE"/>
		</linearGradient>
		<path style="fill:url(#SVGID_3_);" d="M1035.1400146484375,247.51113891601562 c13.821999549865723,3.634999990463257 27.974000930786133,-4.617000102996826 31.607999801635742,-18.43899917602539 c3.634000062942505,-13.821000099182129 -4.618000030517578,-27.965999603271484 -18.43899917602539,-31.607999801635742 c-13.821999549865723,-3.634000062942505 -27.974000930786133,4.625999927520752 -31.607999801635742,18.440000534057617 C1013.0660400390625,229.72512817382812 1021.3179931640625,243.87713623046875 1035.1400146484375,247.51113891601562 " id="svg_7" opacity="1" filter=""/>
		<linearGradient id="SVGID_4_" gradientUnits="userSpaceOnUse" x1="1071.10107421875" y1="477.5798034667969" x2="1071.10107421875" y2="317.2029113769531" gradientTransform="translate(0, -118.172) translate(-19.625)">
			<stop offset="0.0019" style="stop-color:#3D01E7"/>
			<stop offset="1" style="stop-color:#D3ACFE"/>
		</linearGradient>
		<path style="fill:url(#SVGID_4_);" d="M948.02001953125,209.1771240234375 l94.96499633789062,177.16400146484375 c5.168000221252441,9.63599967956543 18.934999465942383,9.78600025177002 24.299999237060547,0.2590000033378601 l86.47799682617188,-153.46099853515625 c7.763999938964844,-13.781999588012695 -9.895999908447266,-27.70599937438965 -21.483999252319336,-16.929000854492188 c-42.89699935913086,39.85200119018555 -100.5510025024414,78.26399993896484 -174.5279998779297,-14.765999794006348 C953.3770141601562,195.93011474609375 944.7000122070312,202.9791259765625 948.02001953125,209.1771240234375 " id="svg_8" opacity="1" filter=""/>
	</g>
	<g>
		<linearGradient id="SVGID_5_" gradientUnits="userSpaceOnUse" x1="61.30860137939453" y1="266.2063903808594" x2="61.30860137939453" y2="79.31880187988281" gradientTransform="translate(0, -118.172) translate(-19.625)">
			<stop offset="0" style="stop-color:#00FBFB"/>
			<stop offset="0.9957" style="stop-color:#0146FF"/>
		</linearGradient>
		<path style="fill:url(#SVGID_5_);" d="M16.816001892089844,127.38812255859375 c0,7.066999912261963 4.551000118255615,11.958999633789062 13.656999588012695,14.675999641418457 c3.4649999141693115,1.0870000123977661 7.201000213623047,1.63100004196167 11.211000442504883,1.63100004196167 c4.007999897003174,0 7.744999885559082,-0.5440000295639038 11.210000038146973,-1.63100004196167 c9.104000091552734,-2.7170000076293945 13.656999588012695,-7.609000205993652 13.656999588012695,-14.675999641418457 c0,-4.892000198364258 -2.7860000133514404,-8.79800033569336 -8.357000350952148,-11.720999717712402 c-3.3299999237060547,-1.7660000324249268 -9.477999687194824,-3.734999895095825 -18.44700050354004,-5.909999847412109 c-13.24899959564209,-3.260999917984009 -22.354000091552734,-6.48799991607666 -27.312999725341797,-9.682999610900879 c-8.289999961853027,-5.366000175476074 -12.432999610900879,-13.45199966430664 -12.432999610900879,-24.256000518798828 c0,-7.74399995803833 2.4790000915527344,-14.369999885559082 7.440000057220459,-19.871999740600586 c4.484000205993652,-4.959000110626221 10.564000129699707,-8.595000267028809 18.243000030517578,-10.904999732971191 c5.0960001945495605,-1.49399995803833 10.428999900817871,-2.243000030517578 16.000999450683594,-2.243000030517578 c5.570000171661377,0 10.904999732971191,0.7490000128746033 16,2.243000030517578 c7.677999973297119,2.309999942779541 13.758999824523926,5.946000099182129 18.243000030517578,10.904999732971191 c4.959000110626221,5.502999782562256 7.440000057220459,12.128000259399414 7.440000057220459,19.871999740600586 H66.5510025024414 c0,-7.065000057220459 -4.552999973297119,-11.956999778747559 -13.656999588012695,-14.673999786376953 c-3.4649999141693115,-1.0199999809265137 -7.202000141143799,-1.5299999713897705 -11.210000038146973,-1.5299999713897705 c-4.010000228881836,0 -7.745999813079834,0.5099999904632568 -11.211000442504883,1.5299999713897705 c-9.104999542236328,2.7170000076293945 -13.656999588012695,7.609000205993652 -13.656999588012695,14.673999786376953 c0,4.960000038146973 2.7860000133514404,8.866999626159668 8.357999801635742,11.720999717712402 c3.3959999084472656,1.7680000066757202 9.543999671936035,3.736999988555908 18.445999145507812,5.9120001792907715 c13.24899959564209,3.260999917984009 22.35300064086914,6.48799991607666 27.312999725341797,9.680999755859375 c8.288000106811523,5.435999870300293 12.432999610900879,13.520999908447266 12.432999610900879,24.256000518798828 c0,7.745999813079834 -2.4809999465942383,14.369999885559082 -7.440000057220459,19.871999740600586 c-4.484000205993652,4.960000038146973 -10.5649995803833,8.595999717712402 -18.243000030517578,10.906000137329102 c-5.0960001945495605,1.562000036239624 -10.430000305175781,2.3420000076293945 -16,2.3420000076293945 c-5.572000026702881,0 -10.904999732971191,-0.7799999713897705 -16.000999450683594,-2.3420000076293945 c-7.677999973297119,-2.309999942779541 -13.758999824523926,-5.946000099182129 -18.243000030517578,-10.906000137329102 c-4.960000038146973,-5.502999782562256 -7.440000057220459,-12.12600040435791 -7.440000057220459,-19.871999740600586 H16.816001892089844 z" id="svg_12" opacity="1" filter=""/>
		<linearGradient id="SVGID_6_" gradientUnits="userSpaceOnUse" x1="183.4221954345703" y1="266.2063903808594" x2="183.4221954345703" y2="79.31880187988281" gradientTransform="translate(0, -118.172) translate(-19.625)">
			<stop offset="0" style="stop-color:#00FBFB"/>
			<stop offset="0.9957" style="stop-color:#0146FF"/>
		</linearGradient>
		<path style="fill:url(#SVGID_6_);" d="M194.7790069580078,152.76513671875 c-8.968999862670898,5.1620001792907715 -18.649999618530273,7.74399995803833 -29.045000076293945,7.74399995803833 c-16.239999771118164,0 -30.100000381469727,-5.7729997634887695 -41.58100128173828,-17.325000762939453 c-11.482999801635742,-11.480999946594238 -17.224000930786133,-25.343000411987305 -17.224000930786133,-41.58100128173828 s5.741000175476074,-30.099000930786133 17.224000930786133,-41.582000732421875 c11.480999946594238,-11.480999946594238 25.341999053955078,-17.224000930786133 41.58100128173828,-17.224000930786133 c10.395999908447266,0 20.07699966430664,2.5480000972747803 29.045000076293945,7.64300012588501 c9.03499984741211,5.0970001220703125 16.204999923706055,12.095999717712402 21.5049991607666,20.9950008392334 l4.381999969482422,7.339000225067139 l-86.83100128173828,50.14099884033203 c0.6779999732971191,0.8159999847412109 1.4270000457763672,1.63100004196167 2.242000102996826,2.447000026702881 c8.220000267028809,8.222000122070312 18.106000900268555,12.331999778747559 29.656999588012695,12.331999778747559 c7.4730000495910645,0 14.404000282287598,-1.8339999914169312 20.790000915527344,-5.504000186920166 c6.453999996185303,-3.6689999103546143 11.583000183105469,-8.66100025177002 15.388999938964844,-14.979999542236328 l14.369999885559082,8.5600004196167 C210.98399353027344,140.67111206054688 203.81399536132812,147.66912841796875 194.7790069580078,152.76513671875 zM125.68099975585938,114.24012756347656 l71.13700103759766,-41.07099914550781 c-3.058000087738037,-3.260999917984009 -6.488999843597412,-5.978000164031982 -10.293999671936035,-8.152999877929688 c-6.38700008392334,-3.5999999046325684 -13.317000389099121,-5.4019999504089355 -20.790000915527344,-5.4019999504089355 c-11.550999641418457,0 -21.437000274658203,4.111999988555908 -29.656999588012695,12.331999778747559 c-8.222000122070312,8.152999877929688 -12.331999778747559,18.040000915527344 -12.331999778747559,29.658000946044922 C123.7449951171875,105.95211791992188 124.38999938964844,110.16412353515625 125.68099975585938,114.24012756347656 z" id="svg_13" opacity="1" filter=""/>
		<linearGradient id="SVGID_7_" gradientUnits="userSpaceOnUse" x1="315.01458740234375" y1="266.2063903808594" x2="315.01458740234375" y2="79.31880187988281" gradientTransform="translate(0, -118.172) translate(-19.625)">
			<stop offset="0" style="stop-color:#00FBFB"/>
			<stop offset="0.9957" style="stop-color:#0146FF"/>
		</linearGradient>
		<path style="fill:url(#SVGID_7_);" d="M325.14801025390625,71.02912902832031 c-6.998000144958496,-7.677999973297119 -15.967000007629395,-11.515000343322754 -26.905000686645508,-11.515000343322754 c-10.940999984741211,0 -19.941999435424805,3.8380000591278076 -27.006999969482422,11.515000343322754 c-7.3379998207092285,7.949999809265137 -11.006999969482422,18.107999801635742 -11.006999969482422,30.472000122070312 v56.154998779296875 h-16.815000534057617 V45.55113220214844 h16.815000534057617 v16.20400047302246 c9.17300033569336,-12.704999923706055 21.843000411987305,-19.058000564575195 38.01499938964844,-19.058000564575195 c15.829999923706055,0 28.944000244140625,5.639999866485596 39.3390007019043,16.91699981689453 c4.076000213623047,4.418000221252441 7.336999893188477,9.27400016784668 9.782999992370605,14.572999954223633 l-14.675000190734863,8.460000038146973 C330.8559875488281,78.36611938476562 328.34100341796875,74.49412536621094 325.14801025390625,71.02912902832031 z" id="svg_14" opacity="1" filter=""/>
		<linearGradient id="SVGID_8_" gradientUnits="userSpaceOnUse" x1="429.9435119628906" y1="266.2063903808594" x2="429.9435119628906" y2="79.31880187988281" gradientTransform="translate(0, -118.172) translate(-19.625)">
			<stop offset="0" style="stop-color:#00FBFB"/>
			<stop offset="0.9957" style="stop-color:#0146FF"/>
		</linearGradient>
		<path style="fill:url(#SVGID_8_);" d="M372.55999755859375,45.652130126953125 c3.328000068664551,7.132999897003174 8.255000114440918,17.833999633789062 14.777999877929688,32.10300064086914 c6.589000225067139,14.20199966430664 11.515999794006348,24.867000579833984 14.777999877929688,32.00199890136719 l8.152999877929688,20.076000213623047 c0.949999988079071,-1.9010000228881836 2.309000015258789,-5.1620001792907715 4.077000141143799,-9.784000396728516 c1.7660000324249268,-4.686999797821045 3.124000072479248,-7.98199987411499 4.077000141143799,-9.885000228881836 l29.656999588012695,-64.51200103759766 h18.445999145507812 l-56.25600051879883,122.09300231933594 l-56.154998779296875,-122.09300231933594 H372.55999755859375 z" id="svg_15" opacity="1" filter=""/>
		<linearGradient id="SVGID_9_" gradientUnits="userSpaceOnUse" x1="521.6873168945312" y1="266.2063903808594" x2="521.6873168945312" y2="79.31880187988281" gradientTransform="translate(0, -118.172) translate(-19.625)">
			<stop offset="0" style="stop-color:#00FBFB"/>
			<stop offset="0.9957" style="stop-color:#0146FF"/>
		</linearGradient>
		<path style="fill:url(#SVGID_9_);" d="M487.7430114746094,157.65713500976562 v-28.63800048828125 h28.63800048828125 v28.63800048828125 H487.7430114746094 z" id="svg_16" opacity="1" filter=""/>
		<linearGradient id="SVGID_10_" gradientUnits="userSpaceOnUse" x1="622.6533813476562" y1="266.2063903808594" x2="622.6533813476562" y2="79.31880187988281" gradientTransform="translate(0, -118.172) translate(-19.625)">
			<stop offset="0" style="stop-color:#00FBFB"/>
			<stop offset="0.9957" style="stop-color:#0146FF"/>
		</linearGradient>
		<path style="fill:url(#SVGID_10_);" d="M634.010009765625,152.76513671875 c-8.968999862670898,5.1620001792907715 -18.649999618530273,7.74399995803833 -29.045000076293945,7.74399995803833 c-16.239999771118164,0 -30.100000381469727,-5.7729997634887695 -41.58100128173828,-17.325000762939453 c-11.482999801635742,-11.480999946594238 -17.224000930786133,-25.343000411987305 -17.224000930786133,-41.58100128173828 s5.741000175476074,-30.099000930786133 17.224000930786133,-41.582000732421875 c11.480999946594238,-11.480999946594238 25.341999053955078,-17.224000930786133 41.58100128173828,-17.224000930786133 c10.395999908447266,0 20.07699966430664,2.5480000972747803 29.045000076293945,7.64300012588501 c9.03499984741211,5.0970001220703125 16.204999923706055,12.095999717712402 21.5049991607666,20.9950008392334 l4.381999969482422,7.339000225067139 l-86.83100128173828,50.14099884033203 c0.6779999732971191,0.8159999847412109 1.4270000457763672,1.63100004196167 2.242000102996826,2.447000026702881 c8.220000267028809,8.222000122070312 18.106000900268555,12.331999778747559 29.656999588012695,12.331999778747559 c7.4730000495910645,0 14.404000282287598,-1.8339999914169312 20.790000915527344,-5.504000186920166 c6.453999996185303,-3.6689999103546143 11.583000183105469,-8.66100025177002 15.388999938964844,-14.979999542236328 l14.369999885559082,8.5600004196167 C650.2150268554688,140.67111206054688 643.0460205078125,147.66912841796875 634.010009765625,152.76513671875 zM564.9119873046875,114.24012756347656 l71.13700103759766,-41.07099914550781 c-3.058000087738037,-3.260999917984009 -6.488999843597412,-5.978000164031982 -10.293999671936035,-8.152999877929688 c-6.38700008392334,-3.5999999046325684 -13.317000389099121,-5.4019999504089355 -20.790000915527344,-5.4019999504089355 c-11.550999641418457,0 -21.437000274658203,4.111999988555908 -29.656999588012695,12.331999778747559 c-8.222000122070312,8.152999877929688 -12.331999778747559,18.040000915527344 -12.331999778747559,29.658000946044922 C562.9760131835938,105.95211791992188 563.6209716796875,110.16412353515625 564.9119873046875,114.24012756347656 z" id="svg_17" opacity="1" filter=""/>
		<linearGradient id="SVGID_11_" gradientUnits="userSpaceOnUse" x1="722.1428833007812" y1="266.2063903808594" x2="722.1428833007812" y2="79.31880187988281" gradientTransform="translate(0, -118.172) translate(-19.625)">
			<stop offset="0" style="stop-color:#00FBFB"/>
			<stop offset="0.9957" style="stop-color:#0146FF"/>
		</linearGradient>
		<path style="fill:url(#SVGID_11_);" d="M710.875,11.918121337890625 v33.632999420166016 h19.670000076293945 v16.30500030517578 H710.875 v95.8010025024414 h-16.815000534057617 v-95.8010025024414 h-19.56800079345703 v-16.30500030517578 h19.56800079345703 V11.918121337890625 H710.875 z" id="svg_18" opacity="1" filter=""/>
		<linearGradient id="SVGID_12_" gradientUnits="userSpaceOnUse" x1="828.5108032226562" y1="266.2063903808594" x2="828.5108032226562" y2="79.31880187988281" gradientTransform="translate(0, -118.172) translate(-19.625)">
			<stop offset="0" style="stop-color:#00FBFB"/>
			<stop offset="0.9957" style="stop-color:#0146FF"/>
		</linearGradient>
		<path style="fill:url(#SVGID_12_);" d="M768.8839721679688,62.672119140625 c10.12399959564209,-13.24899959564209 23.474000930786133,-19.874000549316406 40.053001403808594,-19.874000549316406 c15.965999603271484,0 29.417999267578125,5.673999786376953 40.358001708984375,17.020000457763672 c10.939000129699707,11.414999961853027 16.408000946044922,25.3439998626709 16.408000946044922,41.7859992980957 v56.053001403808594 h-16.815000534057617 v-56.053001403808594 c0,-11.958999633789062 -3.872999906539917,-21.979000091552734 -11.618000030517578,-30.065000534057617 c-7.611000061035156,-7.949999809265137 -17.05500030517578,-11.923999786376953 -28.33300018310547,-11.923999786376953 c-11.279000282287598,0 -20.756999969482422,3.9749999046325684 -28.434999465942383,11.923999786376953 c-7.744999885559082,8.086000442504883 -11.618000030517578,18.106000900268555 -11.618000030517578,30.065000534057617 v56.053001403808594 h-16.815000534057617 V11.918121337890625 h16.815000534057617 V62.672119140625 z" id="svg_19" opacity="1" filter=""/>
	</g>
	<g>
		<linearGradient id="SVGID_13_" gradientUnits="userSpaceOnUse" x1="67.38189697265625" y1="521.2318725585938" x2="67.38189697265625" y2="282.3168029785156" gradientTransform="translate(0, -118.172) translate(-19.625)">
			<stop offset="0.0019" style="stop-color:#3D01E7"/>
			<stop offset="1" style="stop-color:#D3ACFE"/>
		</linearGradient>
		<path style="fill:url(#SVGID_13_);" d="M15.183998107910156,325.39312744140625 c0,9.753000259399414 6.103000164031982,16.469999313354492 18.31100082397461,20.150999069213867 c4.4770002365112305,1.350000023841858 9.230999946594238,2.0239999294281006 14.26200008392334,2.0239999294281006 c5.0289998054504395,0 9.784000396728516,-0.6740000247955322 14.26200008392334,-2.0239999294281006 c12.206999778747559,-3.680999994277954 18.31100082397461,-10.39799976348877 18.31100082397461,-20.150999069213867 c0,-6.809999942779541 -3.5889999866485596,-12.145999908447266 -10.765999794006348,-16.01099967956543 c-4.295000076293945,-2.3310000896453857 -12.145999908447266,-4.9070000648498535 -23.555999755859375,-7.729000091552734 c-15.336000442504883,-3.742000102996826 -25.886999130249023,-7.453999996185303 -31.652999877929688,-11.133999824523926 c-9.569999694824219,-6.132999897003174 -14.354999542236328,-15.243000030517578 -14.354999542236328,-27.32900047302246 c0,-8.649999618530273 2.821000099182129,-16.101999282836914 8.465999603271484,-22.360000610351562 c5.091000080108643,-5.581999778747559 11.991999626159668,-9.690999984741211 20.70400047302246,-12.329999923706055 c5.888999938964844,-1.777999997138977 12.083999633789062,-2.6679999828338623 18.586999893188477,-2.6679999828338623 c6.501999855041504,0 12.697999954223633,0.8899999856948853 18.586999893188477,2.6679999828338623 c8.710000038146973,2.6389999389648438 15.611000061035156,6.748000144958496 20.70400047302246,12.329999923706055 c5.64300012588501,6.257999897003174 8.46500015258789,13.711000442504883 8.46500015258789,22.360000610351562 H80.33100128173828 c0,-9.753999710083008 -6.105000019073486,-16.47100067138672 -18.31100082397461,-20.150999069213867 c-4.479000091552734,-1.3489999771118164 -9.232999801635742,-2.0250000953674316 -14.26200008392334,-2.0250000953674316 c-5.031000137329102,0 -9.78499984741211,0.6769999861717224 -14.26200008392334,2.0250000953674316 c-12.208000183105469,3.680000066757202 -18.31100082397461,10.397000312805176 -18.31100082397461,20.150999069213867 c0,6.808000087738037 3.5889999866485596,12.178000450134277 10.765000343322754,16.101999282836914 c4.293000221252441,2.3329999446868896 12.147000312805176,4.876999855041504 23.555999755859375,7.638000011444092 c15.335000038146973,3.742000102996826 25.886999130249023,7.452000141143799 31.65399932861328,11.133999824523926 c9.569999694824219,6.135000228881836 14.354000091552734,15.244999885559082 14.354000091552734,27.32900047302246 c0,8.711999893188477 -2.822000026702881,16.163999557495117 -8.46500015258789,22.358999252319336 c-5.0929999351501465,5.583000183105469 -11.994000434875488,9.694000244140625 -20.70400047302246,12.331000328063965 c-5.888999938964844,1.777999997138977 -12.086000442504883,2.6679999828338623 -18.586999893188477,2.6679999828338623 c-6.502999782562256,0 -12.697999954223633,-0.8899999856948853 -18.586999893188477,-2.6679999828338623 c-8.711999893188477,-2.63700008392334 -15.612000465393066,-6.748000144958496 -20.70400047302246,-12.331000328063965 c-5.644999980926514,-6.195000171661377 -8.465999603271484,-13.647000312805176 -8.465999603271484,-22.358999252319336 H15.183998107910156 z" id="svg_21" opacity="1" filter=""/>
		<linearGradient id="SVGID_14_" gradientUnits="userSpaceOnUse" x1="192.6342010498047" y1="521.2318725585938" x2="192.6342010498047" y2="282.3168029785156" gradientTransform="translate(0, -118.172) translate(-19.625)">
			<stop offset="0.0019" style="stop-color:#3D01E7"/>
			<stop offset="1" style="stop-color:#D3ACFE"/>
		</linearGradient>
		<path style="fill:url(#SVGID_14_);" d="M225.5500030517578,228.68411254882812 v81.06600189208984 c0,14.538999557495117 -5.1529998779296875,26.93000030517578 -15.458999633789062,37.17399978637695 c-10.246000289916992,10.246000289916992 -22.606000900268555,15.366999626159668 -37.082000732421875,15.366999626159668 c-14.538999557495117,0 -26.930999755859375,-5.120999813079834 -37.17399978637695,-15.366999626159668 c-10.246000289916992,-10.244000434875488 -15.366999626159668,-22.635000228881836 -15.366999626159668,-37.17399978637695 v-81.06600189208984 h15.182000160217285 v81.06600189208984 c0,10.305999755859375 3.6489999294281006,19.110000610351562 10.949999809265137,26.40999984741211 c7.298999786376953,7.298999786376953 16.10300064086914,10.947999954223633 26.409000396728516,10.947999954223633 c10.305999755859375,0 19.107999801635742,-3.6489999294281006 26.408000946044922,-10.947999954223633 c7.298999786376953,-7.298999786376953 10.949999809265137,-16.104000091552734 10.949999809265137,-26.40999984741211 v-81.06600189208984 H225.5500030517578 z" id="svg_22" opacity="1" filter=""/>
		<linearGradient id="SVGID_15_" gradientUnits="userSpaceOnUse" x1="322.1178894042969" y1="521.2318725585938" x2="322.1178894042969" y2="282.3168029785156" gradientTransform="translate(0, -118.172) translate(-19.625)">
			<stop offset="0.0019" style="stop-color:#3D01E7"/>
			<stop offset="1" style="stop-color:#D3ACFE"/>
		</linearGradient>
		<path style="fill:url(#SVGID_15_);" d="M254.18399047851562,360.17413330078125 V228.5931396484375 h50.8849983215332 c13.189000129699707,0 24.07699966430664,3.7730000019073486 32.665000915527344,11.317999839782715 c8.710000038146973,7.669000148773193 13.067000389099121,17.573999404907227 13.067000389099121,29.719999313354492 c0,12.699000358581543 -4.447999954223633,23.496000289916992 -13.342000007629395,32.38999938964844 c-8.956999778747559,8.956999778747559 -19.753000259399414,13.434000015258789 -32.38999938964844,13.434000015258789 v-0.09099999815225601 h-35.70199966430664 v44.81100082397461 H254.18399047851562 zM269.36700439453125,243.77413940429688 v56.49700164794922 h35.70199966430664 c8.46500015258789,0 15.67300033569336,-3.005000114440918 21.624000549316406,-9.017000198364258 c6.011000156402588,-5.948999881744385 9.017000198364258,-13.157999992370605 9.017000198364258,-21.624000549316406 h-0.09200000017881393 c0,-7.605000019073486 -2.638000011444092,-13.711000442504883 -7.914000034332275,-18.31100082397461 c-5.703999996185303,-5.0289998054504395 -13.25,-7.545000076293945 -22.635000228881836,-7.545000076293945 H269.36700439453125 z" id="svg_23" opacity="1" filter=""/>
		<linearGradient id="SVGID_16_" gradientUnits="userSpaceOnUse" x1="441.1130065917969" y1="521.2318725585938" x2="441.1130065917969" y2="282.3168029785156" gradientTransform="translate(0, -118.172) translate(-19.625)">
			<stop offset="0.0019" style="stop-color:#3D01E7"/>
			<stop offset="1" style="stop-color:#D3ACFE"/>
		</linearGradient>
		<path style="fill:url(#SVGID_16_);" d="M373.17999267578125,360.17413330078125 V228.5931396484375 h50.8849983215332 c13.189000129699707,0 24.07699966430664,3.7730000019073486 32.665000915527344,11.317999839782715 c8.710000038146973,7.669000148773193 13.067000389099121,17.573999404907227 13.067000389099121,29.719999313354492 c0,12.699000358581543 -4.447999954223633,23.496000289916992 -13.342000007629395,32.38999938964844 c-8.956999778747559,8.956999778747559 -19.753000259399414,13.434000015258789 -32.38999938964844,13.434000015258789 v-0.09099999815225601 h-35.70199966430664 v44.81100082397461 H373.17999267578125 zM388.3630065917969,243.77413940429688 v56.49700164794922 h35.70199966430664 c8.46500015258789,0 15.67300033569336,-3.005000114440918 21.624000549316406,-9.017000198364258 c6.011000156402588,-5.948999881744385 9.017000198364258,-13.157999992370605 9.017000198364258,-21.624000549316406 h-0.09200000017881393 c0,-7.605000019073486 -2.638000011444092,-13.711000442504883 -7.914000034332275,-18.31100082397461 c-5.703999996185303,-5.0289998054504395 -13.25,-7.545000076293945 -22.635000228881836,-7.545000076293945 H388.3630065917969 z" id="svg_24" opacity="1" filter=""/>
		<linearGradient id="SVGID_17_" gradientUnits="userSpaceOnUse" x1="573.9097290039062" y1="521.2318725585938" x2="573.9097290039062" y2="282.3168029785156" gradientTransform="translate(0, -118.172) translate(-19.625)">
			<stop offset="0.0019" style="stop-color:#3D01E7"/>
			<stop offset="1" style="stop-color:#D3ACFE"/>
		</linearGradient>
		<path style="fill:url(#SVGID_17_);" d="M594.219970703125,237.70111083984375 c10.0600004196167,7.117000102996826 17.51300048828125,16.746000289916992 22.360000610351562,28.893999099731445 c3.556999921798706,8.77299976348877 5.336999893188477,18.003999710083008 5.336999893188477,27.695999145507812 s-1.7799999713897705,18.924999237060547 -5.336999893188477,27.695999145507812 c-4.8460001945495605,12.208000183105469 -12.298999786376953,21.868999481201172 -22.360000610351562,28.985000610351562 c-11.166000366210938,7.853000164031982 -24.47599983215332,11.777999877929688 -39.935001373291016,11.777999877929688 s-28.770999908447266,-3.9260001182556152 -39.935001373291016,-11.777999877929688 c-10.060999870300293,-7.116000175476074 -17.54400062561035,-16.777000427246094 -22.45199966430664,-28.985000610351562 c-3.496999979019165,-8.772000312805176 -5.244999885559082,-18.003999710083008 -5.244999885559082,-27.695999145507812 s1.7480000257492065,-18.92300033569336 5.244999885559082,-27.695999145507812 c4.9070000648498535,-12.147000312805176 12.390999794006348,-21.775999069213867 22.45199966430664,-28.893999099731445 c11.163999557495117,-7.913000106811523 24.47599983215332,-11.869000434875488 39.935001373291016,-11.869000434875488 S583.0540161132812,229.78811645507812 594.219970703125,237.70111083984375 zM585.2940063476562,250.12313842773438 c-8.649999618530273,-6.072999954223633 -18.98699951171875,-9.109999656677246 -31.009000778198242,-9.109999656677246 c-12.02400016784668,0 -22.360000610351562,3.0369999408721924 -31.009000778198242,9.109999656677246 c-7.790999889373779,5.39900016784668 -13.557999610900879,12.76099967956543 -17.298999786376953,22.083999633789062 c-2.760999917984009,6.933000087738037 -4.140999794006348,14.295000076293945 -4.140999794006348,22.083999633789062 c0,7.790999889373779 1.3799999952316284,15.152000427246094 4.140999794006348,22.083999633789062 c3.740999937057495,9.324999809265137 9.508000373840332,16.71500015258789 17.298999786376953,22.174999237060547 c8.649999618530273,6.013000011444092 18.986000061035156,9.017000198364258 31.009000778198242,9.017000198364258 c12.022000312805176,0 22.360000610351562,-3.005000114440918 31.009000778198242,-9.017000198364258 c7.789999961853027,-5.460000038146973 13.555999755859375,-12.850000381469727 17.298999786376953,-22.174999237060547 c2.760999917984009,-6.932000160217285 4.140999794006348,-14.293000221252441 4.140999794006348,-22.083999633789062 c0,-7.789000034332275 -1.3799999952316284,-15.151000022888184 -4.140999794006348,-22.083999633789062 C598.8499755859375,262.8841247558594 593.083984375,255.52313232421875 585.2940063476562,250.12313842773438 z" id="svg_25" opacity="1" filter=""/>
		<linearGradient id="SVGID_18_" gradientUnits="userSpaceOnUse" x1="721.7047119140625" y1="521.2318725585938" x2="721.7047119140625" y2="282.3168029785156" gradientTransform="translate(0, -118.172) translate(-19.625)">
			<stop offset="0.0019" style="stop-color:#3D01E7"/>
			<stop offset="1" style="stop-color:#D3ACFE"/>
		</linearGradient>
		<path style="fill:url(#SVGID_18_);" d="M646.8699951171875,360.17413330078125 V228.5931396484375 h60.08599853515625 c13.189000129699707,0 24.07699966430664,3.7730000019073486 32.66600036621094,11.317999839782715 c8.710000038146973,7.669000148773193 13.067000389099121,17.573999404907227 13.067000389099121,29.719999313354492 c0,12.699000358581543 -4.447999954223633,23.496000289916992 -13.342000007629395,32.38999938964844 c-6.318999767303467,6.318999767303467 -13.772000312805176,10.428999900817871 -22.360000610351562,12.329999923706055 l40.303001403808594,45.82400131225586 h-20.243000030517578 l-39.382999420166016,-44.81100082397461 h-35.61000061035156 v44.81100082397461 H646.8699951171875 zM662.052978515625,243.77413940429688 v56.49700164794922 h44.90299987792969 c8.465999603271484,0 15.673999786376953,-3.005000114440918 21.624000549316406,-9.017000198364258 c6.011000156402588,-5.948999881744385 9.017000198364258,-13.157999992370605 9.017000198364258,-21.624000549316406 h-0.09200000017881393 c0,-7.605000019073486 -2.6389999389648438,-13.711000442504883 -7.914000034332275,-18.31100082397461 c-5.704999923706055,-5.0289998054504395 -13.25,-7.545000076293945 -22.63599967956543,-7.545000076293945 H662.052978515625 z" id="svg_26" opacity="1" filter=""/>
		<linearGradient id="SVGID_19_" gradientUnits="userSpaceOnUse" x1="836.46728515625" y1="521.2318725585938" x2="836.46728515625" y2="282.3168029785156" gradientTransform="translate(0, -118.172) translate(-19.625)">
			<stop offset="0.0019" style="stop-color:#3D01E7"/>
			<stop offset="1" style="stop-color:#D3ACFE"/>
		</linearGradient>
		<path style="fill:url(#SVGID_19_);" d="M824.3870239257812,243.77413940429688 v116.4000015258789 H809.2050170898438 v-116.4000015258789 h-41.222999572753906 v-15.180999755859375 h97.72100067138672 v15.180999755859375 H824.3870239257812 z" id="svg_27" opacity="1" filter=""/>
	</g>
</g>
</svg>