<svg width="591" height="287" viewBox="0 0 591 287" fill="none"
	xmlns="http://www.w3.org/2000/svg">
	<g style="mix-blend-mode:multiply" opacity="0.5">
		<path d="M178.092 13.2771L256.64 58.9733L177.576 104.669L99.028 58.9733L178.092 13.2771Z" fill="#29A9E1"/>
	</g>
	<g style="mix-blend-mode:multiply" opacity="0.5">
		<path d="M348.731 26.3035L427.279 71.9996L348.219 117.696L269.672 71.9996L348.731 26.3035Z" fill="#29A9E1"/>
	</g>
	<g style="mix-blend-mode:screen" opacity="0.5">
		<path d="M309.645 38.9676L388.193 84.6637L309.129 130.355L230.581 84.6589L309.645 38.9676Z" fill="#29A9E1"/>
	</g>
	<g style="mix-blend-mode:multiply" opacity="0.5">
		<path d="M335.704 81.4373L414.252 127.133L335.188 172.83L256.64 127.133L335.704 81.4373Z" fill="#29A9E1"/>
	</g>
	<g style="mix-blend-mode:screen" opacity="0.5">
		<path d="M309.645 97.9992L388.193 143.695L309.129 189.392L230.581 143.69L309.645 97.9992Z" fill="#29A9E1"/>
	</g>
	<g style="mix-blend-mode:multiply" opacity="0.5">
		<path d="M335.704 140.474L414.252 186.17L335.188 231.861L256.64 186.165L335.704 140.474Z" fill="#29A9E1"/>
	</g>
	<g style="mix-blend-mode:screen" opacity="0.5">
		<path d="M296.618 153.133L375.166 198.829L296.102 244.525L217.554 198.829L296.618 153.133Z" fill="#29A9E1"/>
	</g>
	<g style="mix-blend-mode:multiply" opacity="0.5">
		<path d="M322.672 195.608L401.225 241.304L322.161 287L243.613 241.304L322.672 195.608Z" fill="#29A9E1"/>
	</g>
	<g style="mix-blend-mode:screen" opacity="0.5">
		<path d="M92.7702 35.857L171.323 81.5532L92.2588 127.249L13.7111 81.5532L92.7702 35.857Z" fill="#29A9E1"/>
	</g>
	<g style="mix-blend-mode:multiply" opacity="0.5">
		<path d="M118.829 78.3318L197.377 124.028L118.318 169.724L39.7697 124.028L118.829 78.3318Z" fill="#29A9E1"/>
	</g>
	<g style="mix-blend-mode:screen" opacity="0.5">
		<path d="M79.7433 90.991L158.291 136.687L79.2271 182.383L0.679245 136.687L79.7433 90.991Z" fill="#29A9E1"/>
	</g>
	<g style="mix-blend-mode:multiply" opacity="0.5">
		<path d="M105.802 133.466L184.35 179.162L105.286 224.858L26.738 179.162L105.802 133.466Z" fill="#29A9E1"/>
	</g>
	<g style="mix-blend-mode:screen" opacity="0.5">
		<path d="M435.331 151.105L466.567 169.275L435.124 187.45L403.888 169.275L435.331 151.105Z" fill="#29A9E1"/>
	</g>
	<g style="mix-blend-mode:multiply" opacity="0.5">
		<path d="M445.695 167.995L476.93 186.17L445.487 204.34L414.251 186.17L445.695 167.995Z" fill="#29A9E1"/>
	</g>
	<g style="mix-blend-mode:screen" opacity="0.5">
		<path d="M406.58 198.902L437.821 217.072L406.377 235.247L375.142 217.072L406.58 198.902Z" fill="#29A9E1"/>
	</g>
	<g style="mix-blend-mode:multiply" opacity="0.5">
		<path d="M416.944 215.792L448.18 233.967L416.741 252.137L385.501 233.967L416.944 215.792Z" fill="#29A9E1"/>
	</g>
	<g style="mix-blend-mode:screen" opacity="0.5">
		<path d="M383.267 141.865L414.502 160.04L383.059 178.21L351.824 160.04L383.267 141.865Z" fill="#29A9E1"/>
	</g>
	<g style="mix-blend-mode:multiply" opacity="0.5">
		<path d="M393.63 158.76L424.866 176.93L393.423 195.105L362.187 176.93L393.63 158.76Z" fill="#29A9E1"/>
	</g>
	<g style="mix-blend-mode:screen" opacity="0.5">
		<path d="M550.34 0.414917L628.888 46.1111L549.824 91.8072L471.276 46.1111L550.34 0.414917Z" fill="#29A9E1"/>
	</g>
	<g style="mix-blend-mode:multiply" opacity="0.5">
		<path d="M576.399 42.8895L654.947 88.5857L575.882 134.282L497.335 88.5857L576.399 42.8895Z" fill="#29A9E1"/>
	</g>
	<g style="mix-blend-mode:screen" opacity="0.5">
		<path d="M565.369 86.8759L643.917 132.572L564.853 178.268L486.305 132.572L565.369 86.8759Z" fill="#29A9E1"/>
	</g>
	<g style="mix-blend-mode:multiply" opacity="0.5">
		<path d="M591.428 129.35L669.976 175.047L590.912 220.743L512.364 175.047L591.428 129.35Z" fill="#29A9E1"/>
	</g>
	<g style="mix-blend-mode:screen" opacity="0.5">
		<path d="M552.337 142.01L630.885 187.706L551.826 233.402L473.278 187.706L552.337 142.01Z" fill="#29A9E1"/>
	</g>
	<g style="mix-blend-mode:multiply" opacity="0.5">
		<path d="M578.396 184.484L656.944 230.18L577.885 275.877L499.337 230.18L578.396 184.484Z" fill="#29A9E1"/>
	</g>
</svg>
