<svg width="852" height="661" viewBox="0 0 852 661" fill="none" xmlns="http://www.w3.org/2000/svg">
<g opacity="0.2">
<g style="mix-blend-mode:multiply" opacity="0.5">
<path d="M747.302 158.67L656.963 211.226L747.896 263.782L838.235 211.226L747.302 158.67Z" fill="#29A9E1"/>
</g>
<g style="mix-blend-mode:multiply" opacity="0.5">
<path d="M762.29 222.081L671.951 274.637L762.879 327.193L853.224 274.637L762.29 222.081Z" fill="#29A9E1"/>
</g>
<g style="mix-blend-mode:multiply" opacity="0.5">
<path d="M611.716 149.499L521.377 202.055L612.304 254.611L702.643 202.055L611.716 149.499Z" fill="#29A9E1"/>
</g>
<g style="mix-blend-mode:multiply" opacity="0.5">
<path d="M626.698 212.91L536.359 265.466L627.292 318.022L717.631 265.466L626.698 212.91Z" fill="#29A9E1"/>
</g>
<g style="mix-blend-mode:multiply" opacity="0.5">
<path d="M679.875 282.147L589.531 334.703L680.464 387.259L770.803 334.703L679.875 282.147Z" fill="#29A9E1"/>
</g>
<g style="mix-blend-mode:multiply" opacity="0.5">
<path d="M694.858 345.558L604.519 398.114L695.452 450.67L785.791 398.114L694.858 345.558Z" fill="#29A9E1"/>
</g>
<g style="mix-blend-mode:multiply" opacity="0.5">
<path d="M528.574 227.33L438.229 279.886L529.162 332.442L619.501 279.886L528.574 227.33Z" fill="#29A9E1"/>
</g>
<g style="mix-blend-mode:multiply" opacity="0.5">
<path d="M543.556 290.741L453.217 343.297L544.15 395.853L634.489 343.297L543.556 290.741Z" fill="#29A9E1"/>
</g>
<g style="mix-blend-mode:multiply" opacity="0.5">
<path d="M386.484 151.571L296.144 204.127L387.072 256.678L477.411 204.122L386.484 151.571Z" fill="#29A9E1"/>
</g>
<g style="mix-blend-mode:multiply" opacity="0.5">
<path d="M401.466 214.982L311.127 267.538L402.06 320.094L492.399 267.538L401.466 214.982Z" fill="#29A9E1"/>
</g>
<g style="mix-blend-mode:multiply" opacity="0.5">
<path d="M364.004 251.856L273.665 304.412L364.598 356.968L454.937 304.412L364.004 251.856Z" fill="#29A9E1"/>
</g>
<g style="mix-blend-mode:multiply" opacity="0.5">
<path d="M378.992 315.266L288.647 367.822L379.581 420.378L469.92 367.822L378.992 315.266Z" fill="#29A9E1"/>
</g>
<g style="mix-blend-mode:multiply" opacity="0.5">
<path d="M498.603 360.54L408.264 413.096L499.191 465.652L589.531 413.096L498.603 360.54Z" fill="#29A9E1"/>
</g>
<g style="mix-blend-mode:multiply" opacity="0.5">
<path d="M513.586 423.95L423.246 476.506L514.179 529.062L604.519 476.506L513.586 423.95Z" fill="#29A9E1"/>
</g>
<g style="mix-blend-mode:multiply" opacity="0.5">
<path d="M513.586 491.849L423.246 544.405L514.179 596.956L604.519 544.4L513.586 491.849Z" fill="#29A9E1"/>
</g>
<g style="mix-blend-mode:multiply" opacity="0.5">
<path d="M528.574 555.26L438.229 607.816L529.162 660.372L619.501 607.816L528.574 555.26Z" fill="#29A9E1"/>
</g>
<g style="mix-blend-mode:multiply" opacity="0.5">
<path d="M763.018 420.378L672.678 472.934L763.606 525.491L853.945 472.934L763.018 420.378Z" fill="#29A9E1"/>
</g>
<g style="mix-blend-mode:multiply" opacity="0.5">
<path d="M778 483.789L687.661 536.345L778.594 588.901L868.933 536.345L778 483.789Z" fill="#29A9E1"/>
</g>
<g style="mix-blend-mode:multiply" opacity="0.5">
<path d="M830.45 255.428L740.105 307.984L831.038 360.54L921.377 307.984L830.45 255.428Z" fill="#29A9E1"/>
</g>
<g style="mix-blend-mode:multiply" opacity="0.5">
<path d="M845.433 318.844L755.093 371.4L846.026 423.95L936.366 371.394L845.433 318.844Z" fill="#29A9E1"/>
</g>
<g style="mix-blend-mode:multiply" opacity="0.5">
<path d="M680.408 108.842L644.483 129.745L680.647 150.643L716.571 129.745L680.408 108.842Z" fill="#29A9E1"/>
</g>
<g style="mix-blend-mode:multiply" opacity="0.5">
<path d="M713.475 163.814L677.55 184.718L713.708 205.616L749.633 184.718L713.475 163.814Z" fill="#29A9E1"/>
</g>
<g style="mix-blend-mode:multiply" opacity="0.5">
<path d="M740.288 98.2208L704.364 119.119L740.527 140.022L776.452 119.119L740.288 98.2208Z" fill="#29A9E1"/>
</g>
<g style="mix-blend-mode:multiply" opacity="0.5">
<path d="M138.073 353.896L102.148 374.794L138.306 395.698L174.236 374.794L138.073 353.896Z" fill="#29A9E1"/>
</g>
<g style="mix-blend-mode:multiply" opacity="0.5">
<path d="M171.134 408.868L135.209 429.766L171.373 450.67L207.298 429.766L171.134 408.868Z" fill="#29A9E1"/>
</g>
<g style="mix-blend-mode:multiply" opacity="0.5">
<path d="M197.953 343.269L162.028 364.173L198.186 385.071L234.111 364.173L197.953 343.269Z" fill="#29A9E1"/>
</g>
<g style="mix-blend-mode:multiply" opacity="0.5">
<path d="M35.9249 525.602L0 546.505L36.1635 567.403L72.0883 546.505L35.9249 525.602Z" fill="#29A9E1"/>
</g>
<g style="mix-blend-mode:multiply" opacity="0.5">
<path d="M68.9919 580.574L33.067 601.478L69.225 622.376L105.15 601.478L68.9919 580.574Z" fill="#29A9E1"/>
</g>
<g style="mix-blend-mode:multiply" opacity="0.5">
<path d="M95.8051 514.98L59.8803 535.878L96.0437 556.776L131.969 535.878L95.8051 514.98Z" fill="#29A9E1"/>
</g>
<g style="mix-blend-mode:multiply" opacity="0.5">
<path d="M387.083 523.502L351.158 544.405L387.322 565.303L423.246 544.405L387.083 523.502Z" fill="#29A9E1"/>
</g>
<g style="mix-blend-mode:multiply" opacity="0.5">
<path d="M420.15 578.474L384.225 599.378L420.383 620.276L456.313 599.378L420.15 578.474Z" fill="#29A9E1"/>
</g>
<g style="mix-blend-mode:multiply" opacity="0.5">
<path d="M446.963 512.881L411.038 533.779L447.202 554.682L483.127 533.779L446.963 512.881Z" fill="#29A9E1"/>
</g>
<g style="mix-blend-mode:multiply" opacity="0.5">
<path d="M663.317 11.0403L627.392 31.9383L663.55 52.8418L699.475 31.9383L663.317 11.0403Z" fill="#29A9E1"/>
</g>
<g style="mix-blend-mode:multiply" opacity="0.5">
<path d="M696.378 66.0128L660.454 86.9107L696.617 107.814L732.542 86.9107L696.378 66.0128Z" fill="#29A9E1"/>
</g>
<g style="mix-blend-mode:multiply" opacity="0.5">
<path d="M723.197 0.413574L687.272 21.3171L723.43 42.2151L759.355 21.3171L723.197 0.413574Z" fill="#29A9E1"/>
</g>
<g style="mix-blend-mode:multiply" opacity="0.5">
<path d="M354.754 149.471L318.829 170.369L354.992 191.267L390.917 170.369L354.754 149.471Z" fill="#29A9E1"/>
</g>
<g style="mix-blend-mode:multiply" opacity="0.5">
<path d="M387.821 204.438L351.896 225.342L388.054 246.24L423.984 225.342L387.821 204.438Z" fill="#29A9E1"/>
</g>
<g style="mix-blend-mode:multiply" opacity="0.5">
<path d="M414.64 138.845L378.709 159.748L414.873 180.646L450.798 159.743L414.64 138.845Z" fill="#29A9E1"/>
</g>
<g style="mix-blend-mode:multiply" opacity="0.5">
<path d="M521.077 16.8508L430.738 69.4068L521.671 121.963L612.01 69.4068L521.077 16.8508Z" fill="#29A9E1"/>
</g>
<g style="mix-blend-mode:multiply" opacity="0.5">
<path d="M536.065 80.2614L445.726 132.817L536.653 185.373L626.992 132.817L536.065 80.2614Z" fill="#29A9E1"/>
</g>
<g style="mix-blend-mode:multiply" opacity="0.5">
<path d="M162.283 134.49L71.944 187.046L162.877 239.602L253.216 187.046L162.283 134.49Z" fill="#29A9E1"/>
</g>
<g style="mix-blend-mode:multiply" opacity="0.5">
<path d="M177.266 197.906L86.9266 250.462L177.86 303.018L268.199 250.462L177.266 197.906Z" fill="#29A9E1"/>
</g>
<g style="mix-blend-mode:multiply" opacity="0.5">
<path d="M221.775 316.205L131.436 368.761L222.369 421.317L312.708 368.761L221.775 316.205Z" fill="#29A9E1"/>
</g>
<g style="mix-blend-mode:multiply" opacity="0.5">
<path d="M236.758 379.616L146.418 432.172L237.351 484.728L327.691 432.172L236.758 379.616Z" fill="#29A9E1"/>
</g>
<g style="mix-blend-mode:multiply" opacity="0.5">
<path d="M219.472 479.056L129.133 531.612L220.066 584.168L310.405 531.612L219.472 479.056Z" fill="#29A9E1"/>
</g>
<g style="mix-blend-mode:multiply" opacity="0.5">
<path d="M234.461 542.467L144.121 595.023L235.049 647.579L325.388 595.023L234.461 542.467Z" fill="#29A9E1"/>
</g>
</g>
</svg>
