<svg width="1440" height="815" viewBox="0 0 1440 815" xmlns="http://www.w3.org/2000/svg">
  <path d="M0 0H1440V780C1440 780 804.5 780 781 780C757.5 780 760 742.5 721 742.5C682 742.5 684 780 661 780C638 780 0 780 0 780V0Z" fill="url(#paint1_linear)"/>
  <g>
  <g opacity="0.05">
    <line y1="-0.5" x2="1027.88" y2="-0.5" transform="matrix(-0.824997 -0.565137 0.545188 -0.838314 706 852.868)" stroke="white"/>
    <line y1="-0.5" x2="1712.95" y2="-0.5" transform="matrix(-0.838167 -0.545413 0.525574 -0.850748 1002.53 861.047)" stroke="white"/>
    <line y1="-0.5" x2="1611.93" y2="-0.5" transform="matrix(-0.841769 -0.539838 0.520041 -0.854141 1143.31 782.19)" stroke="white"/>
    <line y1="-0.5" x2="1510.57" y2="-0.5" transform="matrix(-0.851169 -0.524892 0.505236 -0.862981 1410.75 782.776)" stroke="white"/>
    <line y1="-0.5" x2="1409.3" y2="-0.5" transform="matrix(-0.86031 -0.509771 0.490292 -0.871558 1473.71 660.54)" stroke="white"/>
    <line y1="-0.5" x2="1308.12" y2="-0.5" transform="matrix(-0.86919 -0.494479 0.475214 -0.87987 1455.05 512.901)" stroke="white"/>
    <line y1="-0.5" x2="1026.52" y2="-0.5" transform="matrix(-0.877804 -0.479019 0.460007 -0.887915 1571.08 459.907)" stroke="white"/>
    <line y1="-0.5" x2="1026.13" y2="-0.5" transform="matrix(-0.88615 -0.463398 0.444676 -0.895692 1649.35 420.267)" stroke="white"/>
    <line opacity="0.9" y1="-0.5" x2="1025.75" y2="-0.5" transform="matrix(-0.894224 -0.44762 0.429224 -0.903198 1771.03 409.44)" stroke="white"/>
    <line opacity="0.8" y1="-0.5" x2="1025.39" y2="-0.5" transform="matrix(-0.902023 -0.431689 0.413656 -0.910433 1896.54 408.836)" stroke="white"/>
    <line opacity="0.6" y1="-0.5" x2="1025.39" y2="-0.5" transform="matrix(-0.902023 -0.431689 0.413656 -0.910433 2005.54 419.1)" stroke="white"/>
    <line y1="-0.5" x2="603.986" y2="-0.5" transform="matrix(0.86031 -0.509771 0.490292 0.871558 980.961 784.082)" stroke="white"/>
    <line y1="-0.5" x2="1006.64" y2="-0.5" transform="matrix(0.86031 -0.509771 0.490292 0.871558 589 798.474)" stroke="white"/>
    <line y1="-0.5" x2="1508.22" y2="-0.5" transform="matrix(0.88615 -0.463398 0.444676 0.895692 126.509 783.074)" stroke="white"/>
    <line y1="-0.5" x2="1507.13" y2="-0.5" transform="matrix(0.902023 -0.431689 0.413656 0.910433 -99.4572 651.158)" stroke="white"/>
    <line y1="-0.5" x2="1506.09" y2="-0.5" transform="matrix(0.916781 -0.399391 0.382192 0.924083 -315.072 568.591)" stroke="white"/>
    <line y1="-0.5" x2="1505.13" y2="-0.5" transform="matrix(0.9304 -0.366546 0.35032 0.93663 -539.493 515.509)" stroke="white"/>
    <line opacity="0.9" y1="-0.5" x2="1504.67" y2="-0.5" transform="matrix(0.936776 -0.349931 0.334242 0.942488 -748.498 485.764)" stroke="white"/>
    <line opacity="0.7" y1="-0.5" x2="1504.23" y2="-0.5" transform="matrix(0.942858 -0.333196 0.318075 0.948066 -961.873 471.065)" stroke="white"/>
    </g>
  </g>
  <circle cx="720" cy="786" r="29" fill="url(#paint2_linear)"/>
  <path d="M720 793.7C719.642 793.7 719.283 793.563 719.01 793.29L710.41 784.691C709.863 784.144 709.863 783.257 710.41 782.71C710.957 782.163 711.844 782.163 712.391 782.71L720 790.319L727.609 782.71C728.156 782.163 729.043 782.163 729.589 782.71C730.137 783.257 730.137 784.144 729.589 784.691L720.99 793.291C720.717 793.564 720.358 793.7 720 793.7Z" fill="#16F7E3"/>
  <defs>
    <linearGradient id="paint1_linear" x1="0" y1="0" x2="1443.14" y2="808.158" gradientUnits="userSpaceOnUse">
      <stop stop-color="#082F5C"/>
      <stop offset="1" stop-color="#8809B5"/>
    </linearGradient>
    <linearGradient id="paint2_linear" x1="720" y1="757" x2="720" y2="815" gradientUnits="userSpaceOnUse">
      <stop stop-color="#0C2D5F"/>
      <stop offset="1" stop-color="#8810C4"/>
    </linearGradient>
  </defs>
</svg>
