<svg width="1440" height="945" viewBox="0 0 1440 945" fill="none" xmlns="http://www.w3.org/2000/svg">
<g filter="url(#filter0_d)">
<path d="M-23 2H1473L1470 846.638H868.276C862.233 846.638 856.331 848.463 851.343 851.874L737.753 929.545C727.633 936.464 714.322 936.531 704.134 929.713L587.573 851.706C582.636 848.402 576.829 846.638 570.888 846.638H-23V2Z" fill="url(#paint0_linear)"/>
</g>
<mask id="mask0" mask-type="alpha" maskUnits="userSpaceOnUse" x="-10" y="85" width="1440" height="780">
<rect x="-10" y="85" width="1440" height="780" fill="url(#paint1_linear)"/>
</mask>
<g mask="url(#mask0)">
<g opacity="0.05">
<line y1="-0.5" x2="1027.88" y2="-0.5" transform="matrix(-0.824997 -0.565137 0.545188 -0.838314 696 937.868)" stroke="white"/>
<line y1="-0.5" x2="1712.95" y2="-0.5" transform="matrix(-0.838167 -0.545413 0.525574 -0.850748 992.526 946.047)" stroke="white"/>
<line y1="-0.5" x2="1611.93" y2="-0.5" transform="matrix(-0.841769 -0.539838 0.520041 -0.854141 1133.31 867.19)" stroke="white"/>
<line y1="-0.5" x2="1510.57" y2="-0.5" transform="matrix(-0.851169 -0.524892 0.505236 -0.862981 1400.75 867.776)" stroke="white"/>
<line y1="-0.5" x2="1409.3" y2="-0.5" transform="matrix(-0.86031 -0.509771 0.490292 -0.871558 1463.71 745.54)" stroke="white"/>
<line y1="-0.5" x2="1308.12" y2="-0.5" transform="matrix(-0.86919 -0.494479 0.475214 -0.87987 1445.05 597.901)" stroke="white"/>
<line y1="-0.5" x2="1026.52" y2="-0.5" transform="matrix(-0.877804 -0.479019 0.460007 -0.887915 1561.08 544.906)" stroke="white"/>
<line y1="-0.5" x2="1026.13" y2="-0.5" transform="matrix(-0.88615 -0.463398 0.444676 -0.895692 1639.35 505.267)" stroke="white"/>
<line opacity="0.9" y1="-0.5" x2="1025.75" y2="-0.5" transform="matrix(-0.894224 -0.44762 0.429224 -0.903198 1761.03 494.439)" stroke="white"/>
<line opacity="0.8" y1="-0.5" x2="1025.39" y2="-0.5" transform="matrix(-0.902023 -0.431689 0.413656 -0.910433 1886.54 493.836)" stroke="white"/>
<line opacity="0.6" y1="-0.5" x2="1025.39" y2="-0.5" transform="matrix(-0.902023 -0.431689 0.413656 -0.910433 1995.54 504.1)" stroke="white"/>
<line y1="-0.5" x2="603.986" y2="-0.5" transform="matrix(0.86031 -0.509771 0.490292 0.871558 970.961 869.082)" stroke="white"/>
<line y1="-0.5" x2="1006.64" y2="-0.5" transform="matrix(0.86031 -0.509771 0.490292 0.871558 579 883.474)" stroke="white"/>
<line y1="-0.5" x2="1508.22" y2="-0.5" transform="matrix(0.88615 -0.463398 0.444676 0.895692 116.509 868.074)" stroke="white"/>
<line y1="-0.5" x2="1507.13" y2="-0.5" transform="matrix(0.902023 -0.431689 0.413656 0.910433 -109.457 736.158)" stroke="white"/>
<line y1="-0.5" x2="1506.09" y2="-0.5" transform="matrix(0.916781 -0.399391 0.382192 0.924083 -325.072 653.591)" stroke="white"/>
<line y1="-0.5" x2="1505.13" y2="-0.5" transform="matrix(0.9304 -0.366546 0.35032 0.93663 -549.493 600.509)" stroke="white"/>
<line opacity="0.9" y1="-0.5" x2="1504.67" y2="-0.5" transform="matrix(0.936776 -0.349931 0.334242 0.942488 -758.498 570.764)" stroke="white"/>
<line opacity="0.7" y1="-0.5" x2="1504.23" y2="-0.5" transform="matrix(0.942858 -0.333196 0.318075 0.948066 -971.873 556.065)" stroke="white"/>
</g>
</g>
<defs>
<filter id="filter0_d" x="-29" y="0" width="1508" height="944.781" filterUnits="userSpaceOnUse" color-interpolation-filters="sRGB">
<feFlood flood-opacity="0" result="BackgroundImageFix"/>
<feColorMatrix in="SourceAlpha" type="matrix" values="0 0 0 0 0 0 0 0 0 0 0 0 0 0 0 0 0 0 127 0"/>
<feOffset dy="4"/>
<feGaussianBlur stdDeviation="3"/>
<feColorMatrix type="matrix" values="0 0 0 0 0 0 0 0 0 0 0 0 0 0 0 0 0 0 0.16 0"/>
<feBlend mode="normal" in2="BackgroundImageFix" result="effect1_dropShadow"/>
<feBlend mode="normal" in="SourceGraphic" in2="effect1_dropShadow" result="shape"/>
</filter>
<linearGradient id="paint0_linear" x1="725" y1="2" x2="725" y2="858.314" gradientUnits="userSpaceOnUse">
<stop stop-color="#221057"/>
<stop offset="1" stop-color="#0E30A7"/>
</linearGradient>
<linearGradient id="paint1_linear" x1="-10" y1="85" x2="1433.14" y2="893.159" gradientUnits="userSpaceOnUse">
<stop stop-color="#5A00CC"/>
<stop offset="1" stop-color="#FF0DAD"/>
</linearGradient>
</defs>
</svg>
