<svg width="360" height="825" viewBox="0 0 360 825" fill="none" xmlns="http://www.w3.org/2000/svg">
<g filter="url(#filter0_d)">
<path d="M-300 2H667L665.061 758.42H277.677C272.714 758.42 267.829 759.651 263.459 762.003L192.53 800.179C183.483 805.049 172.572 804.95 163.615 799.916L96.6186 762.267C92.1307 759.745 87.0694 758.42 81.9214 758.42H-300V2Z" fill="url(#paint0_linear)"/>
</g>
<mask id="mask0" mask-type="alpha" maskUnits="userSpaceOnUse" x="-555" y="45" width="1440" height="780">
<rect x="-555" y="45" width="1440" height="780" fill="url(#paint1_linear)"/>
</mask>
<g mask="url(#mask0)">
<g opacity="0.05">
<line y1="-0.5" x2="1027.88" y2="-0.5" transform="matrix(-0.824997 -0.565137 0.545188 -0.838314 151 897.868)" stroke="white"/>
<line y1="-0.5" x2="1712.95" y2="-0.5" transform="matrix(-0.838167 -0.545413 0.525574 -0.850748 447.526 906.047)" stroke="white"/>
<line y1="-0.5" x2="1611.93" y2="-0.5" transform="matrix(-0.841769 -0.539838 0.520041 -0.854141 588.311 827.19)" stroke="white"/>
<line y1="-0.5" x2="1510.57" y2="-0.5" transform="matrix(-0.851169 -0.524892 0.505236 -0.862981 855.749 827.776)" stroke="white"/>
<line y1="-0.5" x2="1409.3" y2="-0.5" transform="matrix(-0.86031 -0.509771 0.490292 -0.871558 918.706 705.54)" stroke="white"/>
<line y1="-0.5" x2="1308.12" y2="-0.5" transform="matrix(-0.86919 -0.494479 0.475214 -0.87987 900.05 557.901)" stroke="white"/>
<line y1="-0.5" x2="1026.52" y2="-0.5" transform="matrix(-0.877804 -0.479019 0.460007 -0.887915 1016.08 504.906)" stroke="white"/>
<line y1="-0.5" x2="1026.13" y2="-0.5" transform="matrix(-0.88615 -0.463398 0.444676 -0.895692 1094.35 465.267)" stroke="white"/>
<line opacity="0.9" y1="-0.5" x2="1025.75" y2="-0.5" transform="matrix(-0.894224 -0.44762 0.429224 -0.903198 1216.03 454.439)" stroke="white"/>
<line y1="-0.5" x2="1006.64" y2="-0.5" transform="matrix(0.86031 -0.509771 0.490292 0.871558 34 843.474)" stroke="white"/>
<line y1="-0.5" x2="1508.22" y2="-0.5" transform="matrix(0.88615 -0.463398 0.444676 0.895692 -428.491 828.074)" stroke="white"/>
<line y1="-0.5" x2="1507.13" y2="-0.5" transform="matrix(0.902023 -0.431689 0.413656 0.910433 -654.457 696.158)" stroke="white"/>
<line y1="-0.5" x2="1506.09" y2="-0.5" transform="matrix(0.916781 -0.399391 0.382192 0.924083 -870.072 613.591)" stroke="white"/>
<line y1="-0.5" x2="1505.13" y2="-0.5" transform="matrix(0.9304 -0.366546 0.35032 0.93663 -1094.49 560.509)" stroke="white"/>
<line opacity="0.9" y1="-0.5" x2="1504.67" y2="-0.5" transform="matrix(0.936776 -0.349931 0.334242 0.942488 -1303.5 530.763)" stroke="white"/>
</g>
</g>
<defs>
<filter id="filter0_d" x="-306" y="0" width="979" height="813.763" filterUnits="userSpaceOnUse" color-interpolation-filters="sRGB">
<feFlood flood-opacity="0" result="BackgroundImageFix"/>
<feColorMatrix in="SourceAlpha" type="matrix" values="0 0 0 0 0 0 0 0 0 0 0 0 0 0 0 0 0 0 127 0"/>
<feOffset dy="4"/>
<feGaussianBlur stdDeviation="3"/>
<feColorMatrix type="matrix" values="0 0 0 0 0 0 0 0 0 0 0 0 0 0 0 0 0 0 0.16 0"/>
<feBlend mode="normal" in2="BackgroundImageFix" result="effect1_dropShadow"/>
<feBlend mode="normal" in="SourceGraphic" in2="effect1_dropShadow" result="shape"/>
</filter>
<linearGradient id="paint0_linear" x1="183.5" y1="2" x2="183.5" y2="768.877" gradientUnits="userSpaceOnUse">
<stop stop-color="#221057"/>
<stop offset="1" stop-color="#0E30A7"/>
</linearGradient>
<linearGradient id="paint1_linear" x1="-555" y1="45" x2="888.141" y2="853.159" gradientUnits="userSpaceOnUse">
<stop stop-color="#5A00CC"/>
<stop offset="1" stop-color="#FF0DAD"/>
</linearGradient>
</defs>
</svg>
