<svg width="623" height="574" viewBox="0 0 623 574" xmlns="http://www.w3.org/2000/svg">
<g opacity="0.2">
<g opacity="0.5">
<path d="M164.493 137.783L243.041 183.479L163.977 229.175L85.429 183.479L164.493 137.783Z" fill="#29A9E1"/>
</g>
<g opacity="0.5">
<path d="M151.461 192.917L230.009 238.613L150.95 284.309L72.397 238.613L151.461 192.917Z" fill="#29A9E1"/>
</g>
<g opacity="0.5">
<path d="M282.382 129.809L360.93 175.505L281.87 221.201L203.323 175.505L282.382 129.809Z" fill="#29A9E1"/>
</g>
<g opacity="0.5">
<path d="M269.355 184.943L347.903 230.639L268.839 276.335L190.291 230.639L269.355 184.943Z" fill="#29A9E1"/>
</g>
<g opacity="0.5">
<path d="M223.119 245.143L301.672 290.839L222.607 336.536L144.06 290.839L223.119 245.143Z" fill="#29A9E1"/>
</g>
<g opacity="0.5">
<path d="M210.092 300.277L288.64 345.973L209.576 391.669L131.028 345.973L210.092 300.277Z" fill="#29A9E1"/>
</g>
<g opacity="0.5">
<path d="M354.672 197.481L433.225 243.177L354.161 288.874L275.613 243.177L354.672 197.481Z" fill="#29A9E1"/>
</g>
<g opacity="0.5">
<path d="M315.586 210.141L394.134 255.837L315.075 301.533L236.527 255.837L315.586 210.141Z" fill="#29A9E1"/>
</g>
<g opacity="0.5">
<path d="M341.645 252.615L420.193 298.311L341.129 344.007L262.581 298.311L341.645 252.615Z" fill="#29A9E1"/>
</g>
<g opacity="0.5">
<path d="M478.216 131.61L556.764 177.307L477.704 222.998L399.157 177.302L478.216 131.61Z" fill="#29A9E1"/>
</g>
<g opacity="0.5">
<path d="M465.189 186.744L543.737 232.44L464.673 278.137L386.125 232.44L465.189 186.744Z" fill="#29A9E1"/>
</g>
<g opacity="0.5">
<path d="M471.702 176.331L550.25 222.027L471.191 267.723L392.638 222.027L471.702 176.331Z" fill="#29A9E1"/>
</g>
<g opacity="0.5">
<path d="M497.761 218.806L576.309 264.502L497.245 310.198L418.697 264.502L497.761 218.806Z" fill="#29A9E1"/>
</g>
<g opacity="0.5">
<path d="M484.729 273.939L563.282 319.636L484.218 365.332L405.67 319.636L484.729 273.939Z" fill="#29A9E1"/>
</g>
<g opacity="0.5">
<path d="M380.731 313.303L459.279 359L380.219 404.696L301.672 359L380.731 313.303Z" fill="#29A9E1"/>
</g>
<g opacity="0.5">
<path d="M367.704 368.437L446.252 414.133L367.188 459.83L288.64 414.133L367.704 368.437Z" fill="#29A9E1"/>
</g>
<g opacity="0.5">
<path d="M367.704 427.474L446.252 473.17L367.188 518.861L288.64 473.165L367.704 427.474Z" fill="#29A9E1"/>
</g>
<g opacity="0.5">
<path d="M354.672 482.608L433.225 528.304L354.161 574L275.613 528.304L354.672 482.608Z" fill="#29A9E1"/>
</g>
<g opacity="0.5">
<path d="M150.829 365.332L229.377 411.028L150.318 456.724L71.7697 411.028L150.829 365.332Z" fill="#29A9E1"/>
</g>
<g opacity="0.5">
<path d="M137.802 420.466L216.35 466.162L137.286 511.858L58.738 466.162L137.802 420.466Z" fill="#29A9E1"/>
</g>
<g opacity="0.5">
<path d="M92.198 221.911L170.751 267.607L91.687 313.303L13.1389 267.607L92.198 221.911Z" fill="#29A9E1"/>
</g>
<g opacity="0.5">
<path d="M79.171 277.05L157.719 322.746L78.655 368.437L0.106995 322.741L79.171 277.05Z" fill="#29A9E1"/>
</g>
<g opacity="0.5">
<path d="M222.656 94.459L253.892 112.634L222.448 130.804L191.213 112.634L222.656 94.459Z" fill="#29A9E1"/>
</g>
<g opacity="0.5">
<path d="M193.905 143.256L225.141 161.431L193.702 179.601L162.466 161.431L193.905 143.256Z" fill="#29A9E1"/>
</g>
<g opacity="0.5">
<path d="M170.591 85.224L201.827 103.394L170.384 121.569L139.148 103.394L170.591 85.224Z" fill="#29A9E1"/>
</g>
<g opacity="0.5">
<path d="M642.138 298.287L673.374 316.462L641.936 334.633L610.7 316.462L642.138 298.287Z" fill="#29A9E1"/>
</g>
<g opacity="0.5">
<path d="M477.695 454.995L508.93 473.17L477.487 491.34L446.251 473.17L477.695 454.995Z" fill="#29A9E1"/>
</g>
<g opacity="0.5">
<path d="M448.944 502.792L480.18 520.967L448.741 539.137L417.501 520.967L448.944 502.792Z" fill="#29A9E1"/>
</g>
<g opacity="0.5">
<path d="M425.63 445.76L456.866 463.93L425.423 482.105L394.187 463.93L425.63 445.76Z" fill="#29A9E1"/>
</g>
<g opacity="0.5">
<path d="M237.516 9.42252L268.752 27.5927L237.314 45.7678L206.078 27.5927L237.516 9.42252Z" fill="#29A9E1"/>
</g>
<g opacity="0.5">
<path d="M208.77 57.2196L240.006 75.39L208.562 93.565L177.327 75.39L208.77 57.2196Z" fill="#29A9E1"/>
</g>
<g opacity="0.5">
<path d="M185.452 0.182709L216.687 18.3578L185.249 36.5281L154.013 18.3578L185.452 0.182709Z" fill="#29A9E1"/>
</g>
<g opacity="0.5">
<path d="M505.804 129.785L537.04 147.955L505.597 166.125L474.361 147.955L505.804 129.785Z" fill="#29A9E1"/>
</g>
<g opacity="0.5">
<path d="M477.053 177.577L508.289 195.752L476.851 213.923L445.61 195.752L477.053 177.577Z" fill="#29A9E1"/>
</g>
<g opacity="0.5">
<path d="M453.735 120.545L484.975 138.72L453.532 156.89L422.296 138.715L453.735 120.545Z" fill="#29A9E1"/>
</g>
<g opacity="0.5">
<path d="M361.19 14.4745L439.738 60.1707L360.674 105.867L282.126 60.1707L361.19 14.4745Z" fill="#29A9E1"/>
</g>
<g opacity="0.5">
<path d="M348.159 69.6084L426.706 115.305L347.647 161.001L269.099 115.305L348.159 69.6084Z" fill="#29A9E1"/>
</g>
<g opacity="0.5">
<path d="M673.152 116.758L751.7 162.455L672.636 208.151L594.088 162.455L673.152 116.758Z" fill="#29A9E1"/>
</g>
<g opacity="0.5">
<path d="M660.125 171.897L738.673 217.593L659.609 263.289L581.061 217.593L660.125 171.897Z" fill="#29A9E1"/>
</g>
<g opacity="0.5">
<path d="M621.426 274.756L699.973 320.452L620.909 366.148L542.362 320.452L621.426 274.756Z" fill="#29A9E1"/>
</g>
<g opacity="0.5">
<path d="M608.399 329.89L686.947 375.586L607.882 421.282L529.335 375.586L608.399 329.89Z" fill="#29A9E1"/>
</g>
<g opacity="0.5">
<path d="M623.428 416.35L701.976 462.047L622.912 507.743L544.364 462.047L623.428 416.35Z" fill="#29A9E1"/>
</g>
<g opacity="0.5">
<path d="M610.396 471.484L688.944 517.18L609.885 562.877L531.337 517.18L610.396 471.484Z" fill="#29A9E1"/>
</g>
</g>
</svg>
